G04*
G04 #@! TF.GenerationSoftware,Altium Limited,Altium Designer,20.0.10 (225)*
G04*
G04 Layer_Color=128*
%FSLAX25Y25*%
%MOIN*%
G70*
G01*
G75*
%ADD227C,0.00200*%
D227*
X309744Y12992D02*
X313091D01*
X311417Y11319D02*
Y14665D01*
X309744Y18898D02*
X313091D01*
X311417Y17224D02*
Y20571D01*
X309744Y24803D02*
X313091D01*
X311417Y23130D02*
Y26476D01*
X309744Y30709D02*
X313091D01*
X311417Y29035D02*
Y32382D01*
X309744Y36614D02*
X313091D01*
X311417Y34941D02*
Y38287D01*
X309744Y42520D02*
X313091D01*
X311417Y40846D02*
Y44193D01*
X352346Y147623D02*
X354708D01*
X353527Y146442D02*
Y148804D01*
X338206Y147623D02*
X340568D01*
X339387Y146442D02*
Y148804D01*
X338202Y133483D02*
X340564D01*
X339383Y132301D02*
Y134664D01*
X135512Y96457D02*
X139291D01*
X137402Y94567D02*
Y98347D01*
X135512Y116142D02*
X139291D01*
X137402Y114252D02*
Y118032D01*
X249803Y279213D02*
X255709D01*
X252756Y276260D02*
Y282165D01*
X249803Y319213D02*
X255709D01*
X252756Y316260D02*
Y322165D01*
X249803Y349213D02*
X255709D01*
X252756Y346260D02*
Y352165D01*
X279803Y279213D02*
X285709D01*
X282756Y276260D02*
Y282165D01*
X279803Y339213D02*
X285709D01*
X282756Y336260D02*
Y342165D01*
X196181Y278976D02*
X202087D01*
X199134Y276024D02*
Y281929D01*
X196181Y318976D02*
X202087D01*
X199134Y316024D02*
Y321929D01*
X196181Y348976D02*
X202087D01*
X199134Y346024D02*
Y351929D01*
X226181Y278976D02*
X232087D01*
X229134Y276024D02*
Y281929D01*
X226181Y338976D02*
X232087D01*
X229134Y336024D02*
Y341929D01*
X138386Y246850D02*
X141929D01*
X140157Y245079D02*
Y248622D01*
X99016Y246850D02*
X102559D01*
X100787Y245079D02*
Y248622D01*
X79331Y325590D02*
X82874D01*
X81102Y323819D02*
Y327362D01*
X158071Y325590D02*
X161614D01*
X159843Y323819D02*
Y327362D01*
X256575Y367323D02*
X264055D01*
X260315Y363583D02*
Y371063D01*
X276575Y367323D02*
X284055D01*
X280315Y363583D02*
Y371063D01*
X203031Y367323D02*
X210512D01*
X206772Y363583D02*
Y371063D01*
X223031Y367323D02*
X230512D01*
X226772Y363583D02*
Y371063D01*
X159843Y368110D02*
X163779D01*
X161811Y366142D02*
Y370079D01*
X41732Y368110D02*
X45669D01*
X43701Y366142D02*
Y370079D01*
X20350Y355610D02*
X27830D01*
X24090Y351870D02*
Y359350D01*
X20350Y375610D02*
X27830D01*
X24090Y371870D02*
Y379350D01*
X35512Y316535D02*
X39291D01*
X37402Y314646D02*
Y318425D01*
X15827Y316535D02*
X19606D01*
X17717Y314646D02*
Y318425D01*
X35512Y272441D02*
X39291D01*
X37402Y270551D02*
Y274331D01*
X15827Y272441D02*
X19606D01*
X17717Y270551D02*
Y274331D01*
X54035Y198031D02*
X58760D01*
X56398Y195669D02*
Y200394D01*
X41831Y174803D02*
X46555D01*
X44193Y172441D02*
Y177165D01*
X29626Y193701D02*
X33563D01*
X31594Y191732D02*
Y195669D01*
X9744Y193701D02*
X18012D01*
X13878Y189567D02*
Y197835D01*
X22835Y138583D02*
X25984D01*
X24409Y137008D02*
Y140157D01*
X22835Y120866D02*
X25984D01*
X24409Y119291D02*
Y122441D01*
X154134Y10433D02*
X157677D01*
X155905Y8661D02*
Y12205D01*
X142323Y10433D02*
X145866D01*
X144095Y8661D02*
Y12205D01*
X285577Y61650D02*
X288923D01*
X287250Y59977D02*
Y63323D01*
X285577Y67555D02*
X288923D01*
X287250Y65882D02*
Y69229D01*
X285577Y73461D02*
X288923D01*
X287250Y71788D02*
Y75134D01*
X285577Y79366D02*
X288923D01*
X287250Y77693D02*
Y81040D01*
X285577Y85272D02*
X288923D01*
X287250Y83599D02*
Y86945D01*
X285577Y91178D02*
X288923D01*
X287250Y89504D02*
Y92851D01*
X196063Y57087D02*
X200787D01*
X198425Y54724D02*
Y59449D01*
X219291Y44882D02*
X224016D01*
X221654Y42520D02*
Y47244D01*
X200787Y32283D02*
X204724D01*
X202756Y30315D02*
Y34252D01*
X198622Y14567D02*
X206890D01*
X202756Y10433D02*
Y18701D01*
X341431Y17200D02*
X342809D01*
X342120Y16511D02*
Y17889D01*
X345161Y21270D02*
X346539D01*
X345850Y20581D02*
Y21959D01*
X352041Y101557D02*
X353419D01*
X352730Y100868D02*
Y102246D01*
X335137Y48106D02*
X336515D01*
X335826Y47417D02*
Y48795D01*
X306192Y82719D02*
X307570D01*
X306881Y82031D02*
Y83408D01*
X319621Y115010D02*
X320999D01*
X320310Y114321D02*
Y115699D01*
X319521Y111420D02*
X320899D01*
X320210Y110731D02*
Y112109D01*
X303581Y73480D02*
X304959D01*
X304270Y72791D02*
Y74169D01*
X305401Y52940D02*
X306779D01*
X306090Y52251D02*
Y53629D01*
X323311Y41530D02*
X324689D01*
X324000Y40841D02*
Y42219D01*
X363731Y43130D02*
X365109D01*
X364420Y42441D02*
Y43819D01*
X259791Y252240D02*
X261169D01*
X260480Y251551D02*
Y252929D01*
X102151Y188010D02*
X103529D01*
X102840Y187321D02*
Y188699D01*
X147391Y48300D02*
X148769D01*
X148080Y47611D02*
Y48989D01*
X288561Y237980D02*
X289939D01*
X289250Y237291D02*
Y238669D01*
X225131Y240290D02*
X226509D01*
X225820Y239601D02*
Y240979D01*
X206004Y235827D02*
X207382D01*
X206693Y235138D02*
Y236516D01*
X122301Y24770D02*
X123679D01*
X122990Y24081D02*
Y25459D01*
X259581Y75610D02*
X260959D01*
X260270Y74921D02*
Y76299D01*
X266821Y75880D02*
X268199D01*
X267510Y75191D02*
Y76569D01*
X182711Y142470D02*
X184089D01*
X183400Y141781D02*
Y143159D01*
X182591Y147290D02*
X183969D01*
X183280Y146601D02*
Y147979D01*
X158441Y218390D02*
X159819D01*
X159130Y217701D02*
Y219079D01*
X137021Y202210D02*
X138399D01*
X137710Y201521D02*
Y202899D01*
X137161Y208610D02*
X138539D01*
X137850Y207921D02*
Y209299D01*
X95541Y218960D02*
X96919D01*
X96230Y218271D02*
Y219649D01*
X44541Y121610D02*
X45919D01*
X45230Y120921D02*
Y122299D01*
X53591Y111990D02*
X54969D01*
X54280Y111301D02*
Y112679D01*
X58951Y131300D02*
X60329D01*
X59640Y130611D02*
Y131989D01*
X55651Y140300D02*
X57029D01*
X56340Y139611D02*
Y140989D01*
X54171Y159500D02*
X55549D01*
X54860Y158811D02*
Y160189D01*
X126401Y169420D02*
X127779D01*
X127090Y168731D02*
Y170109D01*
X147011Y158430D02*
X148389D01*
X147700Y157741D02*
Y159119D01*
X88241Y145110D02*
X89619D01*
X88930Y144421D02*
Y145799D01*
X170431Y186770D02*
X171809D01*
X171120Y186081D02*
Y187459D01*
X186621Y170270D02*
X187999D01*
X187310Y169581D02*
Y170959D01*
X113991Y99620D02*
X115369D01*
X114680Y98931D02*
Y100309D01*
X178221Y130430D02*
X179599D01*
X178910Y129741D02*
Y131119D01*
X153501Y129570D02*
X154879D01*
X154190Y128881D02*
Y130259D01*
X153821Y99500D02*
X155199D01*
X154510Y98811D02*
Y100189D01*
X129501Y78160D02*
X130879D01*
X130190Y77471D02*
Y78849D01*
X281151Y27070D02*
X282529D01*
X281840Y26381D02*
Y27759D01*
X261811Y97940D02*
X263189D01*
X262500Y97251D02*
Y98629D01*
X273881Y75880D02*
X275259D01*
X274570Y75191D02*
Y76569D01*
X275551Y112150D02*
X276929D01*
X276240Y111461D02*
Y112839D01*
X230581Y154510D02*
X231959D01*
X231270Y153821D02*
Y155199D01*
X248361Y150220D02*
X249739D01*
X249050Y149531D02*
Y150909D01*
X248241Y168070D02*
X249619D01*
X248930Y167381D02*
Y168759D01*
X230891Y168260D02*
X232269D01*
X231580Y167571D02*
Y168949D01*
X201781Y130080D02*
X203159D01*
X202470Y129391D02*
Y130769D01*
X266151Y127470D02*
X267529D01*
X266840Y126781D02*
Y128159D01*
X210971Y133960D02*
X212349D01*
X211660Y133271D02*
Y134649D01*
X270111Y203890D02*
X271489D01*
X270800Y203201D02*
Y204579D01*
X271131Y173730D02*
X272509D01*
X271820Y173041D02*
Y174419D01*
X197051Y184790D02*
X198429D01*
X197740Y184101D02*
Y185479D01*
X214951Y178920D02*
X216329D01*
X215640Y178231D02*
Y179609D01*
X228301Y205170D02*
X229679D01*
X228990Y204481D02*
Y205859D01*
X180301Y218580D02*
X181679D01*
X180990Y217891D02*
Y219269D01*
X133563Y32283D02*
X134941D01*
X134252Y31594D02*
Y32972D01*
X76083Y162902D02*
X77461D01*
X76772Y162213D02*
Y163591D01*
X178445Y140091D02*
X179823D01*
X179134Y139402D02*
Y140780D01*
X174114Y138189D02*
X175492D01*
X174803Y137500D02*
Y138878D01*
X264681Y167960D02*
X266059D01*
X265370Y167271D02*
Y168649D01*
X226271Y266970D02*
X227649D01*
X226960Y266281D02*
Y267659D01*
X212697Y203937D02*
X214075D01*
X213386Y203248D02*
Y204626D01*
X207972Y203937D02*
X209350D01*
X208661Y203248D02*
Y204626D01*
X203248Y203937D02*
X204626D01*
X203937Y203248D02*
Y204626D01*
X198524Y203937D02*
X199902D01*
X199213Y203248D02*
Y204626D01*
X193799Y203937D02*
X195177D01*
X194488Y203248D02*
Y204626D01*
X189075Y203937D02*
X190453D01*
X189764Y203248D02*
Y204626D01*
X202621Y135740D02*
X203999D01*
X203310Y135051D02*
Y136429D01*
X215641Y145690D02*
X217019D01*
X216330Y145001D02*
Y146379D01*
X215561Y140460D02*
X216939D01*
X216250Y139771D02*
Y141149D01*
X265111Y185460D02*
X266489D01*
X265800Y184771D02*
Y186149D01*
X258089Y47820D02*
X259271D01*
X258680Y47229D02*
Y48411D01*
X89665Y30650D02*
X91043D01*
X90354Y29961D02*
Y31339D01*
X101381Y28760D02*
X102759D01*
X102070Y28071D02*
Y29449D01*
X106121Y23800D02*
X107499D01*
X106810Y23111D02*
Y24489D01*
X108861Y28870D02*
X110239D01*
X109550Y28181D02*
Y29559D01*
X68341Y15880D02*
X69719D01*
X69030Y15191D02*
Y16569D01*
X293331Y61260D02*
X294709D01*
X294020Y60571D02*
Y61949D01*
X226090Y105681D02*
X227468D01*
X226779Y104992D02*
Y106370D01*
X226090Y101240D02*
X227468D01*
X226779Y100551D02*
Y101929D01*
X226531Y96090D02*
X227909D01*
X227220Y95401D02*
Y96779D01*
X228521Y118320D02*
X229899D01*
X229210Y117631D02*
Y119009D01*
X222401Y116160D02*
X223779D01*
X223090Y115471D02*
Y116849D01*
X217701Y116800D02*
X219079D01*
X218390Y116111D02*
Y117489D01*
X210531Y106010D02*
X211909D01*
X211220Y105321D02*
Y106699D01*
X214881Y111280D02*
X216259D01*
X215570Y110591D02*
Y111969D01*
X210061Y118100D02*
X211439D01*
X210750Y117411D02*
Y118789D01*
X240059Y134022D02*
X241437D01*
X240748Y133333D02*
Y134711D01*
X210041Y87110D02*
X211419D01*
X210730Y86421D02*
Y87799D01*
X211581Y99740D02*
X212959D01*
X212270Y99051D02*
Y100429D01*
X202003Y124108D02*
X203381D01*
X202692Y123419D02*
Y124797D01*
X81006Y106655D02*
X82384D01*
X81695Y105966D02*
Y107344D01*
X230621Y189880D02*
X231999D01*
X231310Y189191D02*
Y190569D01*
X253691Y183280D02*
X255069D01*
X254380Y182591D02*
Y183969D01*
X241685Y214016D02*
X243063D01*
X242374Y213327D02*
Y214705D01*
X243421Y224016D02*
X244799D01*
X244110Y223327D02*
Y224705D01*
X245641Y234016D02*
X247019D01*
X246330Y233327D02*
Y234705D01*
X250201Y186000D02*
X251579D01*
X250890Y185311D02*
Y186689D01*
X246685Y244016D02*
X248063D01*
X247374Y243327D02*
Y244705D01*
X242511Y186800D02*
X243889D01*
X243200Y186111D02*
Y187489D01*
X268996Y268898D02*
X270374D01*
X269685Y268209D02*
Y269587D01*
X236919Y81670D02*
X238101D01*
X237510Y81079D02*
Y82261D01*
X236919Y84146D02*
X238101D01*
X237510Y83555D02*
Y84736D01*
X283319Y166030D02*
X284501D01*
X283910Y165439D02*
Y166621D01*
X283339Y162130D02*
X284521D01*
X283930Y161539D02*
Y162721D01*
X280628Y148603D02*
X282006D01*
X281317Y147914D02*
Y149292D01*
X257991Y28238D02*
X259369D01*
X258680Y27549D02*
Y28927D01*
X57579Y180709D02*
X58957D01*
X58268Y180020D02*
Y181398D01*
X61061Y158610D02*
X62439D01*
X61750Y157921D02*
Y159299D01*
X66561Y157830D02*
X67939D01*
X67250Y157141D02*
Y158519D01*
X238503Y186800D02*
X239880D01*
X239192Y186111D02*
Y187489D01*
X110911Y18800D02*
X112289D01*
X111600Y18111D02*
Y19489D01*
X78001Y6100D02*
X79379D01*
X78690Y5411D02*
Y6789D01*
X78051Y10010D02*
X79429D01*
X78740Y9321D02*
Y10699D01*
X258181Y140320D02*
X259559D01*
X258870Y139631D02*
Y141009D01*
X261321Y140330D02*
X262699D01*
X262010Y139641D02*
Y141019D01*
X259051Y56660D02*
X260429D01*
X259740Y55971D02*
Y57349D01*
X279971Y58490D02*
X281349D01*
X280660Y57801D02*
Y59179D01*
X268391Y114737D02*
X269769D01*
X269079Y114048D02*
Y115426D01*
X262879Y114737D02*
X264257D01*
X263568Y114048D02*
Y115426D01*
X256973Y114737D02*
X258351D01*
X257662Y114048D02*
Y115426D01*
X251855Y114737D02*
X253233D01*
X252544Y114048D02*
Y115426D01*
X102461Y113976D02*
X103839D01*
X103150Y113287D02*
Y114665D01*
X69211Y141720D02*
X70589D01*
X69900Y141031D02*
Y142409D01*
X67931Y150240D02*
X69309D01*
X68620Y149551D02*
Y150929D01*
X288991Y41870D02*
X290369D01*
X289680Y41181D02*
Y42559D01*
X102461Y123425D02*
X103839D01*
X103150Y122736D02*
Y124114D01*
X102461Y117126D02*
X103839D01*
X103150Y116437D02*
Y117815D01*
X102461Y120276D02*
X103839D01*
X103150Y119587D02*
Y120965D01*
X50886Y135827D02*
X52264D01*
X51575Y135138D02*
Y136516D01*
X65847Y180709D02*
X67224D01*
X66535Y180020D02*
Y181398D01*
X61516Y180709D02*
X62894D01*
X62205Y180020D02*
Y181398D01*
X65453Y207874D02*
X66831D01*
X66142Y207185D02*
Y208563D01*
X61516Y207874D02*
X62894D01*
X62205Y207185D02*
Y208563D01*
X57711Y207900D02*
X59089D01*
X58400Y207211D02*
Y208589D01*
M02*
