G04*
G04 #@! TF.GenerationSoftware,Altium Limited,Altium Designer,20.0.10 (225)*
G04*
G04 Layer_Physical_Order=3*
G04 Layer_Color=128*
%FSLAX25Y25*%
%MOIN*%
G70*
G01*
G75*
%ADD150C,0.01000*%
%ADD154C,0.05000*%
%ADD173C,0.04000*%
%ADD176R,0.29134X0.80709*%
%ADD178R,1.31102X1.60630*%
%ADD179C,0.09347*%
%ADD181C,0.08362*%
%ADD183C,0.09780*%
%ADD184C,0.11906*%
%ADD185C,0.09543*%
%ADD186C,0.13480*%
%ADD187C,0.09937*%
%ADD191C,0.14268*%
%ADD192C,0.09150*%
%ADD193O,0.11906X0.10724*%
G04:AMPARAMS|DCode=196|XSize=63.779mil|YSize=63.779mil|CornerRadius=0mil|HoleSize=0mil|Usage=FLASHONLY|Rotation=0.000|XOffset=0mil|YOffset=0mil|HoleType=Round|Shape=Relief|Width=15mil|Gap=10mil|Entries=4|*
%AMTHD196*
7,0,0,0.06378,0.04378,0.01500,45*
%
%ADD196THD196*%
%ADD197C,0.07378*%
%ADD199C,0.07181*%
%ADD200R,0.07087X0.07087*%
%ADD201R,2.96457X0.53150*%
G04:AMPARAMS|DCode=202|XSize=83.465mil|YSize=83.465mil|CornerRadius=0mil|HoleSize=0mil|Usage=FLASHONLY|Rotation=0.000|XOffset=0mil|YOffset=0mil|HoleType=Round|Shape=Relief|Width=15mil|Gap=10mil|Entries=4|*
%AMTHD202*
7,0,0,0.08346,0.06347,0.01500,45*
%
%ADD202THD202*%
G04:AMPARAMS|DCode=203|XSize=109.055mil|YSize=109.055mil|CornerRadius=0mil|HoleSize=0mil|Usage=FLASHONLY|Rotation=0.000|XOffset=0mil|YOffset=0mil|HoleType=Round|Shape=Relief|Width=15mil|Gap=10mil|Entries=4|*
%AMTHD203*
7,0,0,0.10906,0.08906,0.01500,45*
%
%ADD203THD203*%
%AMTHOVALD204*
21,1,0.01181,0.09724,0,0,270.0*
1,1,0.09724,0.00000,0.00591*
1,1,0.09724,0.00000,-0.00591*
21,0,0.01181,0.07724,0,0,270.0*
1,0,0.07724,0.00000,0.00591*
1,0,0.07724,0.00000,-0.00591*
4,0,4,-0.00530,0.00060,-0.03968,0.03498,-0.02908,0.04559,0.00530,0.01121,-0.00530,0.00060,0.0*
4,0,4,-0.00530,-0.01121,0.02908,-0.04559,0.03968,-0.03498,0.00530,-0.00060,-0.00530,-0.01121,0.0*
4,0,4,-0.00530,0.01121,0.02908,0.04559,0.03968,0.03498,0.00530,0.00060,-0.00530,0.01121,0.0*
4,0,4,-0.00530,-0.00060,-0.03968,-0.03498,-0.02908,-0.04559,0.00530,-0.01121,-0.00530,-0.00060,0.0*
%
%ADD204THOVALD204*%

%ADD205O,0.17811X0.10724*%
%ADD206O,0.09937X0.17811*%
%ADD207O,0.10724X0.17811*%
%ADD208O,0.17811X0.09937*%
D150*
X32288Y237822D02*
X43506Y226910D01*
X39370Y222047D02*
X42126Y219291D01*
X52079Y209339D01*
X38189Y223228D02*
Y224409D01*
Y223228D02*
X39370Y222047D01*
X38189Y224409D02*
Y224410D01*
X167323D01*
X23910Y231210D02*
Y236650D01*
Y231210D02*
X24930Y230190D01*
X28582D01*
X194428Y287048D02*
X203812D01*
X207087Y283773D01*
Y276724D02*
Y283773D01*
X191529Y277706D02*
Y284149D01*
X194428Y287048D01*
X191529Y277706D02*
X194357Y270165D01*
X193531Y234752D02*
X194357Y270165D01*
X77566Y184656D02*
Y205541D01*
X70050Y213057D02*
X77566Y205541D01*
X72960Y174452D02*
Y180050D01*
X77566Y184656D01*
X51575Y156693D02*
X54323D01*
X57250Y159620D01*
Y175033D01*
X72960Y160511D02*
Y174452D01*
X187398Y228898D02*
X193531Y234752D01*
X76085Y144055D02*
X87044D01*
Y137310D02*
Y144055D01*
X72960Y147180D02*
Y160511D01*
Y147180D02*
X76085Y144055D01*
X167323Y224410D02*
X187008D01*
X216200Y253601D01*
X282677Y253937D01*
X283858Y256299D01*
X287008Y264961D01*
Y271654D01*
X291732Y275984D01*
Y284646D01*
X288583Y287795D02*
X291732Y284646D01*
X277953Y287795D02*
X288583D01*
X273622Y283858D02*
X277953Y287795D01*
X273622Y277559D02*
Y283858D01*
Y277559D02*
X279921Y270472D01*
Y262787D02*
Y270472D01*
X277533Y257480D02*
X279921Y262787D01*
X204603Y257480D02*
X277533D01*
X202360Y259563D02*
X204603Y257480D01*
X202360Y259563D02*
Y270829D01*
X205617Y273198D01*
X207087Y276724D01*
X43506Y226910D02*
X187398Y228898D01*
X52079Y209339D02*
X55797Y213057D01*
X65813D01*
X70050D01*
X48977Y184870D02*
Y202620D01*
Y183307D02*
Y184870D01*
Y183307D02*
X57250Y175033D01*
X23910Y236650D02*
X25082Y237822D01*
X32288D01*
X61577Y137310D02*
X87044D01*
X50394Y143701D02*
X61577Y137310D01*
X50000Y154724D02*
X50394Y143701D01*
X50000Y154724D02*
X51575Y156693D01*
X28582Y230190D02*
X48977Y202620D01*
D154*
X299213Y165354D02*
X299606Y0D01*
D173*
X0D02*
Y393701D01*
X299213D01*
Y165354D02*
Y393701D01*
Y165354D02*
X393701D01*
Y0D02*
Y165354D01*
X0Y0D02*
X393701D01*
D176*
X15354Y56102D02*
D03*
D178*
X120669Y309842D02*
D03*
D179*
X311417Y18898D02*
D03*
Y24803D02*
D03*
Y30709D02*
D03*
Y36614D02*
D03*
Y42520D02*
D03*
X287250Y61650D02*
D03*
Y67555D02*
D03*
Y73461D02*
D03*
Y79366D02*
D03*
Y85272D02*
D03*
Y91178D02*
D03*
D181*
X353527Y147623D02*
D03*
X339387D02*
D03*
X339383Y133483D02*
D03*
D183*
X137402Y96457D02*
D03*
Y116142D02*
D03*
X37402Y316535D02*
D03*
X17717D02*
D03*
X37402Y272441D02*
D03*
X17717D02*
D03*
D184*
X252756Y279213D02*
D03*
Y319213D02*
D03*
Y349213D02*
D03*
X282756Y339213D02*
D03*
X199134Y318976D02*
D03*
Y348976D02*
D03*
X229134Y278976D02*
D03*
Y338976D02*
D03*
D185*
X140157Y246850D02*
D03*
X100787D02*
D03*
X81102Y325590D02*
D03*
X159843D02*
D03*
X155905Y10433D02*
D03*
X144095D02*
D03*
D186*
X260315Y367323D02*
D03*
X280315D02*
D03*
X206772D02*
D03*
X226772D02*
D03*
X24090Y355610D02*
D03*
Y375610D02*
D03*
D187*
X161811Y368110D02*
D03*
X43701D02*
D03*
D191*
X13878Y193701D02*
D03*
X202756Y14567D02*
D03*
D192*
X24409Y138583D02*
D03*
Y120866D02*
D03*
D193*
X198425Y57087D02*
D03*
D196*
X352730Y101557D02*
D03*
X320310Y115010D02*
D03*
X320210Y111420D02*
D03*
X304270Y73480D02*
D03*
X324000Y41530D02*
D03*
X134252Y32283D02*
D03*
X213386Y203937D02*
D03*
X208661D02*
D03*
X203937D02*
D03*
X199213D02*
D03*
X194488D02*
D03*
X189764D02*
D03*
X203310Y135740D02*
D03*
X265800Y185460D02*
D03*
X294020Y61260D02*
D03*
X211220Y106010D02*
D03*
X210750Y118100D02*
D03*
X202692Y124108D02*
D03*
X247374Y244016D02*
D03*
X258680Y28238D02*
D03*
X58268Y180709D02*
D03*
X61750Y158610D02*
D03*
X67250Y157830D02*
D03*
X78690Y6100D02*
D03*
X78740Y10010D02*
D03*
X258870Y140320D02*
D03*
X262010Y140330D02*
D03*
X259740Y56660D02*
D03*
X280660Y58490D02*
D03*
X269079Y114737D02*
D03*
X263568D02*
D03*
X257662D02*
D03*
X252544D02*
D03*
X69900Y141720D02*
D03*
X68620Y150240D02*
D03*
X66535Y180709D02*
D03*
X62205D02*
D03*
X66142Y207874D02*
D03*
X62205D02*
D03*
X58400Y207900D02*
D03*
D197*
X342120Y17200D02*
D03*
X345850Y21270D02*
D03*
X335826Y48106D02*
D03*
X306881Y82719D02*
D03*
X306090Y52940D02*
D03*
X364420Y43130D02*
D03*
X260480Y252240D02*
D03*
X102840Y188010D02*
D03*
X148080Y48300D02*
D03*
X289250Y237980D02*
D03*
X225820Y240290D02*
D03*
X206693Y235827D02*
D03*
X122990Y24770D02*
D03*
X260270Y75610D02*
D03*
X267510Y75880D02*
D03*
X183400Y142470D02*
D03*
X183280Y147290D02*
D03*
X159130Y218390D02*
D03*
X137710Y202210D02*
D03*
X137850Y208610D02*
D03*
X96230Y218960D02*
D03*
X45230Y121610D02*
D03*
X54280Y111990D02*
D03*
X59640Y131300D02*
D03*
X56340Y140300D02*
D03*
X54860Y159500D02*
D03*
X127090Y169420D02*
D03*
X147700Y158430D02*
D03*
X88930Y145110D02*
D03*
X171120Y186770D02*
D03*
X187310Y170270D02*
D03*
X114680Y99620D02*
D03*
X178910Y130430D02*
D03*
X154190Y129570D02*
D03*
X154510Y99500D02*
D03*
X130190Y78160D02*
D03*
X281840Y27070D02*
D03*
X262500Y97940D02*
D03*
X274570Y75880D02*
D03*
X276240Y112150D02*
D03*
X231270Y154510D02*
D03*
X249050Y150220D02*
D03*
X248930Y168070D02*
D03*
X231580Y168260D02*
D03*
X202470Y130080D02*
D03*
X266840Y127470D02*
D03*
X211660Y133960D02*
D03*
X270800Y203890D02*
D03*
X271820Y173730D02*
D03*
X197740Y184790D02*
D03*
X215640Y178920D02*
D03*
X228990Y205170D02*
D03*
X180990Y218580D02*
D03*
X76772Y162902D02*
D03*
X179134Y140091D02*
D03*
X174803Y138189D02*
D03*
X265370Y167960D02*
D03*
X226960Y266970D02*
D03*
X216330Y145690D02*
D03*
X216250Y140460D02*
D03*
X90354Y30650D02*
D03*
X102070Y28760D02*
D03*
X106810Y23800D02*
D03*
X109550Y28870D02*
D03*
X69030Y15880D02*
D03*
X226779Y105681D02*
D03*
Y101240D02*
D03*
X227220Y96090D02*
D03*
X229210Y118320D02*
D03*
X223090Y116160D02*
D03*
X218390Y116800D02*
D03*
X215570Y111280D02*
D03*
X240748Y134022D02*
D03*
X210730Y87110D02*
D03*
X212270Y99740D02*
D03*
X81695Y106655D02*
D03*
X231310Y189880D02*
D03*
X254380Y183280D02*
D03*
X242374Y214016D02*
D03*
X244110Y224016D02*
D03*
X246330Y234016D02*
D03*
X250890Y186000D02*
D03*
X243200Y186800D02*
D03*
X269685Y268898D02*
D03*
X281317Y148603D02*
D03*
X239192Y186800D02*
D03*
X111600Y18800D02*
D03*
X103150Y113976D02*
D03*
X289680Y41870D02*
D03*
X103150Y123425D02*
D03*
Y117126D02*
D03*
Y120276D02*
D03*
X51575Y135827D02*
D03*
D199*
X258680Y47820D02*
D03*
X237510Y81670D02*
D03*
Y84146D02*
D03*
X283910Y166030D02*
D03*
X283930Y162130D02*
D03*
D200*
X287402Y61417D02*
D03*
D201*
X148228Y365551D02*
D03*
D202*
X311417Y12992D02*
D03*
D203*
X282756Y279213D02*
D03*
X199134Y278976D02*
D03*
D204*
X56398Y198031D02*
D03*
D205*
X44193Y174803D02*
D03*
D206*
X31594Y193701D02*
D03*
D207*
X221654Y44882D02*
D03*
D208*
X202756Y32283D02*
D03*
M02*
