G04*
G04 #@! TF.GenerationSoftware,Altium Limited,Altium Designer,20.0.10 (225)*
G04*
G04 Layer_Color=128*
%FSLAX25Y25*%
%MOIN*%
G70*
G01*
G75*
%ADD21R,0.04000X0.03300*%
%ADD22R,0.03300X0.04000*%
%ADD26R,0.04700X0.05200*%
%ADD30R,0.05200X0.04700*%
%ADD220R,0.04924X0.04924*%
%ADD221R,0.02562X0.04531*%
%ADD222R,0.06200X0.06500*%
%ADD223R,0.04846X0.02483*%
%ADD224R,0.06500X0.06200*%
D21*
X314530Y70980D02*
D03*
X308230D02*
D03*
X314567Y77559D02*
D03*
X308267D02*
D03*
X338582Y30315D02*
D03*
X344882D02*
D03*
X358590Y19790D02*
D03*
X352290D02*
D03*
X351952Y43130D02*
D03*
X358252D02*
D03*
X358268Y58661D02*
D03*
X351968D02*
D03*
X358268Y63779D02*
D03*
X351968D02*
D03*
Y68504D02*
D03*
X358268D02*
D03*
X335826Y53150D02*
D03*
X342126D02*
D03*
D22*
X305640Y58844D02*
D03*
Y65144D02*
D03*
X315200Y89380D02*
D03*
Y83080D02*
D03*
X310250Y83110D02*
D03*
Y89410D02*
D03*
X327953Y29922D02*
D03*
Y23622D02*
D03*
X332677Y29922D02*
D03*
Y23622D02*
D03*
X358268Y79922D02*
D03*
Y73622D02*
D03*
X353382Y79922D02*
D03*
Y73622D02*
D03*
X358268Y85433D02*
D03*
Y91733D02*
D03*
X353150Y91733D02*
D03*
Y85433D02*
D03*
X347866Y91733D02*
D03*
Y85433D02*
D03*
D26*
X345876Y24409D02*
D03*
X338376D02*
D03*
X333278Y114173D02*
D03*
X325778D02*
D03*
D30*
X322047Y23809D02*
D03*
Y31309D02*
D03*
X337008Y17136D02*
D03*
Y9636D02*
D03*
X329528Y17136D02*
D03*
Y9636D02*
D03*
X322047Y17136D02*
D03*
Y9636D02*
D03*
D220*
X312720Y63754D02*
D03*
Y55486D02*
D03*
D221*
X359247Y27002D02*
D03*
X355507D02*
D03*
X351767D02*
D03*
Y37239D02*
D03*
X359247D02*
D03*
D222*
X344590Y41530D02*
D03*
X331090D02*
D03*
X321597Y98032D02*
D03*
X335097D02*
D03*
X321765Y106437D02*
D03*
X335265D02*
D03*
D223*
X341968Y89410D02*
D03*
Y84409D02*
D03*
Y79409D02*
D03*
Y74410D02*
D03*
Y69410D02*
D03*
Y64410D02*
D03*
Y59409D02*
D03*
X321024D02*
D03*
Y64410D02*
D03*
Y69410D02*
D03*
Y74410D02*
D03*
Y79409D02*
D03*
Y84409D02*
D03*
Y89410D02*
D03*
D224*
X364950Y70590D02*
D03*
Y57090D02*
D03*
X364750Y92490D02*
D03*
Y78990D02*
D03*
M02*
