M48
;Layer_Color=9474304
;FILE_FORMAT=2:5
INCH,LZ
;TYPE=PLATED
T1F00S00C0.01181
T2F00S00C0.01378
T3F00S00C0.02362
T4F00S00C0.03150
T5F00S00C0.03346
T6F00S00C0.03543
T7F00S00C0.03780
T8F00S00C0.03937
T11F00S00C0.05906
T12F00S00C0.07480
;TYPE=NON_PLATED
T13F00S00C0.08268
%
T01
X025868Y004782
X023751Y008167
Y0084146
X028393Y016213
X028391Y016603
T02
X007869Y00061
X007874Y001001
X006903Y001588
X0090354Y003065
X010207Y002876
X010955Y002887
X010681Y00238
X01116Y00188
X012299Y002477
X0134252Y0032283
X014808Y00483
X025868Y0028238
X028184Y002707
X028968Y004187
X030609Y005294
X0324Y004153
X0335826Y0048106
X036442Y004313
X034585Y002127
X034212Y00172
X029402Y006126
X028066Y005849
X025974Y005666
X026027Y007561
X026751Y007588
X027457
X030427Y007348
X0306881Y0082719
X032021Y011142
X032031Y011501
X035273Y0101557
X027624Y011215
X0269079Y0114737
X0263568
X0257662
X0252544
X02625Y009794
X026684Y012747
X026201Y014033
X025887Y014032
X024905Y015022
X024893Y016807
X026537Y016796
X027182Y017373
X02658Y018546
X025438Y018328
X025089Y0186
X02432Y01868
X0239192Y01868
X023131Y018988
X022899Y020517
X0213386Y0203937
X021564Y017892
X023158Y016826
X023127Y015451
X021633Y014569
X021625Y014046
X021839Y01168
X022309Y011616
X022921Y011832
X0226779Y0105681
Y010124
X022722Y009609
X021557Y011128
X0240748Y0134022
X0281317Y0148603
X02708Y020389
X0208661Y0203937
X0203937
X0199213
X0194488
X0189764
X019774Y018479
X018731Y017027
X018328Y014729
X01834Y014247
X0179134Y0140091
X0174803Y0138189
X017891Y013043
X020247Y013008
X0202692Y0124108
X020331Y013574
X021166Y013396
X021075Y01181
X021122Y010601
X021227Y009974
X021073Y008711
X015451Y00995
X015419Y012957
X01477Y015843
X012709Y016942
X010284Y018801
X0066535Y0180709
X0062205
X0058268
X006175Y015861
X006725Y015783
X006862Y015024
X00699Y014172
X005634Y01403
X005964Y01313
X008893Y014511
X0076772Y0162902
X0066142Y0207874
X0062205
X00584Y02079
X013785Y020861
X013771Y020221
X017112Y018677
X010315Y0123425
Y0120276
Y0117126
Y0113976
X011468Y009962
X013019Y007816
X0081695Y0106655
X005428Y011199
X004523Y012161
X0051575Y0135827
X005486Y01595
X009623Y021896
X015913Y021839
X018099Y021858
X0206693Y0235827
X022582Y024029
X0247374Y0244016
X024633Y0234016
X024411Y0224016
X0242374Y0214016
X026048Y025224
X0269685Y0268898
X022696Y026697
X028925Y023798
T03
X0339383Y0133483
X0339387Y0147623
X0353527
T04
X0024409Y0120866
Y0138583
T05
X0311417Y0012992
Y0018898
Y0024803
Y0030709
Y0036614
Y004252
X028725Y006165
Y0067555
Y0073461
Y0079366
Y0085272
Y0091178
T06
X0144095Y0010433
X0155905
X0140157Y024685
X0100787
X0081102Y032559
X0159843
T07
X0137402Y0096457
Y0116142
X0037402Y0272441
X0017717
X0017717Y0316535
X0037402
T08
X0043701Y036811
X0161811
T11
X0199134Y0278976
Y0318976
Y0348976
X0229134Y0338976
X0252756Y0349213
Y0319213
Y0279213
X0229134Y0278976
X0282756Y0279213
Y0339213
T12
X002409Y035561
X0206772Y0367323
X0226772
X0260315
X0280315
X002409Y037561
T13
X0202756Y0014567
X0013878Y0193701
M30
