G04*
G04 #@! TF.GenerationSoftware,Altium Limited,Altium Designer,20.0.10 (225)*
G04*
G04 Layer_Physical_Order=1*
G04 Layer_Color=255*
%FSLAX25Y25*%
%MOIN*%
G70*
G01*
G75*
%ADD103C,0.08268*%
%ADD108R,0.04724X0.04724*%
%ADD109R,0.03800X0.03100*%
%ADD110R,0.03100X0.03800*%
%ADD111R,0.03937X0.02756*%
%ADD112R,0.03740X0.08465*%
%ADD113R,0.12795X0.08465*%
%ADD114R,0.04500X0.05000*%
%ADD115R,0.01772X0.01378*%
%ADD116R,0.03937X0.01968*%
%ADD117R,0.08858X0.01968*%
%ADD118R,0.05000X0.04500*%
%ADD119R,0.01181X0.04724*%
%ADD120R,0.04724X0.01181*%
%ADD121R,0.08819X0.05551*%
%ADD122R,0.04331X0.07874*%
%ADD123R,0.04724X0.05984*%
%ADD124R,0.11811X0.03937*%
%ADD125R,0.24410X0.15354*%
%ADD126R,0.17323X0.12992*%
%ADD127R,0.05118X0.13386*%
%ADD128R,0.08500X0.10799*%
%ADD129R,0.03543X0.03543*%
%ADD130R,0.03543X0.03543*%
%ADD131R,0.03543X0.05906*%
%ADD132R,0.05906X0.03543*%
%ADD133R,0.02756X0.05906*%
%ADD134R,0.03937X0.03150*%
%ADD135R,0.02756X0.05906*%
%ADD136R,0.15354X0.24410*%
%ADD137R,0.12992X0.17323*%
%ADD138R,0.07480X0.07480*%
%ADD139R,0.07480X0.07480*%
%ADD140R,0.01575X0.05315*%
%ADD141R,0.08268X0.06299*%
%ADD142R,0.02362X0.04724*%
%ADD143R,0.01378X0.01772*%
G04:AMPARAMS|DCode=144|XSize=49.21mil|YSize=62.99mil|CornerRadius=0mil|HoleSize=0mil|Usage=FLASHONLY|Rotation=315.000|XOffset=0mil|YOffset=0mil|HoleType=Round|Shape=Rectangle|*
%AMROTATEDRECTD144*
4,1,4,-0.03967,-0.00487,0.00487,0.03967,0.03967,0.00487,-0.00487,-0.03967,-0.03967,-0.00487,0.0*
%
%ADD144ROTATEDRECTD144*%

%ADD145C,0.01100*%
%ADD146C,0.01500*%
%ADD147C,0.02500*%
%ADD148C,0.02000*%
%ADD149C,0.00800*%
%ADD150C,0.01000*%
%ADD151C,0.01200*%
%ADD152C,0.03000*%
%ADD153C,0.04500*%
%ADD154C,0.05000*%
%ADD155C,0.01476*%
%ADD156C,0.07000*%
%ADD157C,0.06000*%
%ADD158C,0.05354*%
%ADD159C,0.04095*%
%ADD160C,0.08504*%
%ADD161C,0.11024*%
%ADD162C,0.05669*%
%ADD163C,0.05039*%
%ADD164C,0.10709*%
%ADD165C,0.06299*%
%ADD166O,0.07087X0.14173*%
%ADD167O,0.15748X0.07874*%
%ADD168O,0.07874X0.15748*%
%ADD169C,0.07874*%
%ADD170O,0.14173X0.07087*%
%ADD171C,0.02362*%
%ADD172C,0.01772*%
G36*
X288583Y284252D02*
Y274016D01*
X287402Y272834D01*
X285433Y272834D01*
X285433Y266929D01*
X285039Y266535D01*
X283071Y266535D01*
X282677Y266929D01*
Y270866D01*
X280709Y272835D01*
X277165D01*
X275984Y274016D01*
Y284252D01*
X277165Y285433D01*
X287402D01*
X288583Y284252D01*
D02*
G37*
G36*
X229063Y269847D02*
X229490Y269418D01*
Y268159D01*
X229026Y267853D01*
X228990Y267858D01*
X228533Y268543D01*
X227811Y269024D01*
X227710Y269045D01*
Y266970D01*
Y264895D01*
X227811Y264915D01*
X228533Y265398D01*
X228990Y266082D01*
X229026Y266087D01*
X229490Y265781D01*
X229490Y258690D01*
X228764Y257930D01*
X225710Y257930D01*
X224750Y258850D01*
Y263620D01*
X223440Y264930D01*
X218110D01*
X217770Y265270D01*
X217770Y269490D01*
X218180Y269898D01*
X229063Y269847D01*
D02*
G37*
G36*
X262992Y270079D02*
X262992Y265748D01*
X262205Y264961D01*
X247244D01*
X246063Y266142D01*
Y269685D01*
X247244Y270866D01*
X262205D01*
X262992Y270079D01*
D02*
G37*
G36*
X206299Y284252D02*
X206299Y277098D01*
X204955Y273853D01*
X200163Y269061D01*
X199213Y266766D01*
X199213Y264567D01*
X198425Y263779D01*
X193701Y263779D01*
X192913Y264567D01*
X192913Y284252D01*
X193701Y285039D01*
X205512Y285039D01*
X206299Y284252D01*
D02*
G37*
G36*
X273149Y270158D02*
Y268898D01*
X275984Y268898D01*
X276378Y268504D01*
X276378Y266929D01*
X275984Y266535D01*
X273622D01*
X272441Y265354D01*
Y262992D01*
X271654Y262205D01*
X267717D01*
X266929Y262992D01*
X266929Y270079D01*
X267323Y270472D01*
X272835D01*
X273149Y270158D01*
D02*
G37*
G36*
X236221Y284646D02*
X236220Y273228D01*
X234646Y271654D01*
X216142D01*
X215291Y270803D01*
X215291Y261275D01*
X214647Y260630D01*
X207874Y260630D01*
X207480Y261024D01*
X207480Y264173D01*
X207087Y264567D01*
X203150Y264567D01*
X202362Y265354D01*
X202362Y268826D01*
X211278Y273934D01*
X219041Y280856D01*
X224490Y286255D01*
X234611Y286255D01*
X236221Y284646D01*
D02*
G37*
G36*
X222835Y261811D02*
X222835Y259449D01*
X225197Y257087D01*
X235039Y257087D01*
X235433Y256693D01*
X235433Y251969D01*
X235039Y251575D01*
X224803Y251575D01*
X224409Y251969D01*
Y254331D01*
X220866Y257874D01*
X218110Y257874D01*
X217717Y258268D01*
X217717Y261811D01*
X218110Y262205D01*
X222441Y262205D01*
X222835Y261811D01*
D02*
G37*
G36*
X145276Y250394D02*
Y243307D01*
X143307Y241339D01*
X139764Y241339D01*
X139764Y215850D01*
X127559Y203645D01*
X127559Y194488D01*
X126772Y193701D01*
X119685Y193701D01*
X118898Y194488D01*
X118898Y203937D01*
X120107Y205146D01*
X125591Y205512D01*
X136614Y216535D01*
X136614Y241339D01*
X135039Y242913D01*
Y250394D01*
X136614Y251969D01*
X143701Y251969D01*
X145276Y250394D01*
D02*
G37*
G36*
X21370Y322730D02*
X24470Y319630D01*
Y250310D01*
X24470Y240270D01*
X22040Y237840D01*
Y232410D01*
X21170Y231540D01*
X18340Y231540D01*
X17250Y232630D01*
Y261140D01*
X11060Y267330D01*
X11060Y320320D01*
X13470Y322730D01*
X21370Y322730D01*
D02*
G37*
G36*
X105905Y250000D02*
X105905Y242837D01*
X121324Y224410D01*
X126772Y224409D01*
X127953Y223228D01*
X127953Y214961D01*
X127165Y214173D01*
X119685Y214173D01*
X118504Y215354D01*
X118504Y222199D01*
X102998Y241681D01*
X97754Y241943D01*
X96063Y243721D01*
Y250394D01*
X97638Y251969D01*
X103937D01*
X105905Y250000D01*
D02*
G37*
G36*
X219291Y204769D02*
X219291Y197439D01*
X219291Y189370D01*
X220691Y187970D01*
X224250D01*
X224990Y187230D01*
X224990Y183671D01*
X229528Y179134D01*
X229528Y174574D01*
X229174Y174220D01*
X227953Y174220D01*
X227953Y179134D01*
X224803Y182283D01*
X220079Y182283D01*
X219540Y182822D01*
X219540Y187547D01*
X218317Y188770D01*
X203564Y188770D01*
X203150Y189185D01*
X203150Y193380D01*
X202650Y193880D01*
X195096Y193880D01*
X183970D01*
X183300Y193210D01*
X183300Y190310D01*
X182700Y189710D01*
X176380Y189710D01*
X175860Y190230D01*
X175860Y205080D01*
X177079Y206299D01*
X188473Y206299D01*
X188625Y205799D01*
X188191Y205509D01*
X187709Y204788D01*
X187689Y204687D01*
X189764D01*
Y203937D01*
X190514D01*
Y201862D01*
X190615Y201883D01*
X191336Y202364D01*
X191818Y203086D01*
X191871Y203351D01*
X192381D01*
X192434Y203086D01*
X192916Y202364D01*
X193637Y201883D01*
X193738Y201862D01*
Y203937D01*
X195238D01*
Y201862D01*
X195339Y201883D01*
X196061Y202364D01*
X196543Y203086D01*
X196596Y203351D01*
X197105D01*
X197158Y203086D01*
X197640Y202364D01*
X198362Y201883D01*
X198463Y201862D01*
Y203937D01*
X199963D01*
Y201862D01*
X200064Y201883D01*
X200785Y202364D01*
X201267Y203086D01*
X201320Y203351D01*
X201830D01*
X201883Y203086D01*
X202364Y202364D01*
X203086Y201883D01*
X203187Y201862D01*
Y203937D01*
X204687D01*
Y201862D01*
X204788Y201883D01*
X205509Y202364D01*
X205992Y203086D01*
X206044Y203351D01*
X206554D01*
X206607Y203086D01*
X207089Y202364D01*
X207810Y201883D01*
X207911Y201862D01*
Y203937D01*
X209411D01*
Y201862D01*
X209512Y201883D01*
X210234Y202364D01*
X210716Y203086D01*
X210769Y203351D01*
X211279D01*
X211331Y203086D01*
X211813Y202364D01*
X212535Y201883D01*
X212636Y201862D01*
Y203937D01*
X213386D01*
Y204687D01*
X215460D01*
X215440Y204788D01*
X214958Y205509D01*
X214525Y205799D01*
X214676Y206299D01*
X217761D01*
X219291Y204769D01*
D02*
G37*
G36*
X35827Y248130D02*
Y240158D01*
X85922Y204419D01*
X91031D01*
X92126Y203051D01*
Y194783D01*
X91207Y194095D01*
X83960Y194095D01*
X83084Y194971D01*
X83084Y204437D01*
X36243Y237402D01*
X28346Y237402D01*
X26772Y238976D01*
X26772Y247375D01*
X27874Y249213D01*
X34383Y249213D01*
X35827Y248130D01*
D02*
G37*
G36*
X49812Y234158D02*
X54750Y229220D01*
X112321Y228821D01*
X117790Y221949D01*
X117790Y215354D01*
X117845Y215081D01*
X117999Y214850D01*
X119180Y213669D01*
X119412Y213514D01*
X119685Y213459D01*
X127165Y213459D01*
X127438Y213514D01*
X127670Y213669D01*
X128457Y214456D01*
X128612Y214687D01*
X128666Y214961D01*
X128666Y223228D01*
X128612Y223501D01*
X128457Y223733D01*
X127276Y224914D01*
X127045Y225069D01*
X126772Y225123D01*
X121658Y225123D01*
X118982Y228321D01*
X119195Y228773D01*
X135900Y228657D01*
X135900Y216831D01*
X125276Y206206D01*
X120059Y205858D01*
X119947Y205828D01*
X119834Y205806D01*
X119814Y205792D01*
X119790Y205786D01*
X119699Y205715D01*
X119602Y205651D01*
X118393Y204442D01*
X118238Y204210D01*
X118184Y203937D01*
X118184Y194488D01*
X118238Y194215D01*
X118393Y193983D01*
X119180Y193196D01*
X119412Y193041D01*
X119685Y192987D01*
X126772Y192987D01*
X127045Y193041D01*
X127276Y193196D01*
X128064Y193983D01*
X128218Y194215D01*
X128273Y194488D01*
X128273Y203349D01*
X140268Y215345D01*
X140423Y215577D01*
X140478Y215850D01*
Y228271D01*
X140832Y228623D01*
X184049Y228323D01*
X202593Y248050D01*
X236034D01*
Y205720D01*
X236135Y205213D01*
X236423Y204783D01*
X237584Y203622D01*
X237560Y203565D01*
Y201010D01*
X239360D01*
Y201192D01*
X239822Y201384D01*
X244489Y196716D01*
Y189017D01*
X244078Y188758D01*
X243989Y188765D01*
X243200Y188922D01*
X242388Y188760D01*
X241700Y188300D01*
X241496Y187996D01*
X240895D01*
X240692Y188300D01*
X240004Y188760D01*
X239192Y188922D01*
X238738Y188832D01*
X238238Y189221D01*
X238238Y191006D01*
X238591Y191360D01*
X239060D01*
Y196560D01*
X234560D01*
Y191360D01*
X235383D01*
X235383Y179991D01*
X235030Y179637D01*
X234200D01*
Y188316D01*
X234099Y188823D01*
X233811Y189253D01*
X233391Y189674D01*
X233432Y189880D01*
X233270Y190692D01*
X232810Y191380D01*
X232122Y191840D01*
X231310Y192002D01*
X230498Y191840D01*
X229810Y191380D01*
X229350Y190692D01*
X229188Y189880D01*
X229350Y189068D01*
X229810Y188380D01*
X230153Y188150D01*
X230002Y187650D01*
X229300D01*
Y185100D01*
X227800D01*
Y187650D01*
X225650D01*
X225276Y187954D01*
X224755Y188475D01*
X224523Y188629D01*
X224250Y188684D01*
X220987D01*
X220005Y189666D01*
X220005Y197439D01*
X220005Y204769D01*
X219951Y205042D01*
X219796Y205273D01*
X218265Y206804D01*
X218034Y206959D01*
X217761Y207013D01*
X214676D01*
X214642Y207006D01*
X214606Y207010D01*
X214506Y206979D01*
X214403Y206959D01*
X214374Y206939D01*
X214340Y206929D01*
X214259Y206862D01*
X214172Y206804D01*
X214152Y206774D01*
X214125Y206752D01*
X214075Y206660D01*
X214017Y206572D01*
X214010Y206538D01*
X213993Y206506D01*
X213842Y206006D01*
X213386Y206059D01*
X212574Y205897D01*
X211885Y205437D01*
X211425Y204749D01*
X211291Y204073D01*
X211279Y204065D01*
X210769D01*
X210756Y204073D01*
X210622Y204749D01*
X210162Y205437D01*
X209473Y205897D01*
X208661Y206059D01*
X207849Y205897D01*
X207161Y205437D01*
X206701Y204749D01*
X206567Y204073D01*
X206554Y204065D01*
X206044D01*
X206032Y204073D01*
X205897Y204749D01*
X205437Y205437D01*
X204749Y205897D01*
X203937Y206059D01*
X203125Y205897D01*
X202437Y205437D01*
X201977Y204749D01*
X201842Y204073D01*
X201830Y204065D01*
X201320D01*
X201307Y204073D01*
X201173Y204749D01*
X200713Y205437D01*
X200025Y205897D01*
X199213Y206059D01*
X198401Y205897D01*
X197712Y205437D01*
X197252Y204749D01*
X197118Y204073D01*
X197105Y204065D01*
X196596D01*
X196583Y204073D01*
X196449Y204749D01*
X195989Y205437D01*
X195300Y205897D01*
X194488Y206059D01*
X193676Y205897D01*
X192988Y205437D01*
X192528Y204749D01*
X192393Y204073D01*
X192381Y204065D01*
X191871D01*
X191858Y204073D01*
X191724Y204749D01*
X191264Y205437D01*
X190576Y205897D01*
X189764Y206059D01*
X189308Y206006D01*
X189156Y206506D01*
X189139Y206538D01*
X189133Y206572D01*
X189074Y206660D01*
X189025Y206752D01*
X188998Y206774D01*
X188978Y206804D01*
X188891Y206862D01*
X188810Y206929D01*
X188776Y206939D01*
X188746Y206959D01*
X188644Y206979D01*
X188543Y207010D01*
X188508Y207006D01*
X188473Y207013D01*
X177079Y207013D01*
X176806Y206959D01*
X176575Y206804D01*
X175355Y205585D01*
X175201Y205353D01*
X175146Y205080D01*
X175146Y190230D01*
X175201Y189957D01*
X175355Y189725D01*
X175875Y189205D01*
X176107Y189051D01*
X176380Y188996D01*
X182700Y188996D01*
X182973Y189051D01*
X183205Y189205D01*
X183805Y189805D01*
X183959Y190037D01*
X184014Y190310D01*
X184014Y192533D01*
X184455Y192870D01*
X184700Y192786D01*
Y191050D01*
X191700D01*
Y193166D01*
X195096D01*
X201970Y193166D01*
X202436Y192700D01*
X202436Y189185D01*
X202490Y188912D01*
X202645Y188680D01*
X203060Y188265D01*
X203291Y188111D01*
X203564Y188056D01*
X203761Y187632D01*
Y185850D01*
X207261D01*
Y185100D01*
X208011D01*
Y181850D01*
X210761D01*
Y181850D01*
X210900D01*
Y181850D01*
X213650D01*
Y185100D01*
X214400D01*
Y185850D01*
X217900D01*
Y187470D01*
X218400Y187677D01*
X218826Y187251D01*
X218826Y182822D01*
X218881Y182549D01*
X219035Y182317D01*
X219574Y181779D01*
X219806Y181624D01*
X220079Y181570D01*
X224507Y181570D01*
X227239Y178838D01*
X227239Y174220D01*
X227293Y173947D01*
X227448Y173715D01*
X227646Y173583D01*
Y173513D01*
X227921D01*
X227953Y173506D01*
X229174Y173506D01*
X229315Y173213D01*
X230155D01*
Y173512D01*
X230228D01*
Y174504D01*
X230241Y174574D01*
Y176575D01*
X231548D01*
X231583Y176399D01*
Y173512D01*
X231656D01*
Y173213D01*
X232496D01*
Y173513D01*
X251881D01*
Y176399D01*
X251916Y176575D01*
Y180301D01*
X253188Y181573D01*
X253568Y181320D01*
X254380Y181158D01*
X255192Y181320D01*
X255880Y181780D01*
X256340Y182468D01*
X256502Y183280D01*
X256340Y184092D01*
X255880Y184780D01*
X255192Y185240D01*
X254380Y185402D01*
X253568Y185240D01*
X253338Y185087D01*
X252890Y185389D01*
X253012Y186000D01*
X252850Y186812D01*
X252390Y187500D01*
X251702Y187960D01*
X250890Y188122D01*
X250078Y187960D01*
X249956Y187879D01*
X249516Y188115D01*
Y197360D01*
X249415Y197867D01*
X249127Y198297D01*
X240185Y207239D01*
Y212646D01*
X240686Y212797D01*
X240874Y212515D01*
X241562Y212055D01*
X242374Y211894D01*
X243186Y212055D01*
X243875Y212515D01*
X243991Y212690D01*
X254733D01*
Y210540D01*
X264952D01*
Y217491D01*
X254733D01*
Y215341D01*
X243991D01*
X243875Y215516D01*
X243186Y215976D01*
X242374Y216138D01*
X241562Y215976D01*
X240874Y215516D01*
X240686Y215234D01*
X240185Y215386D01*
Y248050D01*
X293292Y248050D01*
X295846Y245492D01*
X295578Y64644D01*
X290281Y64644D01*
X290034Y65144D01*
X290462Y65701D01*
X290832Y66596D01*
X290860Y66805D01*
X287250D01*
X283640D01*
X283667Y66596D01*
X284038Y65701D01*
X284466Y65144D01*
X284219Y64644D01*
X257900Y64644D01*
X257627Y64589D01*
X257395Y64435D01*
X257348Y64387D01*
X257157D01*
Y64196D01*
X256703Y63742D01*
X256548Y63511D01*
X256494Y63238D01*
X256494Y55642D01*
X256548Y55369D01*
X256703Y55138D01*
X257345Y54495D01*
X257347Y54494D01*
X257348Y54493D01*
X257463Y54417D01*
X257577Y54341D01*
X257579Y54340D01*
X257580Y54339D01*
X257715Y54313D01*
X257850Y54286D01*
X257852Y54287D01*
X257853Y54286D01*
X261462Y54304D01*
X261597Y54331D01*
X261734Y54359D01*
X261734Y54359D01*
X261735Y54359D01*
X261850Y54437D01*
X261965Y54514D01*
X262536Y55088D01*
X262613Y55204D01*
X262689Y55318D01*
X262690Y55319D01*
X262690Y55320D01*
X262717Y55456D01*
X262744Y55591D01*
Y55983D01*
X263097Y56336D01*
X283140D01*
X283413Y56391D01*
X283645Y56545D01*
X284295Y57195D01*
X284449Y57427D01*
X284504Y57700D01*
X284504Y58162D01*
X286338Y58162D01*
X287250Y58042D01*
X288162Y58162D01*
X295215Y58162D01*
X295568Y57808D01*
X295490Y4820D01*
X293730Y3060D01*
X279473D01*
X279047Y3237D01*
X279047Y3560D01*
Y12117D01*
X270166D01*
Y3560D01*
X270166Y3237D01*
X269740Y3060D01*
X269040D01*
X268613Y3237D01*
X268613Y3560D01*
Y12117D01*
X259733D01*
Y3711D01*
X259449Y3547D01*
X259165Y3711D01*
Y12117D01*
X250284D01*
Y3560D01*
X250284Y3237D01*
X249858Y3060D01*
X249158D01*
X248731Y3237D01*
X248731Y3560D01*
Y12117D01*
X239851D01*
Y3560D01*
X239851Y3237D01*
X239424Y3060D01*
X120820D01*
X120610Y2850D01*
X117990Y5470D01*
Y86260D01*
X107310Y96940D01*
X106630D01*
X106479Y97440D01*
X106737Y97613D01*
X142059Y132934D01*
X174100D01*
X174607Y133035D01*
X175037Y133323D01*
X179820Y138105D01*
X179946Y138130D01*
X180634Y138590D01*
X181094Y139279D01*
X181256Y140091D01*
X181094Y140903D01*
X180634Y141591D01*
X179946Y142051D01*
X179134Y142212D01*
X178322Y142051D01*
X177634Y141591D01*
X177173Y140903D01*
X177012Y140091D01*
X177081Y139742D01*
X176958Y139610D01*
X176323Y139661D01*
X176304Y139689D01*
X175615Y140149D01*
X174803Y140311D01*
X173991Y140149D01*
X173303Y139689D01*
X173186Y139515D01*
X140779D01*
X140272Y139414D01*
X139842Y139126D01*
X104141Y103426D01*
X94060D01*
X93909Y103395D01*
X56824D01*
X56317Y103295D01*
X55887Y103007D01*
X50276Y97396D01*
X49913Y97740D01*
X49913Y98219D01*
Y99142D01*
X55354Y104583D01*
X57780D01*
Y104270D01*
X62980D01*
Y108770D01*
X57780D01*
Y108457D01*
X54552D01*
X53810Y108310D01*
X53182Y107890D01*
X50674Y105383D01*
X50213Y105574D01*
Y106534D01*
X47994D01*
Y104905D01*
X49544D01*
X49735Y104444D01*
X47173Y101881D01*
X44576D01*
Y97725D01*
X49413D01*
X49898Y97725D01*
X50241Y97361D01*
X49820Y96940D01*
X12844D01*
X8539Y101201D01*
X7278Y225845D01*
X10609Y229222D01*
X25688Y229279D01*
X25776Y238307D01*
X26233Y238460D01*
X26277Y238462D01*
X27779Y236960D01*
X27804Y236784D01*
X27798Y236677D01*
X27749Y236433D01*
X27719Y236377D01*
X27055Y235933D01*
X26524Y235139D01*
X26338Y234203D01*
X26524Y233267D01*
X27055Y232473D01*
X27849Y231942D01*
X28785Y231756D01*
X30157D01*
X33642Y228272D01*
X33435Y227772D01*
X29589D01*
Y219845D01*
X42043D01*
Y225533D01*
X42505Y225724D01*
X55953Y212276D01*
Y210284D01*
X55827Y210259D01*
X55595Y210105D01*
X50471Y204981D01*
X50317Y204749D01*
X50262Y204476D01*
X50262Y184457D01*
X50317Y184184D01*
X50471Y183953D01*
X56188Y178235D01*
X56188Y178235D01*
X56420Y178081D01*
X56693Y178026D01*
X69092Y178026D01*
X69219Y178052D01*
X69347Y178074D01*
X69355Y178079D01*
X69365Y178081D01*
X69473Y178153D01*
X69582Y178222D01*
X75791Y184099D01*
X75796Y184107D01*
X75805Y184113D01*
X75877Y184221D01*
X75952Y184326D01*
X75954Y184336D01*
X75959Y184344D01*
X75985Y184472D01*
X76013Y184598D01*
X76012Y184608D01*
X76014Y184617D01*
X76014Y204100D01*
X75959Y204373D01*
X75805Y204605D01*
X70305Y210105D01*
X70073Y210259D01*
X69800Y210314D01*
X60847D01*
Y213290D01*
X60661Y214226D01*
X60130Y215020D01*
X46329Y228821D01*
X46651Y229204D01*
X82370Y204067D01*
X82370Y194971D01*
X82424Y194697D01*
X82579Y194466D01*
X83455Y193590D01*
X83687Y193435D01*
X83960Y193381D01*
X91207Y193381D01*
X91295Y193398D01*
X91385Y193403D01*
X91430Y193425D01*
X91480Y193435D01*
X91555Y193485D01*
X91636Y193524D01*
X92554Y194212D01*
X92588Y194250D01*
X92631Y194279D01*
X92680Y194353D01*
X92740Y194420D01*
X92757Y194468D01*
X92785Y194510D01*
X92803Y194598D01*
X92832Y194683D01*
X92830Y194733D01*
X92840Y194783D01*
Y203051D01*
X92820Y203150D01*
X92812Y203250D01*
X92793Y203285D01*
X92785Y203324D01*
X92730Y203408D01*
X92683Y203497D01*
X91589Y204865D01*
X91558Y204891D01*
X91536Y204924D01*
X91453Y204980D01*
X91376Y205045D01*
X91338Y205057D01*
X91305Y205079D01*
X91206Y205098D01*
X91110Y205129D01*
X91071Y205125D01*
X91031Y205133D01*
X86151D01*
X36540Y240525D01*
Y248130D01*
X36531Y248180D01*
X36533Y248231D01*
X36504Y248315D01*
X36486Y248403D01*
X36458Y248446D01*
X36441Y248494D01*
X36381Y248560D01*
X36331Y248635D01*
X36289Y248663D01*
X36255Y248701D01*
X34811Y249784D01*
X34731Y249822D01*
X34656Y249872D01*
X34606Y249882D01*
X34560Y249904D01*
X34471Y249909D01*
X34383Y249926D01*
X27874Y249926D01*
X27788Y249909D01*
X27701Y249905D01*
X27653Y249882D01*
X27601Y249872D01*
X27528Y249823D01*
X27449Y249786D01*
X27413Y249747D01*
X27369Y249717D01*
X27321Y249644D01*
X27262Y249580D01*
X26371Y248095D01*
X25872Y248235D01*
X26573Y320176D01*
X31923Y325474D01*
X48486Y325474D01*
X49812Y234158D01*
D02*
G37*
G36*
X75300Y204100D02*
X75300Y184617D01*
X69092Y178740D01*
X56693Y178740D01*
X50976Y184457D01*
X50976Y204476D01*
X56100Y209600D01*
X69800D01*
X75300Y204100D01*
D02*
G37*
G36*
X295810Y63930D02*
X296530Y63210D01*
X296530Y59740D01*
X295666Y58876D01*
X284183Y58876D01*
X283790Y58473D01*
X283790Y57700D01*
X283140Y57050D01*
X262030D01*
X262030Y55591D01*
X261459Y55017D01*
X257850Y55000D01*
X257207Y55642D01*
X257207Y63238D01*
X257900Y63930D01*
X295810Y63930D01*
D02*
G37*
G36*
X116400Y17600D02*
Y16400D01*
Y13600D01*
X116000Y13200D01*
X111600D01*
Y12400D01*
X111200Y12000D01*
X106800D01*
Y12400D01*
X106400Y12800D01*
Y16800D01*
X109100Y20400D01*
X113600D01*
X116400Y17600D01*
D02*
G37*
G36*
X97770Y25253D02*
X97770Y5359D01*
X106244Y5359D01*
X106321Y5359D01*
X106620Y5657D01*
X106620Y5735D01*
X106620Y9941D01*
X106979Y10300D01*
X110740D01*
X111001Y10039D01*
X111001Y3399D01*
X110631Y3029D01*
X75221Y3029D01*
X74303Y3947D01*
X74303Y11723D01*
X75310Y12730D01*
X82445D01*
X83344Y11817D01*
X83320Y10249D01*
X91891D01*
X91891Y12149D01*
X93384Y13642D01*
X93384Y25253D01*
X97770Y25253D01*
D02*
G37*
G36*
X112440Y32730D02*
X112440Y22560D01*
X112520Y22480D01*
X111300Y21260D01*
X107770Y21260D01*
X103670Y17160D01*
X103670Y12750D01*
X105170Y11250D01*
Y6650D01*
X104680Y6160D01*
X100040D01*
Y6280D01*
X98560Y7760D01*
X98560Y18291D01*
X98854D01*
Y22244D01*
X100354D01*
Y22994D01*
Y23744D01*
X103126D01*
Y26197D01*
X102927D01*
X102878Y26697D01*
X102921Y26706D01*
X103642Y27187D01*
X104124Y27909D01*
X104145Y28010D01*
X102070D01*
Y29510D01*
X104145D01*
X104124Y29611D01*
X103642Y30332D01*
X102921Y30815D01*
X102385Y30921D01*
X102434Y31421D01*
X102791D01*
Y34193D01*
X104291D01*
Y35693D01*
X108244D01*
Y36260D01*
X108910D01*
X112440Y32730D01*
D02*
G37*
G36*
X391732Y162205D02*
Y3937D01*
X389764Y1969D01*
X303937D01*
X301575Y4331D01*
Y161024D01*
X303543Y162992D01*
X390551Y163386D01*
X391732Y162205D01*
D02*
G37*
%LPC*%
G36*
X226210Y269045D02*
X226109Y269024D01*
X225388Y268543D01*
X224905Y267821D01*
X224885Y267720D01*
X226210D01*
Y269045D01*
D02*
G37*
G36*
Y266220D02*
X224885D01*
X224905Y266119D01*
X225388Y265398D01*
X226109Y264915D01*
X226210Y264895D01*
Y266220D01*
D02*
G37*
G36*
X229884Y285446D02*
Y279726D01*
X235603D01*
X235552Y280253D01*
X235179Y281480D01*
X234574Y282612D01*
X233761Y283603D01*
X232769Y284417D01*
X231638Y285022D01*
X230410Y285394D01*
X229884Y285446D01*
D02*
G37*
G36*
X228384D02*
X227857Y285394D01*
X226630Y285022D01*
X225499Y284417D01*
X224507Y283603D01*
X223693Y282612D01*
X223089Y281480D01*
X222716Y280253D01*
X222664Y279726D01*
X228384D01*
Y285446D01*
D02*
G37*
G36*
X235603Y278226D02*
X229884D01*
Y272507D01*
X230410Y272559D01*
X231638Y272931D01*
X232769Y273536D01*
X233761Y274349D01*
X234574Y275341D01*
X235179Y276472D01*
X235552Y277700D01*
X235603Y278226D01*
D02*
G37*
G36*
X228384D02*
X222664D01*
X222716Y277700D01*
X223089Y276472D01*
X223693Y275341D01*
X224507Y274349D01*
X225499Y273536D01*
X226630Y272931D01*
X227857Y272559D01*
X228384Y272507D01*
Y278226D01*
D02*
G37*
G36*
X207004Y268618D02*
X205868D01*
Y267679D01*
X207004D01*
Y268618D01*
D02*
G37*
G36*
X204368D02*
X203232D01*
Y267679D01*
X204368D01*
Y268618D01*
D02*
G37*
G36*
X207004Y266179D02*
X205868D01*
Y265240D01*
X207004D01*
Y266179D01*
D02*
G37*
G36*
X204368D02*
X203232D01*
Y265240D01*
X204368D01*
Y266179D01*
D02*
G37*
G36*
X214386Y266158D02*
X212167D01*
Y264529D01*
X214386D01*
Y266158D01*
D02*
G37*
G36*
X210667D02*
X208449D01*
Y264529D01*
X210667D01*
Y266158D01*
D02*
G37*
G36*
X214386Y263030D02*
X212167D01*
Y261402D01*
X214386D01*
Y263030D01*
D02*
G37*
G36*
X210667D02*
X208449D01*
Y261402D01*
X210667D01*
Y263030D01*
D02*
G37*
G36*
X140908Y250619D02*
Y247600D01*
X143927D01*
X143893Y247851D01*
X143507Y248784D01*
X142892Y249585D01*
X142091Y250200D01*
X141158Y250586D01*
X140908Y250619D01*
D02*
G37*
G36*
X139408D02*
X139156Y250586D01*
X138224Y250200D01*
X137423Y249585D01*
X136808Y248784D01*
X136422Y247851D01*
X136389Y247600D01*
X139408D01*
Y250619D01*
D02*
G37*
G36*
X143927Y246100D02*
X140908D01*
Y243081D01*
X141158Y243114D01*
X142091Y243501D01*
X142892Y244115D01*
X143507Y244917D01*
X143893Y245849D01*
X143927Y246100D01*
D02*
G37*
G36*
X139408D02*
X136389D01*
X136422Y245849D01*
X136808Y244917D01*
X137423Y244115D01*
X138224Y243501D01*
X139156Y243114D01*
X139408Y243081D01*
Y246100D01*
D02*
G37*
G36*
X126689Y203205D02*
X124077D01*
Y199963D01*
X126689D01*
Y203205D01*
D02*
G37*
G36*
X122577D02*
X119965D01*
Y199963D01*
X122577D01*
Y203205D01*
D02*
G37*
G36*
X126689Y198463D02*
X124077D01*
Y195220D01*
X126689D01*
Y198463D01*
D02*
G37*
G36*
X122577D02*
X119965D01*
Y195220D01*
X122577D01*
Y198463D01*
D02*
G37*
G36*
X18466Y321734D02*
Y317285D01*
X22915D01*
X22833Y317906D01*
X22304Y319184D01*
X21462Y320281D01*
X20365Y321123D01*
X19088Y321652D01*
X18466Y321734D01*
D02*
G37*
G36*
X16966D02*
X16345Y321652D01*
X15068Y321123D01*
X13971Y320281D01*
X13129Y319184D01*
X12600Y317906D01*
X12518Y317285D01*
X16966D01*
Y321734D01*
D02*
G37*
G36*
Y315785D02*
X12518D01*
X12600Y315164D01*
X13129Y313887D01*
X13971Y312790D01*
X15068Y311948D01*
X16345Y311419D01*
X16966Y311337D01*
Y315785D01*
D02*
G37*
G36*
X22915D02*
X18466D01*
Y311337D01*
X19088Y311419D01*
X20365Y311948D01*
X21462Y312790D01*
X22304Y313887D01*
X22833Y315164D01*
X22915Y315785D01*
D02*
G37*
G36*
X18466Y277640D02*
Y273191D01*
X22915D01*
X22833Y273812D01*
X22304Y275090D01*
X21462Y276187D01*
X20365Y277028D01*
X19088Y277558D01*
X18466Y277640D01*
D02*
G37*
G36*
X16966D02*
X16345Y277558D01*
X15068Y277028D01*
X13971Y276187D01*
X13129Y275090D01*
X12600Y273812D01*
X12518Y273191D01*
X16966D01*
Y277640D01*
D02*
G37*
G36*
X22915Y271691D02*
X18466D01*
Y267242D01*
X19088Y267324D01*
X20365Y267853D01*
X21462Y268695D01*
X22304Y269792D01*
X22833Y271070D01*
X22915Y271691D01*
D02*
G37*
G36*
X16966D02*
X12518D01*
X12600Y271070D01*
X13129Y269792D01*
X13971Y268695D01*
X15068Y267853D01*
X16345Y267324D01*
X16966Y267242D01*
Y271691D01*
D02*
G37*
G36*
X101537Y250302D02*
Y247600D01*
X104239D01*
X104217Y247769D01*
X103862Y248625D01*
X103298Y249361D01*
X102562Y249925D01*
X101706Y250279D01*
X101537Y250302D01*
D02*
G37*
G36*
X100037D02*
X99869Y250279D01*
X99012Y249925D01*
X98277Y249361D01*
X97713Y248625D01*
X97358Y247769D01*
X97336Y247600D01*
X100037D01*
Y250302D01*
D02*
G37*
G36*
X104239Y246100D02*
X101537D01*
Y243399D01*
X101706Y243421D01*
X102562Y243776D01*
X103298Y244340D01*
X103862Y245075D01*
X104217Y245932D01*
X104239Y246100D01*
D02*
G37*
G36*
X100037D02*
X97336D01*
X97358Y245932D01*
X97713Y245075D01*
X98277Y244340D01*
X99012Y243776D01*
X99869Y243421D01*
X100037Y243399D01*
Y246100D01*
D02*
G37*
G36*
X126728Y222890D02*
X124366D01*
Y219898D01*
X126728D01*
Y222890D01*
D02*
G37*
G36*
X122366D02*
X120004D01*
Y219898D01*
X122366D01*
Y222890D01*
D02*
G37*
G36*
X126728Y217898D02*
X124366D01*
Y214906D01*
X126728D01*
Y217898D01*
D02*
G37*
G36*
X122366D02*
X120004D01*
Y214906D01*
X122366D01*
Y217898D01*
D02*
G37*
G36*
X215460Y203187D02*
X214136D01*
Y201862D01*
X214237Y201883D01*
X214958Y202364D01*
X215440Y203086D01*
X215460Y203187D01*
D02*
G37*
G36*
X189014D02*
X187689D01*
X187709Y203086D01*
X188191Y202364D01*
X188913Y201883D01*
X189014Y201862D01*
Y203187D01*
D02*
G37*
G36*
X191700Y201050D02*
X188950D01*
Y198550D01*
X191700D01*
Y201050D01*
D02*
G37*
G36*
X187450D02*
X184700D01*
Y198550D01*
X187450D01*
Y201050D01*
D02*
G37*
G36*
X182535Y200902D02*
X180415D01*
Y196419D01*
X182535D01*
Y200902D01*
D02*
G37*
G36*
X178915D02*
X176795D01*
Y196419D01*
X178915D01*
Y200902D01*
D02*
G37*
G36*
X191700Y197050D02*
X188950D01*
Y194550D01*
X191700D01*
Y197050D01*
D02*
G37*
G36*
X187450D02*
X184700D01*
Y194550D01*
X187450D01*
Y197050D01*
D02*
G37*
G36*
X215150Y195850D02*
Y193350D01*
X217900D01*
Y195850D01*
X215150D01*
D02*
G37*
G36*
X206511D02*
X203761D01*
Y193350D01*
X206511D01*
Y195850D01*
D02*
G37*
G36*
X182535Y194919D02*
X180415D01*
Y190437D01*
X182535D01*
Y194919D01*
D02*
G37*
G36*
X178915D02*
X176795D01*
Y190437D01*
X178915D01*
Y194919D01*
D02*
G37*
G36*
X217900Y191850D02*
X215150D01*
Y189350D01*
X217900D01*
Y191850D01*
D02*
G37*
G36*
X206511D02*
X203761D01*
Y189350D01*
X206511D01*
Y191850D01*
D02*
G37*
G36*
X210900Y195850D02*
X210400Y195850D01*
X208011D01*
Y192600D01*
Y189350D01*
X210400D01*
X210761Y189350D01*
X211261Y189350D01*
X213650D01*
Y192600D01*
Y195850D01*
X211261D01*
X210900Y195850D01*
D02*
G37*
G36*
X34608Y248195D02*
X32442D01*
Y244258D01*
X34608D01*
Y248195D01*
D02*
G37*
G36*
X30442D02*
X28277D01*
Y244258D01*
X30442D01*
Y248195D01*
D02*
G37*
G36*
X34608Y242258D02*
X32442D01*
Y238321D01*
X34608D01*
Y242258D01*
D02*
G37*
G36*
X30442D02*
X28277D01*
Y238321D01*
X30442D01*
Y242258D01*
D02*
G37*
G36*
X91020Y203205D02*
X88657D01*
Y200213D01*
X91020D01*
Y203205D01*
D02*
G37*
G36*
X86658D02*
X84295D01*
Y200213D01*
X86658D01*
Y203205D01*
D02*
G37*
G36*
X91020Y198213D02*
X88657D01*
Y195220D01*
X91020D01*
Y198213D01*
D02*
G37*
G36*
X86658D02*
X84295D01*
Y195220D01*
X86658D01*
Y198213D01*
D02*
G37*
G36*
X38151Y321734D02*
Y317285D01*
X42600D01*
X42518Y317906D01*
X41989Y319184D01*
X41147Y320281D01*
X40050Y321123D01*
X38773Y321652D01*
X38151Y321734D01*
D02*
G37*
G36*
X36652D02*
X36031Y321652D01*
X34753Y321123D01*
X33656Y320281D01*
X32814Y319184D01*
X32285Y317906D01*
X32203Y317285D01*
X36652D01*
Y321734D01*
D02*
G37*
G36*
Y315785D02*
X32203D01*
X32285Y315164D01*
X32814Y313887D01*
X33656Y312790D01*
X34753Y311948D01*
X36031Y311419D01*
X36652Y311337D01*
Y315785D01*
D02*
G37*
G36*
X42600D02*
X38151D01*
Y311337D01*
X38773Y311419D01*
X40050Y311948D01*
X41147Y312790D01*
X41989Y313887D01*
X42518Y315164D01*
X42600Y315785D01*
D02*
G37*
G36*
X38152Y277640D02*
Y273191D01*
X42600D01*
X42518Y273812D01*
X41989Y275090D01*
X41147Y276187D01*
X40050Y277028D01*
X38773Y277558D01*
X38152Y277640D01*
D02*
G37*
G36*
X36652D02*
X36031Y277558D01*
X34753Y277028D01*
X33656Y276187D01*
X32814Y275090D01*
X32285Y273812D01*
X32203Y273191D01*
X36652D01*
Y277640D01*
D02*
G37*
G36*
X42600Y271691D02*
X38152D01*
Y267242D01*
X38773Y267324D01*
X40050Y267853D01*
X41147Y268695D01*
X41989Y269792D01*
X42518Y271070D01*
X42600Y271691D01*
D02*
G37*
G36*
X36652D02*
X32203D01*
X32285Y271070D01*
X32814Y269792D01*
X33656Y268695D01*
X34753Y267853D01*
X36031Y267324D01*
X36652Y267242D01*
Y271691D01*
D02*
G37*
G36*
X226570Y242365D02*
Y241040D01*
X227895D01*
X227874Y241141D01*
X227393Y241863D01*
X226671Y242344D01*
X226570Y242365D01*
D02*
G37*
G36*
X225070D02*
X224969Y242344D01*
X224248Y241863D01*
X223765Y241141D01*
X223745Y241040D01*
X225070D01*
Y242365D01*
D02*
G37*
G36*
X264952Y247491D02*
X254733D01*
Y247445D01*
X247374D01*
X246487Y247328D01*
X245660Y246986D01*
X244949Y246441D01*
X244404Y245730D01*
X244062Y244903D01*
X243945Y244016D01*
X244062Y243128D01*
X244404Y242301D01*
X244949Y241591D01*
X245660Y241046D01*
X246487Y240703D01*
X247374Y240586D01*
X254733D01*
Y240540D01*
X264952D01*
Y247491D01*
D02*
G37*
G36*
X290000Y240055D02*
Y238730D01*
X291325D01*
X291305Y238831D01*
X290823Y239552D01*
X290101Y240035D01*
X290000Y240055D01*
D02*
G37*
G36*
X288500D02*
X288399Y240035D01*
X287678Y239552D01*
X287195Y238831D01*
X287175Y238730D01*
X288500D01*
Y240055D01*
D02*
G37*
G36*
X227895Y239540D02*
X226570D01*
Y238215D01*
X226671Y238235D01*
X227393Y238718D01*
X227874Y239439D01*
X227895Y239540D01*
D02*
G37*
G36*
X225070D02*
X223745D01*
X223765Y239439D01*
X224248Y238718D01*
X224969Y238235D01*
X225070Y238215D01*
Y239540D01*
D02*
G37*
G36*
X207443Y237901D02*
Y236577D01*
X208768D01*
X208748Y236678D01*
X208265Y237399D01*
X207544Y237881D01*
X207443Y237901D01*
D02*
G37*
G36*
X205943D02*
X205842Y237881D01*
X205120Y237399D01*
X204638Y236678D01*
X204618Y236577D01*
X205943D01*
Y237901D01*
D02*
G37*
G36*
X291325Y237230D02*
X290000D01*
Y235905D01*
X290101Y235926D01*
X290823Y236407D01*
X291305Y237129D01*
X291325Y237230D01*
D02*
G37*
G36*
X288500D02*
X287175D01*
X287195Y237129D01*
X287678Y236407D01*
X288399Y235926D01*
X288500Y235905D01*
Y237230D01*
D02*
G37*
G36*
X264952Y237491D02*
X254733D01*
Y235341D01*
X247947D01*
X247830Y235516D01*
X247142Y235976D01*
X246330Y236138D01*
X245518Y235976D01*
X244830Y235516D01*
X244370Y234828D01*
X244208Y234016D01*
X244370Y233204D01*
X244830Y232515D01*
X245518Y232055D01*
X246330Y231894D01*
X247142Y232055D01*
X247830Y232515D01*
X247947Y232690D01*
X254733D01*
Y230540D01*
X264952D01*
Y237491D01*
D02*
G37*
G36*
X208768Y235077D02*
X207443D01*
Y233752D01*
X207544Y233772D01*
X208265Y234254D01*
X208748Y234976D01*
X208768Y235077D01*
D02*
G37*
G36*
X205943D02*
X204618D01*
X204638Y234976D01*
X205120Y234254D01*
X205842Y233772D01*
X205943Y233752D01*
Y235077D01*
D02*
G37*
G36*
X264952Y227491D02*
X254733D01*
Y225341D01*
X245727D01*
X245610Y225516D01*
X244922Y225976D01*
X244110Y226138D01*
X243298Y225976D01*
X242610Y225516D01*
X242150Y224828D01*
X241988Y224016D01*
X242150Y223204D01*
X242610Y222515D01*
X243298Y222055D01*
X244110Y221894D01*
X244922Y222055D01*
X245610Y222515D01*
X245727Y222690D01*
X254733D01*
Y220540D01*
X264952D01*
Y227491D01*
D02*
G37*
G36*
X28089Y227772D02*
X15634D01*
Y219845D01*
X28089D01*
Y227772D01*
D02*
G37*
G36*
X96980Y221035D02*
Y219710D01*
X98305D01*
X98285Y219811D01*
X97803Y220532D01*
X97081Y221015D01*
X96980Y221035D01*
D02*
G37*
G36*
X95480D02*
X95379Y221015D01*
X94657Y220532D01*
X94175Y219811D01*
X94155Y219710D01*
X95480D01*
Y221035D01*
D02*
G37*
G36*
X91059Y222890D02*
X88447D01*
Y219648D01*
X91059D01*
Y222890D01*
D02*
G37*
G36*
X86947D02*
X84335D01*
Y219648D01*
X86947D01*
Y222890D01*
D02*
G37*
G36*
X181740Y220655D02*
Y219330D01*
X183065D01*
X183045Y219431D01*
X182562Y220152D01*
X181841Y220635D01*
X181740Y220655D01*
D02*
G37*
G36*
X180240D02*
X180139Y220635D01*
X179418Y220152D01*
X178935Y219431D01*
X178915Y219330D01*
X180240D01*
Y220655D01*
D02*
G37*
G36*
X178007Y223736D02*
X171360D01*
Y219254D01*
X178007D01*
Y223736D01*
D02*
G37*
G36*
X169860D02*
X163212D01*
Y219254D01*
X169860D01*
Y223736D01*
D02*
G37*
G36*
X159880Y220465D02*
Y219140D01*
X161205D01*
X161185Y219241D01*
X160703Y219963D01*
X159981Y220444D01*
X159880Y220465D01*
D02*
G37*
G36*
X158380D02*
X158279Y220444D01*
X157557Y219963D01*
X157076Y219241D01*
X157055Y219140D01*
X158380D01*
Y220465D01*
D02*
G37*
G36*
X98305Y218210D02*
X96980D01*
Y216885D01*
X97081Y216905D01*
X97803Y217388D01*
X98285Y218109D01*
X98305Y218210D01*
D02*
G37*
G36*
X95480D02*
X94155D01*
X94175Y218109D01*
X94657Y217388D01*
X95379Y216905D01*
X95480Y216885D01*
Y218210D01*
D02*
G37*
G36*
X183065Y217830D02*
X181740D01*
Y216505D01*
X181841Y216526D01*
X182562Y217007D01*
X183045Y217729D01*
X183065Y217830D01*
D02*
G37*
G36*
X180240D02*
X178915D01*
X178935Y217729D01*
X179418Y217007D01*
X180139Y216526D01*
X180240Y216505D01*
Y217830D01*
D02*
G37*
G36*
X161205Y217640D02*
X159880D01*
Y216315D01*
X159981Y216335D01*
X160703Y216817D01*
X161185Y217539D01*
X161205Y217640D01*
D02*
G37*
G36*
X158380D02*
X157055D01*
X157076Y217539D01*
X157557Y216817D01*
X158279Y216335D01*
X158380Y216315D01*
Y217640D01*
D02*
G37*
G36*
X91059Y218148D02*
X88447D01*
Y214906D01*
X91059D01*
Y218148D01*
D02*
G37*
G36*
X86947D02*
X84335D01*
Y214906D01*
X86947D01*
Y218148D01*
D02*
G37*
G36*
X178007Y217754D02*
X171360D01*
Y213272D01*
X178007D01*
Y217754D01*
D02*
G37*
G36*
X169860D02*
X163212D01*
Y213272D01*
X169860D01*
Y217754D01*
D02*
G37*
G36*
X42043Y218344D02*
X29589D01*
Y210417D01*
X42043D01*
Y218344D01*
D02*
G37*
G36*
X28089D02*
X15634D01*
Y210417D01*
X28089D01*
Y218344D01*
D02*
G37*
G36*
X138600Y210685D02*
Y209360D01*
X139925D01*
X139904Y209461D01*
X139423Y210182D01*
X138701Y210665D01*
X138600Y210685D01*
D02*
G37*
G36*
X137100D02*
X136999Y210665D01*
X136277Y210182D01*
X135795Y209461D01*
X135775Y209360D01*
X137100D01*
Y210685D01*
D02*
G37*
G36*
X144375Y210948D02*
X142225D01*
Y209148D01*
X144375D01*
Y210948D01*
D02*
G37*
G36*
X139925Y207860D02*
X138600D01*
Y206535D01*
X138701Y206556D01*
X139423Y207037D01*
X139904Y207759D01*
X139925Y207860D01*
D02*
G37*
G36*
X137100D02*
X135775D01*
X135795Y207759D01*
X136277Y207037D01*
X136999Y206556D01*
X137100Y206535D01*
Y207860D01*
D02*
G37*
G36*
X229740Y207245D02*
Y205920D01*
X231065D01*
X231045Y206021D01*
X230562Y206743D01*
X229841Y207224D01*
X229740Y207245D01*
D02*
G37*
G36*
X228240D02*
X228139Y207224D01*
X227417Y206743D01*
X226935Y206021D01*
X226915Y205920D01*
X228240D01*
Y207245D01*
D02*
G37*
G36*
X265252Y207791D02*
X260593D01*
Y204766D01*
X265252D01*
Y207791D01*
D02*
G37*
G36*
X259092D02*
X254433D01*
Y204766D01*
X259092D01*
Y207791D01*
D02*
G37*
G36*
X271550Y205965D02*
Y204640D01*
X272875D01*
X272855Y204741D01*
X272373Y205463D01*
X271651Y205944D01*
X271550Y205965D01*
D02*
G37*
G36*
X270050D02*
X269949Y205944D01*
X269228Y205463D01*
X268745Y204741D01*
X268725Y204640D01*
X270050D01*
Y205965D01*
D02*
G37*
G36*
X231065Y204420D02*
X229740D01*
Y203095D01*
X229841Y203116D01*
X230562Y203597D01*
X231045Y204319D01*
X231065Y204420D01*
D02*
G37*
G36*
X228240D02*
X226915D01*
X226935Y204319D01*
X227417Y203597D01*
X228139Y203116D01*
X228240Y203095D01*
Y204420D01*
D02*
G37*
G36*
X138460Y204285D02*
Y202960D01*
X139785D01*
X139765Y203061D01*
X139283Y203783D01*
X138561Y204265D01*
X138460Y204285D01*
D02*
G37*
G36*
X136960D02*
X136859Y204265D01*
X136137Y203783D01*
X135655Y203061D01*
X135635Y202960D01*
X136960D01*
Y204285D01*
D02*
G37*
G36*
X272875Y203140D02*
X271550D01*
Y201815D01*
X271651Y201835D01*
X272373Y202318D01*
X272855Y203039D01*
X272875Y203140D01*
D02*
G37*
G36*
X270050D02*
X268725D01*
X268745Y203039D01*
X269228Y202318D01*
X269949Y201835D01*
X270050Y201815D01*
Y203140D01*
D02*
G37*
G36*
X236060Y203160D02*
X234260D01*
Y201010D01*
X236060D01*
Y203160D01*
D02*
G37*
G36*
X265252Y203266D02*
X260593D01*
Y200240D01*
X265252D01*
Y203266D01*
D02*
G37*
G36*
X259092D02*
X254433D01*
Y200240D01*
X259092D01*
Y203266D01*
D02*
G37*
G36*
X139785Y201460D02*
X138460D01*
Y200135D01*
X138561Y200155D01*
X139283Y200638D01*
X139765Y201359D01*
X139785Y201460D01*
D02*
G37*
G36*
X136960D02*
X135635D01*
X135655Y201359D01*
X136137Y200638D01*
X136859Y200155D01*
X136960Y200135D01*
Y201460D01*
D02*
G37*
G36*
X143775Y201348D02*
X141275D01*
Y198598D01*
X143775D01*
Y201348D01*
D02*
G37*
G36*
X239360Y199510D02*
X237560D01*
Y197360D01*
X239360D01*
Y199510D01*
D02*
G37*
G36*
X236060D02*
X234260D01*
Y197360D01*
X236060D01*
Y199510D01*
D02*
G37*
G36*
X173480Y200902D02*
X171360D01*
Y196419D01*
X173480D01*
Y200902D01*
D02*
G37*
G36*
X169860D02*
X167739D01*
Y196419D01*
X169860D01*
Y200902D01*
D02*
G37*
G36*
X32344Y202519D02*
Y194451D01*
X36574D01*
Y197638D01*
X36404Y198927D01*
X35907Y200128D01*
X35116Y201159D01*
X34084Y201950D01*
X32883Y202448D01*
X32344Y202519D01*
D02*
G37*
G36*
X30845D02*
X30306Y202448D01*
X29105Y201950D01*
X28073Y201159D01*
X27282Y200128D01*
X26785Y198927D01*
X26615Y197638D01*
Y194451D01*
X30845D01*
Y202519D01*
D02*
G37*
G36*
X173480Y194919D02*
X171360D01*
Y190437D01*
X173480D01*
Y194919D01*
D02*
G37*
G36*
X169860D02*
X167739D01*
Y190437D01*
X169860D01*
Y194919D01*
D02*
G37*
G36*
X103590Y190085D02*
Y188760D01*
X104915D01*
X104895Y188861D01*
X104412Y189583D01*
X103691Y190065D01*
X103590Y190085D01*
D02*
G37*
G36*
X102090D02*
X101989Y190065D01*
X101268Y189583D01*
X100786Y188861D01*
X100765Y188760D01*
X102090D01*
Y190085D01*
D02*
G37*
G36*
X149213Y211344D02*
X148940Y211289D01*
X148708Y211135D01*
X148524Y210950D01*
X148025Y210948D01*
X147851Y210948D01*
X145875D01*
Y208398D01*
X145125D01*
Y207648D01*
X142225D01*
Y206098D01*
X142225Y205848D01*
X141828Y205598D01*
X141275D01*
Y202849D01*
X144525D01*
Y202098D01*
X145275D01*
Y198598D01*
X147605D01*
X148105Y198235D01*
Y195131D01*
X109808Y177254D01*
X96694Y174319D01*
X96638Y174293D01*
X96577Y174281D01*
X96512Y174238D01*
X96440Y174206D01*
X96397Y174161D01*
X96346Y174127D01*
X95952Y173733D01*
X95797Y173502D01*
X95743Y173228D01*
Y166929D01*
X95797Y166656D01*
X95952Y166425D01*
X97711Y164665D01*
X97711Y154257D01*
X92913Y154257D01*
X92640Y154203D01*
X92409Y154048D01*
X92015Y153654D01*
X91860Y153423D01*
X91806Y153149D01*
X91806Y148425D01*
X91860Y148152D01*
X92015Y147921D01*
X92015Y147921D01*
X92409Y147527D01*
X92640Y147372D01*
X92913Y147318D01*
X93395D01*
Y144123D01*
X103653D01*
Y146653D01*
X104115Y146844D01*
X105586Y145374D01*
X105586Y126698D01*
X104740D01*
X104538Y127198D01*
X104596Y127286D01*
X104651Y127559D01*
X104651Y137402D01*
X104596Y137675D01*
X104442Y137906D01*
X104048Y138300D01*
X103816Y138455D01*
X103543Y138509D01*
X91339D01*
X91066Y138455D01*
X90834Y138300D01*
X90440Y137906D01*
X90285Y137675D01*
X90231Y137402D01*
X90231Y133479D01*
X89769Y133287D01*
X87328Y135729D01*
X87328Y136614D01*
X87274Y136887D01*
X87119Y137119D01*
X85938Y138300D01*
X85724Y138443D01*
X85705Y138458D01*
X85566Y138992D01*
X85938Y139364D01*
X86092Y139596D01*
X86147Y139869D01*
Y141444D01*
X86092Y141717D01*
X85938Y141948D01*
X85150Y142736D01*
X84919Y142890D01*
X84646Y142945D01*
X72843Y142945D01*
X70814Y143892D01*
X70814Y157830D01*
X70759Y158103D01*
X70605Y158335D01*
X68375Y160565D01*
X68143Y160719D01*
X67870Y160774D01*
X60090Y160774D01*
X59817Y160719D01*
X59585Y160565D01*
X57935Y158915D01*
X57781Y158683D01*
X57726Y158410D01*
X57726Y155862D01*
X55661D01*
Y152362D01*
X54911D01*
Y151612D01*
X51661D01*
Y148862D01*
X53165D01*
X53561Y148613D01*
Y146813D01*
X56461D01*
Y146063D01*
X57211D01*
Y143513D01*
X59361D01*
X59361Y143513D01*
Y143513D01*
X59818Y143373D01*
X60117Y143074D01*
X60348Y142919D01*
X60348Y142919D01*
X71206Y138422D01*
X71479Y138368D01*
X74053Y138368D01*
X74237Y138021D01*
X74273Y137868D01*
X74144Y137675D01*
X74089Y137402D01*
X74089Y134252D01*
X74089Y130217D01*
X73326Y129454D01*
X66929Y129454D01*
X66656Y129400D01*
X66425Y129245D01*
X64456Y127276D01*
X64301Y127045D01*
X64247Y126772D01*
X64247Y116535D01*
X64301Y116262D01*
X64456Y116031D01*
X66425Y114062D01*
X66656Y113908D01*
X66929Y113853D01*
X77165Y113853D01*
X80389Y113853D01*
Y111024D01*
X80443Y110750D01*
X80598Y110519D01*
X81385Y109731D01*
X81617Y109577D01*
X81890Y109522D01*
X88976Y109522D01*
X89249Y109577D01*
X89481Y109731D01*
X90235Y110485D01*
X90296Y110520D01*
X90834Y110519D01*
X91228Y110125D01*
X91459Y109970D01*
X91732Y109916D01*
X108661Y109916D01*
X108934Y109970D01*
X109166Y110125D01*
X112316Y113275D01*
X112470Y113506D01*
X112525Y113779D01*
X112525Y172761D01*
X148968Y188658D01*
X164569D01*
X164570Y188658D01*
X164570Y188658D01*
X164708Y188686D01*
X164842Y188712D01*
X164843Y188713D01*
X164843Y188713D01*
X164959Y188790D01*
X165074Y188867D01*
X165074Y188867D01*
X165075Y188868D01*
X165859Y189654D01*
X165938Y189772D01*
X166014Y189885D01*
X166014Y189885D01*
X166014Y189886D01*
X166041Y190024D01*
X166068Y190158D01*
X166068Y200787D01*
X166014Y201061D01*
X165859Y201292D01*
X165072Y202080D01*
X164840Y202234D01*
X164567Y202289D01*
X155832Y202289D01*
X155832Y210236D01*
X155777Y210509D01*
X155623Y210741D01*
X155229Y211135D01*
X154998Y211289D01*
X154724Y211344D01*
X149213Y211344D01*
D02*
G37*
G36*
X13878Y198778D02*
X12564Y198605D01*
X11339Y198098D01*
X10288Y197291D01*
X9481Y196239D01*
X8974Y195015D01*
X8801Y193701D01*
X8974Y192387D01*
X9481Y191162D01*
X10288Y190111D01*
X11339Y189304D01*
X12564Y188796D01*
X13878Y188623D01*
X15192Y188796D01*
X16417Y189304D01*
X17468Y190111D01*
X18275Y191162D01*
X18782Y192387D01*
X18955Y193701D01*
X18782Y195015D01*
X18275Y196239D01*
X17468Y197291D01*
X16417Y198098D01*
X15192Y198605D01*
X13878Y198778D01*
D02*
G37*
G36*
X171870Y188845D02*
Y187520D01*
X173195D01*
X173175Y187621D01*
X172693Y188342D01*
X171971Y188824D01*
X171870Y188845D01*
D02*
G37*
G36*
X170370D02*
X170269Y188824D01*
X169547Y188342D01*
X169065Y187621D01*
X169045Y187520D01*
X170370D01*
Y188845D01*
D02*
G37*
G36*
X191700Y189550D02*
X188950D01*
Y187050D01*
X191700D01*
Y189550D01*
D02*
G37*
G36*
X187450D02*
X184700D01*
Y187050D01*
X187450D01*
Y189550D01*
D02*
G37*
G36*
X104915Y187260D02*
X103590D01*
Y185935D01*
X103691Y185955D01*
X104412Y186437D01*
X104895Y187159D01*
X104915Y187260D01*
D02*
G37*
G36*
X102090D02*
X100765D01*
X100786Y187159D01*
X101268Y186437D01*
X101989Y185955D01*
X102090Y185935D01*
Y187260D01*
D02*
G37*
G36*
X198490Y186865D02*
Y185540D01*
X199815D01*
X199795Y185641D01*
X199312Y186363D01*
X198591Y186845D01*
X198490Y186865D01*
D02*
G37*
G36*
X196990D02*
X196889Y186845D01*
X196168Y186363D01*
X195685Y185641D01*
X195665Y185540D01*
X196990D01*
Y186865D01*
D02*
G37*
G36*
X36574Y192951D02*
X32344D01*
Y184883D01*
X32883Y184954D01*
X34084Y185451D01*
X35116Y186243D01*
X35907Y187274D01*
X36404Y188475D01*
X36574Y189764D01*
Y192951D01*
D02*
G37*
G36*
X30845D02*
X26615D01*
Y189764D01*
X26785Y188475D01*
X27282Y187274D01*
X28073Y186243D01*
X29105Y185451D01*
X30306Y184954D01*
X30845Y184883D01*
Y192951D01*
D02*
G37*
G36*
X173195Y186020D02*
X171870D01*
Y184695D01*
X171971Y184715D01*
X172693Y185197D01*
X173175Y185919D01*
X173195Y186020D01*
D02*
G37*
G36*
X170370D02*
X169045D01*
X169065Y185919D01*
X169547Y185197D01*
X170269Y184715D01*
X170370Y184695D01*
Y186020D01*
D02*
G37*
G36*
X199815Y184040D02*
X198490D01*
Y182715D01*
X198591Y182735D01*
X199312Y183218D01*
X199795Y183939D01*
X199815Y184040D01*
D02*
G37*
G36*
X196990D02*
X195665D01*
X195685Y183939D01*
X196168Y183218D01*
X196889Y182735D01*
X196990Y182715D01*
Y184040D01*
D02*
G37*
G36*
X217900Y184350D02*
X215150D01*
Y181850D01*
X217900D01*
Y184350D01*
D02*
G37*
G36*
X206511D02*
X203761D01*
Y181850D01*
X206511D01*
Y184350D01*
D02*
G37*
G36*
X216390Y180995D02*
Y179670D01*
X217715D01*
X217694Y179771D01*
X217213Y180492D01*
X216491Y180974D01*
X216390Y180995D01*
D02*
G37*
G36*
X214890D02*
X214789Y180974D01*
X214068Y180492D01*
X213585Y179771D01*
X213565Y179670D01*
X214890D01*
Y180995D01*
D02*
G37*
G36*
X274790Y180860D02*
X272640D01*
Y179060D01*
X274790D01*
Y180860D01*
D02*
G37*
G36*
X271140D02*
X268990D01*
Y179060D01*
X271140D01*
Y180860D01*
D02*
G37*
G36*
X188332Y179322D02*
X186182D01*
Y177522D01*
X188332D01*
Y179322D01*
D02*
G37*
G36*
X184682D02*
X182532D01*
Y177522D01*
X184682D01*
Y179322D01*
D02*
G37*
G36*
X217715Y178170D02*
X216390D01*
Y176845D01*
X216491Y176865D01*
X217213Y177348D01*
X217694Y178069D01*
X217715Y178170D01*
D02*
G37*
G36*
X214890D02*
X213565D01*
X213585Y178069D01*
X214068Y177348D01*
X214789Y176865D01*
X214890Y176845D01*
Y178170D01*
D02*
G37*
G36*
X265800Y187582D02*
X264988Y187420D01*
X264300Y186960D01*
X263840Y186272D01*
X263678Y185460D01*
X263840Y184648D01*
X263863Y184613D01*
Y180560D01*
X262990D01*
Y179788D01*
X261570D01*
X261004Y179676D01*
X260525Y179355D01*
X258874Y177704D01*
X258553Y177225D01*
X258440Y176659D01*
Y172933D01*
X257655Y172148D01*
X256496D01*
X255930Y172035D01*
X255818Y171960D01*
X253434D01*
Y170291D01*
X253134D01*
Y169451D01*
X253434D01*
Y169378D01*
X255818D01*
X255930Y169303D01*
X256496Y169191D01*
Y168058D01*
X256321Y168023D01*
X253434D01*
Y167951D01*
X253134D01*
Y167110D01*
X253434D01*
Y163473D01*
Y159536D01*
Y155599D01*
Y151662D01*
Y147725D01*
X259558D01*
Y149694D01*
Y153453D01*
X261368D01*
X261573Y153037D01*
Y148537D01*
X266773D01*
Y153037D01*
X265600D01*
Y154294D01*
X265492Y154841D01*
X265182Y155304D01*
X265182Y155304D01*
X264596Y155889D01*
X264133Y156199D01*
X263587Y156307D01*
X263587Y156307D01*
X259558D01*
Y160742D01*
X260058Y160949D01*
X260671Y160336D01*
X261167Y160004D01*
X261753Y159888D01*
X267872D01*
Y159167D01*
X273072D01*
Y163667D01*
X273072Y163667D01*
Y163892D01*
X273072D01*
X273072Y164167D01*
Y168392D01*
X267872D01*
Y168392D01*
X267395Y168447D01*
X267330Y168772D01*
X266870Y169460D01*
X266182Y169920D01*
X265370Y170082D01*
X264558Y169920D01*
X263870Y169460D01*
X263753Y169286D01*
X263280D01*
X262773Y169185D01*
X262343Y168897D01*
X261503Y168058D01*
X259858D01*
Y170169D01*
X260964Y171275D01*
X261285Y171755D01*
X261397Y172320D01*
Y176047D01*
X262182Y176832D01*
X262990D01*
Y176060D01*
X268190D01*
Y180560D01*
X267737D01*
Y184613D01*
X267760Y184648D01*
X267922Y185460D01*
X267760Y186272D01*
X267300Y186960D01*
X266612Y187420D01*
X265800Y187582D01*
D02*
G37*
G36*
X48130Y179783D02*
X44943D01*
Y175553D01*
X53011D01*
X52940Y176092D01*
X52442Y177293D01*
X51651Y178324D01*
X50620Y179116D01*
X49419Y179613D01*
X48130Y179783D01*
D02*
G37*
G36*
X274790Y177560D02*
X271890D01*
X268990D01*
Y175760D01*
X270101D01*
X270219Y175260D01*
X269765Y174581D01*
X269745Y174480D01*
X273895D01*
X273874Y174581D01*
X273421Y175260D01*
X273539Y175760D01*
X274790D01*
Y177560D01*
D02*
G37*
G36*
X188332Y176022D02*
X186182D01*
Y174222D01*
X188332D01*
Y176022D01*
D02*
G37*
G36*
X184682D02*
X182532D01*
Y174222D01*
X184682D01*
Y176022D01*
D02*
G37*
G36*
X273895Y172980D02*
X272570D01*
Y171655D01*
X272671Y171676D01*
X273393Y172158D01*
X273874Y172879D01*
X273895Y172980D01*
D02*
G37*
G36*
X271070D02*
X269745D01*
X269765Y172879D01*
X270248Y172158D01*
X270969Y171676D01*
X271070Y171655D01*
Y172980D01*
D02*
G37*
G36*
X188060Y172345D02*
Y171020D01*
X189385D01*
X189365Y171121D01*
X188883Y171843D01*
X188161Y172325D01*
X188060Y172345D01*
D02*
G37*
G36*
X186560D02*
X186459Y172325D01*
X185738Y171843D01*
X185255Y171121D01*
X185235Y171020D01*
X186560D01*
Y172345D01*
D02*
G37*
G36*
X92339Y173047D02*
X86183D01*
Y170829D01*
X92339D01*
Y173047D01*
D02*
G37*
G36*
X127840Y171495D02*
Y170170D01*
X129165D01*
X129145Y170271D01*
X128663Y170993D01*
X127941Y171475D01*
X127840Y171495D01*
D02*
G37*
G36*
X126340D02*
X126239Y171475D01*
X125517Y170993D01*
X125035Y170271D01*
X125015Y170170D01*
X126340D01*
Y171495D01*
D02*
G37*
G36*
X53011Y174053D02*
X44943D01*
Y169824D01*
X48130D01*
X49419Y169993D01*
X50620Y170491D01*
X51651Y171282D01*
X52442Y172313D01*
X52940Y173514D01*
X53011Y174053D01*
D02*
G37*
G36*
X43443Y179783D02*
X40256D01*
X38967Y179613D01*
X37766Y179116D01*
X36735Y178324D01*
X35943Y177293D01*
X35816Y176984D01*
X29589D01*
Y169057D01*
X42043D01*
Y169824D01*
X43443D01*
Y174803D01*
Y179783D01*
D02*
G37*
G36*
X28089Y176984D02*
X15634D01*
Y169057D01*
X28089D01*
Y176984D01*
D02*
G37*
G36*
X232330Y170335D02*
Y169010D01*
X233655D01*
X233634Y169111D01*
X233153Y169833D01*
X232431Y170315D01*
X232330Y170335D01*
D02*
G37*
G36*
X230830D02*
X230729Y170315D01*
X230008Y169833D01*
X229525Y169111D01*
X229505Y169010D01*
X230830D01*
Y170335D01*
D02*
G37*
G36*
X249680Y170145D02*
Y168820D01*
X251005D01*
X250985Y168921D01*
X250502Y169642D01*
X249781Y170124D01*
X249680Y170145D01*
D02*
G37*
G36*
X248180D02*
X248079Y170124D01*
X247358Y169642D01*
X246876Y168921D01*
X246855Y168820D01*
X248180D01*
Y170145D01*
D02*
G37*
G36*
X208306Y172824D02*
X205902Y170420D01*
X207819Y168503D01*
X210223Y170907D01*
X208306Y172824D01*
D02*
G37*
G36*
X189385Y169520D02*
X188060D01*
Y168195D01*
X188161Y168216D01*
X188883Y168698D01*
X189365Y169419D01*
X189385Y169520D01*
D02*
G37*
G36*
X186560D02*
X185235D01*
X185255Y169419D01*
X185738Y168698D01*
X186459Y168216D01*
X186560Y168195D01*
Y169520D01*
D02*
G37*
G36*
X129165Y168670D02*
X127840D01*
Y167345D01*
X127941Y167366D01*
X128663Y167848D01*
X129145Y168569D01*
X129165Y168670D01*
D02*
G37*
G36*
X126340D02*
X125015D01*
X125035Y168569D01*
X125517Y167848D01*
X126239Y167366D01*
X126340Y167345D01*
Y168670D01*
D02*
G37*
G36*
X92339Y169329D02*
X86183D01*
Y167110D01*
X92339D01*
Y169329D01*
D02*
G37*
G36*
X233655Y167510D02*
X232330D01*
Y166185D01*
X232431Y166205D01*
X233153Y166688D01*
X233634Y167409D01*
X233655Y167510D01*
D02*
G37*
G36*
X230830D02*
X229505D01*
X229525Y167409D01*
X230008Y166688D01*
X230729Y166205D01*
X230830Y166185D01*
Y167510D01*
D02*
G37*
G36*
X251005Y167320D02*
X249680D01*
Y165995D01*
X249781Y166016D01*
X250502Y166498D01*
X250985Y167219D01*
X251005Y167320D01*
D02*
G37*
G36*
X248180D02*
X246855D01*
X246876Y167219D01*
X247358Y166498D01*
X248079Y166016D01*
X248180Y165995D01*
Y167320D01*
D02*
G37*
G36*
X211283Y169846D02*
X208879Y167442D01*
X210796Y165525D01*
X213200Y167929D01*
X211283Y169846D01*
D02*
G37*
G36*
X204841Y169359D02*
X202437Y166955D01*
X204354Y165038D01*
X206758Y167442D01*
X204841Y169359D01*
D02*
G37*
G36*
X191881Y168648D02*
X189477Y166244D01*
X191394Y164327D01*
X193798Y166731D01*
X191881Y168648D01*
D02*
G37*
G36*
X84683Y173047D02*
X78527D01*
Y170210D01*
X75222Y166904D01*
X74746Y166193D01*
X74580Y165354D01*
Y163652D01*
X78964D01*
Y164446D01*
X81628Y167110D01*
X84683D01*
Y170079D01*
Y173047D01*
D02*
G37*
G36*
X207819Y166382D02*
X205415Y163978D01*
X207332Y162061D01*
X209735Y164465D01*
X207819Y166382D01*
D02*
G37*
G36*
X194858Y165670D02*
X192455Y163266D01*
X194371Y161350D01*
X196775Y163754D01*
X194858Y165670D01*
D02*
G37*
G36*
X188417Y165183D02*
X186013Y162779D01*
X187929Y160863D01*
X190333Y163266D01*
X188417Y165183D01*
D02*
G37*
G36*
X78846Y162152D02*
X77522D01*
Y160827D01*
X77623Y160847D01*
X78344Y161329D01*
X78826Y162051D01*
X78846Y162152D01*
D02*
G37*
G36*
X76022D02*
X74697D01*
X74717Y162051D01*
X75199Y161329D01*
X75921Y160847D01*
X76022Y160827D01*
Y162152D01*
D02*
G37*
G36*
X279372Y168392D02*
X274172D01*
Y163892D01*
X274172D01*
Y163667D01*
X274172D01*
Y159167D01*
X279372D01*
Y160851D01*
X279402Y160872D01*
X282623D01*
X282643Y160843D01*
X283233Y160448D01*
X283930Y160309D01*
X284627Y160448D01*
X285217Y160843D01*
X285612Y161433D01*
X285751Y162130D01*
X285612Y162827D01*
X285217Y163417D01*
X284659Y163791D01*
X284620Y163836D01*
X284611Y163869D01*
X284607Y164348D01*
X285197Y164743D01*
X285592Y165333D01*
X285731Y166030D01*
X285592Y166727D01*
X285197Y167317D01*
X284607Y167712D01*
X283910Y167851D01*
X283213Y167712D01*
X282623Y167317D01*
X282354Y166916D01*
X282126Y166687D01*
X279402D01*
X279372Y166708D01*
Y168392D01*
D02*
G37*
G36*
X55610Y161575D02*
Y160250D01*
X56935D01*
X56915Y160351D01*
X56432Y161073D01*
X55711Y161555D01*
X55610Y161575D01*
D02*
G37*
G36*
X54110D02*
X54009Y161555D01*
X53288Y161073D01*
X52805Y160351D01*
X52785Y160250D01*
X54110D01*
Y161575D01*
D02*
G37*
G36*
X42043Y167557D02*
X29589D01*
Y159630D01*
X42043D01*
Y167557D01*
D02*
G37*
G36*
X28089D02*
X15634D01*
Y159630D01*
X28089D01*
Y167557D01*
D02*
G37*
G36*
X148450Y160505D02*
Y159180D01*
X149775D01*
X149755Y159281D01*
X149273Y160003D01*
X148551Y160485D01*
X148450Y160505D01*
D02*
G37*
G36*
X146950D02*
X146849Y160485D01*
X146127Y160003D01*
X145645Y159281D01*
X145625Y159180D01*
X146950D01*
Y160505D01*
D02*
G37*
G36*
X56935Y158750D02*
X55610D01*
Y157425D01*
X55711Y157446D01*
X56432Y157928D01*
X56915Y158649D01*
X56935Y158750D01*
D02*
G37*
G36*
X54110D02*
X52785D01*
X52805Y158649D01*
X53288Y157928D01*
X54009Y157446D01*
X54110Y157425D01*
Y158750D01*
D02*
G37*
G36*
X149775Y157680D02*
X148450D01*
Y156355D01*
X148551Y156376D01*
X149273Y156858D01*
X149755Y157579D01*
X149775Y157680D01*
D02*
G37*
G36*
X146950D02*
X145625D01*
X145645Y157579D01*
X146127Y156858D01*
X146849Y156376D01*
X146950Y156355D01*
Y157680D01*
D02*
G37*
G36*
X232020Y156585D02*
Y155260D01*
X233345D01*
X233325Y155361D01*
X232842Y156082D01*
X232121Y156565D01*
X232020Y156585D01*
D02*
G37*
G36*
X230520D02*
X230419Y156565D01*
X229697Y156082D01*
X229216Y155361D01*
X229195Y155260D01*
X230520D01*
Y156585D01*
D02*
G37*
G36*
X194332Y179022D02*
X189132D01*
Y174522D01*
X192458D01*
X194837Y172142D01*
X195267Y171855D01*
X195774Y171754D01*
X198063D01*
X201207Y168610D01*
X206651Y174054D01*
X205548Y175157D01*
X205788Y175625D01*
X209761D01*
X214144Y171241D01*
Y164270D01*
X214245Y163763D01*
X214533Y163333D01*
X215252Y162614D01*
X215060Y162152D01*
X213127D01*
X212619Y162051D01*
X212190Y161764D01*
X205491Y155066D01*
X201469D01*
X200691Y155844D01*
X202475Y157629D01*
X198005Y162099D01*
X193887Y157980D01*
X191709D01*
X191502Y158480D01*
X193310Y160289D01*
X191394Y162206D01*
X188990Y159802D01*
X190493Y158299D01*
X190423Y157661D01*
X190319Y157592D01*
X188521Y155793D01*
X185195D01*
Y151293D01*
X190395D01*
Y153919D01*
X191806Y155329D01*
X193887D01*
X197031Y152185D01*
X198816Y153970D01*
X199983Y152803D01*
X200413Y152515D01*
X200920Y152415D01*
X204790D01*
X204982Y151953D01*
X203752Y150723D01*
X198865D01*
X198299Y150610D01*
X197820Y150290D01*
X196414Y148884D01*
X193305D01*
Y144384D01*
X194426D01*
Y143805D01*
X193242D01*
Y139305D01*
X198442D01*
Y143805D01*
X197383D01*
Y144384D01*
X198504D01*
Y146793D01*
X199478Y147766D01*
X203113D01*
X203246Y147266D01*
X201940Y145960D01*
X201520Y145331D01*
X201373Y144590D01*
Y136587D01*
X201350Y136552D01*
X201188Y135740D01*
X201350Y134928D01*
X201810Y134240D01*
X202498Y133780D01*
X203310Y133618D01*
X204122Y133780D01*
X204810Y134240D01*
X205270Y134928D01*
X205432Y135740D01*
X205270Y136552D01*
X205247Y136587D01*
Y143788D01*
X205512Y144053D01*
X209270D01*
Y143390D01*
X213770D01*
Y145330D01*
X214270Y145379D01*
X214370Y144878D01*
X214830Y144190D01*
X215518Y143730D01*
X216330Y143568D01*
X217142Y143730D01*
X217830Y144190D01*
X218290Y144878D01*
X218452Y145690D01*
X218290Y146502D01*
X218241Y146576D01*
X219355Y147690D01*
X223031D01*
X223207Y147725D01*
X226094D01*
Y151662D01*
Y155299D01*
X226394D01*
Y156140D01*
X226094D01*
Y156212D01*
X223710D01*
X223597Y156287D01*
X223031Y156400D01*
Y157380D01*
X223597Y157492D01*
X223710Y157568D01*
X226094D01*
Y157640D01*
X226394D01*
Y158480D01*
X226094D01*
Y163473D01*
Y167410D01*
Y171960D01*
X219969D01*
Y167410D01*
Y164121D01*
X217494D01*
X216795Y164820D01*
Y171790D01*
X216695Y172297D01*
X216407Y172727D01*
X211247Y177887D01*
X210817Y178175D01*
X210310Y178276D01*
X205077D01*
X204570Y178175D01*
X204140Y177887D01*
X203479Y177226D01*
X202181Y178524D01*
X198063Y174405D01*
X196323D01*
X194332Y176396D01*
Y179022D01*
D02*
G37*
G36*
X184395Y156093D02*
X182245D01*
Y154293D01*
X184395D01*
Y156093D01*
D02*
G37*
G36*
X180745D02*
X178595D01*
Y154293D01*
X180745D01*
Y156093D01*
D02*
G37*
G36*
X49007Y155656D02*
X47207D01*
Y153506D01*
X49007D01*
Y155656D01*
D02*
G37*
G36*
X45707D02*
X43907D01*
Y153506D01*
X45707D01*
Y155656D01*
D02*
G37*
G36*
X54161Y155862D02*
X51661D01*
Y153112D01*
X54161D01*
Y155862D01*
D02*
G37*
G36*
X233345Y153760D02*
X232020D01*
Y152435D01*
X232121Y152455D01*
X232842Y152937D01*
X233325Y153659D01*
X233345Y153760D01*
D02*
G37*
G36*
X230520D02*
X229195D01*
X229216Y153659D01*
X229697Y152937D01*
X230419Y152455D01*
X230520Y152435D01*
Y153760D01*
D02*
G37*
G36*
X184395Y152793D02*
X182245D01*
Y150993D01*
X184395D01*
Y152793D01*
D02*
G37*
G36*
X180745D02*
X178595D01*
Y150993D01*
X180745D01*
Y152793D01*
D02*
G37*
G36*
X249800Y152295D02*
Y150970D01*
X251125D01*
X251105Y151071D01*
X250623Y151793D01*
X249901Y152275D01*
X249800Y152295D01*
D02*
G37*
G36*
X248300D02*
X248199Y152275D01*
X247478Y151793D01*
X246995Y151071D01*
X246975Y150970D01*
X248300D01*
Y152295D01*
D02*
G37*
G36*
X49007Y152006D02*
X47207D01*
Y149856D01*
X49007D01*
Y152006D01*
D02*
G37*
G36*
X45707D02*
X43907D01*
Y149856D01*
X45707D01*
Y152006D01*
D02*
G37*
G36*
X85346Y152491D02*
X75087D01*
Y149123D01*
X85346D01*
Y152491D01*
D02*
G37*
G36*
X251125Y149470D02*
X249800D01*
Y148145D01*
X249901Y148166D01*
X250623Y148647D01*
X251105Y149369D01*
X251125Y149470D01*
D02*
G37*
G36*
X248300D02*
X246975D01*
X246995Y149369D01*
X247478Y148647D01*
X248199Y148166D01*
X248300Y148145D01*
Y149470D01*
D02*
G37*
G36*
X184030Y149365D02*
Y148040D01*
X185355D01*
X185335Y148141D01*
X184853Y148863D01*
X184131Y149345D01*
X184030Y149365D01*
D02*
G37*
G36*
X182530D02*
X182429Y149345D01*
X181708Y148863D01*
X181226Y148141D01*
X181205Y148040D01*
X182530D01*
Y149365D01*
D02*
G37*
G36*
X192505Y149184D02*
X190355D01*
Y147384D01*
X192505D01*
Y149184D01*
D02*
G37*
G36*
X188855D02*
X186705D01*
Y147384D01*
X188855D01*
Y149184D01*
D02*
G37*
G36*
X85646Y147791D02*
X80967D01*
Y146557D01*
X85646D01*
Y147791D01*
D02*
G37*
G36*
X79466D02*
X74787D01*
Y146557D01*
X79466D01*
Y147791D01*
D02*
G37*
G36*
X273073Y153037D02*
X267873D01*
Y148537D01*
X273073D01*
Y149105D01*
X273873D01*
X274517Y149233D01*
X274688Y149348D01*
X278193D01*
X279259Y148282D01*
X279357Y147791D01*
X279817Y147103D01*
X280505Y146643D01*
X281317Y146481D01*
X282129Y146643D01*
X282817Y147103D01*
X283277Y147791D01*
X283439Y148603D01*
X283277Y149415D01*
X282817Y150103D01*
X282129Y150564D01*
X281638Y150661D01*
X280080Y152220D01*
X279534Y152584D01*
X278890Y152712D01*
X274115D01*
X274115Y152712D01*
X273573Y152604D01*
X273224Y152792D01*
X273073Y152919D01*
Y153037D01*
D02*
G37*
G36*
X89680Y147185D02*
Y145860D01*
X91005D01*
X90985Y145961D01*
X90503Y146683D01*
X89781Y147165D01*
X89680Y147185D01*
D02*
G37*
G36*
X88180D02*
X88079Y147165D01*
X87357Y146683D01*
X86875Y145961D01*
X86855Y145860D01*
X88180D01*
Y147185D01*
D02*
G37*
G36*
X85646Y145057D02*
X80967D01*
Y143823D01*
X85646D01*
Y145057D01*
D02*
G37*
G36*
X79466D02*
X74787D01*
Y143823D01*
X79466D01*
Y145057D01*
D02*
G37*
G36*
X55711Y145313D02*
X53561D01*
Y143513D01*
X55711D01*
Y145313D01*
D02*
G37*
G36*
X185355Y146540D02*
X181205D01*
X181226Y146439D01*
X181708Y145718D01*
X182429Y145235D01*
X182994Y145123D01*
Y144613D01*
X182549Y144525D01*
X181827Y144043D01*
X181345Y143321D01*
X181325Y143220D01*
X185475D01*
X185454Y143321D01*
X184973Y144043D01*
X184251Y144525D01*
X183686Y144637D01*
Y145147D01*
X184131Y145235D01*
X184853Y145718D01*
X185335Y146439D01*
X185355Y146540D01*
D02*
G37*
G36*
X250213Y146472D02*
X249372D01*
Y146173D01*
X249300D01*
Y145272D01*
X249294Y145241D01*
X249267Y145105D01*
X249267Y145105D01*
X249267Y145105D01*
X249271Y143110D01*
X248132D01*
X248020Y143676D01*
X247944Y143789D01*
Y146173D01*
X247872D01*
Y146472D01*
X247031D01*
Y146172D01*
X227646D01*
Y144436D01*
X219380D01*
X218873Y144335D01*
X218443Y144047D01*
X216857Y142461D01*
X216250Y142582D01*
X215438Y142420D01*
X214750Y141960D01*
X214570Y141692D01*
X214070Y141843D01*
Y142590D01*
X212270D01*
Y139690D01*
Y136790D01*
X214070D01*
Y139077D01*
X214570Y139228D01*
X214750Y138960D01*
X215438Y138500D01*
X216250Y138338D01*
X217062Y138500D01*
X217750Y138960D01*
X218210Y139648D01*
X218314Y140170D01*
X219929Y141785D01*
X227646D01*
Y140048D01*
X227180Y139967D01*
X222590D01*
X222590Y139967D01*
X222044Y139859D01*
X221581Y139549D01*
X221581Y139549D01*
X219935Y137903D01*
X219625Y137440D01*
X219516Y136894D01*
X219516Y136894D01*
Y132831D01*
X218694D01*
Y127631D01*
X223194D01*
Y132831D01*
X222371D01*
Y136303D01*
X223181Y137113D01*
X226685D01*
X226877Y136651D01*
X225017Y134790D01*
X224696Y134311D01*
X224584Y133745D01*
Y132831D01*
X223812D01*
Y127631D01*
X228312D01*
Y132831D01*
X227946D01*
X227739Y133331D01*
X229002Y134595D01*
X229882D01*
X230322Y134240D01*
Y132831D01*
X228930D01*
Y127631D01*
X233430D01*
Y132831D01*
X233278D01*
Y133628D01*
X236552Y136901D01*
X237083Y136725D01*
X237112Y136535D01*
X235253Y134676D01*
X234932Y134197D01*
X234820Y133631D01*
Y132831D01*
X234048D01*
Y127631D01*
X238548D01*
Y132668D01*
X239048Y132820D01*
X239248Y132522D01*
X239936Y132062D01*
X240748Y131900D01*
X241560Y132062D01*
X242248Y132522D01*
X242708Y133210D01*
X242832Y133829D01*
X243332Y133780D01*
Y121397D01*
X238277Y116342D01*
X237777Y116549D01*
Y121331D01*
X238548D01*
Y126531D01*
X234048D01*
Y121331D01*
X234820D01*
Y116828D01*
X231247D01*
X231011Y117269D01*
X231170Y117508D01*
X231332Y118320D01*
X231327Y118346D01*
X232225Y119245D01*
X232546Y119724D01*
X232659Y120290D01*
Y121331D01*
X233430D01*
Y126531D01*
X228930D01*
Y121331D01*
X229529D01*
X229630Y120831D01*
X229236Y120437D01*
X229210Y120442D01*
X228398Y120280D01*
X228040Y120041D01*
X227540Y120309D01*
Y121331D01*
X228312D01*
Y126531D01*
X223812D01*
Y121331D01*
X224584D01*
Y119744D01*
X223116Y118277D01*
X223090Y118282D01*
X222494Y118163D01*
X222193Y118613D01*
X222310Y118788D01*
X222422Y119354D01*
Y121331D01*
X223194D01*
Y126531D01*
X218694D01*
Y121331D01*
X219465D01*
Y119966D01*
X218416Y118917D01*
X218390Y118922D01*
X217578Y118760D01*
X216890Y118300D01*
X216430Y117612D01*
X216268Y116800D01*
X216430Y115988D01*
X216890Y115300D01*
X217578Y114840D01*
X218390Y114678D01*
X219202Y114840D01*
X219890Y115300D01*
X220350Y115988D01*
X220443Y116454D01*
X220525Y116494D01*
X220968Y116160D01*
X221130Y115348D01*
X221590Y114660D01*
X222278Y114200D01*
X223090Y114038D01*
X223902Y114200D01*
X224590Y114660D01*
X225050Y115348D01*
X225212Y116160D01*
X225207Y116186D01*
X226705Y117684D01*
X227247Y117519D01*
X227250Y117508D01*
X227710Y116820D01*
X228398Y116360D01*
X228638Y116312D01*
X228783Y115833D01*
X218035Y105085D01*
X217714Y104606D01*
X217602Y104040D01*
Y95428D01*
X169540D01*
X168974Y95316D01*
X168495Y94995D01*
X127945Y54445D01*
X127624Y53966D01*
X127512Y53400D01*
Y20321D01*
X127158Y19967D01*
X126490Y19967D01*
X126197Y20346D01*
Y21123D01*
X123978D01*
Y18745D01*
Y16367D01*
X125990D01*
X126197Y16367D01*
X126490Y15988D01*
Y14767D01*
X130990D01*
Y19967D01*
X130468D01*
Y52788D01*
X170152Y92472D01*
X172228D01*
X172344Y92297D01*
X172421Y91972D01*
X158675Y78225D01*
X158354Y77746D01*
X158242Y77180D01*
Y27407D01*
X157888Y27053D01*
X157366Y27053D01*
X157131Y27105D01*
X156824Y27247D01*
X156804Y27276D01*
X156804Y27276D01*
X156410Y27670D01*
X156179Y27825D01*
X155905Y27879D01*
X151181Y27879D01*
X150908Y27825D01*
X150676Y27670D01*
X150283Y27276D01*
X150128Y27045D01*
X150074Y26772D01*
Y13780D01*
X150128Y13506D01*
X150283Y13275D01*
X150676Y12881D01*
X150908Y12726D01*
X151181Y12672D01*
X153654Y12672D01*
X153872Y12172D01*
X153572Y11780D01*
X153303Y11130D01*
X153211Y10433D01*
X153303Y9736D01*
X153572Y9086D01*
X154000Y8528D01*
X154558Y8099D01*
X155208Y7830D01*
X155905Y7738D01*
X156603Y7830D01*
X157253Y8099D01*
X157811Y8528D01*
X158239Y9086D01*
X158508Y9736D01*
X158600Y10433D01*
X158508Y11130D01*
X158239Y11780D01*
X157811Y12338D01*
X157253Y12767D01*
X156603Y13036D01*
X156108Y13101D01*
X155970Y13270D01*
X155819Y13528D01*
X155800Y13618D01*
X155832Y13780D01*
X155832Y22145D01*
X156743Y23057D01*
X156991Y23014D01*
X157243Y22875D01*
Y22553D01*
X162443D01*
Y27053D01*
X161198D01*
Y76568D01*
X174162Y89532D01*
X209484D01*
X209563Y89434D01*
X209461Y88765D01*
X209230Y88610D01*
X208770Y87922D01*
X208608Y87110D01*
X208770Y86298D01*
X209230Y85610D01*
X209918Y85150D01*
X210730Y84988D01*
X211542Y85150D01*
X212230Y85610D01*
X212347Y85785D01*
X235917D01*
X236123Y85285D01*
X235828Y84842D01*
X235689Y84146D01*
X235828Y83449D01*
X236189Y82908D01*
X235828Y82367D01*
X235689Y81670D01*
X235828Y80973D01*
X236223Y80383D01*
X236813Y79988D01*
X237510Y79849D01*
X238207Y79988D01*
X238225Y80000D01*
X241118D01*
X242290Y78828D01*
Y60133D01*
X242290Y60133D01*
X242417Y59493D01*
X242779Y58952D01*
X253307Y48424D01*
Y47967D01*
X253270Y47781D01*
X253270Y47781D01*
Y45620D01*
X253059D01*
Y39495D01*
X253270D01*
Y36565D01*
X253059D01*
Y30440D01*
X253270D01*
Y27300D01*
X253270Y27300D01*
X253397Y26661D01*
X253759Y26119D01*
X257779Y22099D01*
Y21172D01*
X256118D01*
Y21472D01*
X255081D01*
Y17815D01*
Y14157D01*
X256118D01*
Y14457D01*
X266054D01*
Y17604D01*
X266096Y17815D01*
Y21717D01*
X266320Y21886D01*
X266648Y21778D01*
X266820Y21638D01*
Y14457D01*
X276487D01*
Y22157D01*
X267256D01*
X267037Y22157D01*
X266830Y22657D01*
X273701Y29529D01*
X274033Y30025D01*
X274149Y30610D01*
Y33461D01*
X274033Y34046D01*
X274009Y34082D01*
Y35047D01*
X271231D01*
Y34082D01*
X271207Y34046D01*
X271091Y33461D01*
Y31244D01*
X264189Y24342D01*
X263727Y24533D01*
Y30440D01*
X264301D01*
Y36565D01*
X264090D01*
Y39495D01*
X264301D01*
Y45620D01*
X264090D01*
Y50595D01*
X264090Y50595D01*
X263963Y51234D01*
X263601Y51775D01*
X263601Y51775D01*
X262737Y52640D01*
X262195Y53002D01*
X261556Y53129D01*
X261556Y53129D01*
X256826D01*
X248106Y61850D01*
Y80545D01*
X248106Y80546D01*
X247978Y81185D01*
X247617Y81726D01*
X247617Y81726D01*
X244058Y85285D01*
X244079Y85461D01*
X244231Y85785D01*
X273161D01*
X273669Y85885D01*
X274099Y86173D01*
X274567Y86641D01*
X274855Y87071D01*
X274956Y87579D01*
Y92320D01*
X276230D01*
Y96820D01*
X271030D01*
Y92320D01*
X272305D01*
Y88436D01*
X212347D01*
X212230Y88610D01*
X211999Y88765D01*
X211897Y89434D01*
X211976Y89532D01*
X220406D01*
X220971Y89644D01*
X221451Y89965D01*
X222095Y90609D01*
X222416Y91089D01*
X222528Y91654D01*
Y102778D01*
X224393Y104642D01*
X225022Y104564D01*
X225278Y104180D01*
X225967Y103720D01*
X225993Y103715D01*
Y103206D01*
X225967Y103200D01*
X225278Y102740D01*
X224819Y102052D01*
X224657Y101240D01*
X224819Y100428D01*
X225278Y99740D01*
X225967Y99280D01*
X226779Y99118D01*
X227591Y99280D01*
X227653Y99321D01*
X227972Y98933D01*
X227246Y98207D01*
X227220Y98212D01*
X226408Y98051D01*
X225720Y97591D01*
X225260Y96902D01*
X225098Y96090D01*
X225260Y95278D01*
X225720Y94590D01*
X226408Y94130D01*
X227220Y93968D01*
X228032Y94130D01*
X228720Y94590D01*
X229180Y95278D01*
X229342Y96090D01*
X229337Y96116D01*
X231100Y97879D01*
X231569Y97955D01*
Y97955D01*
X241827D01*
Y101323D01*
X231569D01*
Y101117D01*
X230768D01*
X230203Y101005D01*
X229723Y100684D01*
X229086Y100047D01*
X228698Y100366D01*
X228739Y100428D01*
X228846Y100965D01*
X231041Y103160D01*
X231569D01*
Y102955D01*
X241827D01*
Y106323D01*
X231569D01*
Y106117D01*
X230429D01*
X229949Y106022D01*
X229743Y106251D01*
X229655Y106434D01*
X231100Y107879D01*
X231569Y107955D01*
Y107955D01*
X241827D01*
Y111323D01*
X232018D01*
X231787Y111823D01*
X231979Y112072D01*
X237576D01*
X238141Y112184D01*
X238621Y112505D01*
X245855Y119739D01*
X246176Y120219D01*
X246288Y120784D01*
Y122252D01*
X246784Y122323D01*
X247105Y121843D01*
X249623Y119325D01*
X250103Y119004D01*
X250669Y118892D01*
X273682D01*
X279230Y113343D01*
Y79930D01*
X279343Y79364D01*
X279663Y78884D01*
X283878Y74669D01*
X283765Y74395D01*
X283642Y73461D01*
X283765Y72527D01*
X284125Y71657D01*
X284699Y70910D01*
X284814Y70821D01*
Y70321D01*
X284627Y70178D01*
X284038Y69410D01*
X283667Y68515D01*
X283640Y68305D01*
X287250D01*
X290860D01*
X290832Y68515D01*
X290462Y69410D01*
X289873Y70178D01*
X289686Y70321D01*
Y70821D01*
X289801Y70910D01*
X290375Y71657D01*
X290735Y72527D01*
X290858Y73461D01*
X290735Y74395D01*
X290375Y75265D01*
X289801Y76012D01*
X289604Y76164D01*
Y76664D01*
X289801Y76815D01*
X290375Y77562D01*
X290735Y78433D01*
X290858Y79366D01*
X290735Y80300D01*
X290375Y81171D01*
X289801Y81918D01*
X289604Y82069D01*
X289604Y82569D01*
X289801Y82721D01*
X290375Y83468D01*
X290735Y84338D01*
X290858Y85272D01*
X290735Y86206D01*
X290375Y87076D01*
X289801Y87823D01*
X289604Y87975D01*
X289604Y88475D01*
X289801Y88626D01*
X290375Y89373D01*
X290735Y90244D01*
X290858Y91178D01*
X290735Y92111D01*
X290375Y92982D01*
X289801Y93729D01*
X289054Y94302D01*
X288184Y94663D01*
X287250Y94786D01*
X286316Y94663D01*
X285446Y94302D01*
X285049Y93998D01*
X284549Y94244D01*
Y114139D01*
X284437Y114705D01*
X284116Y115184D01*
X275565Y123735D01*
X275086Y124056D01*
X274520Y124168D01*
X252108D01*
Y134438D01*
X251996Y135004D01*
X251675Y135484D01*
X248132Y139027D01*
Y139748D01*
X250213D01*
Y140036D01*
X252814D01*
X256636Y136214D01*
X256636Y132270D01*
X256691Y131997D01*
X256845Y131765D01*
X257511Y131100D01*
X257624Y131024D01*
X257737Y130947D01*
X257740Y130947D01*
X257742Y130945D01*
X257876Y130919D01*
X258010Y130891D01*
X262931Y130853D01*
X262934Y130853D01*
X262937Y130853D01*
X263071Y130880D01*
X263205Y130905D01*
X263207Y130907D01*
X263210Y130907D01*
X263323Y130983D01*
X263438Y131058D01*
X263439Y131061D01*
X263441Y131062D01*
X263601Y131222D01*
X263950Y131530D01*
Y131530D01*
X263950Y131530D01*
X266100D01*
Y134080D01*
Y136630D01*
X264334D01*
X264334Y138181D01*
X264313Y138284D01*
X264303Y138388D01*
X264286Y138420D01*
X264279Y138454D01*
X264221Y138542D01*
X264172Y138634D01*
X264144Y138656D01*
X264125Y138686D01*
X264049Y138736D01*
X264012Y138765D01*
X263956Y138811D01*
X263947Y138816D01*
X263825Y139301D01*
X263970Y139518D01*
X264132Y140330D01*
X263970Y141142D01*
X263510Y141830D01*
X262822Y142290D01*
X262010Y142452D01*
X261198Y142290D01*
X260510Y141830D01*
X260046Y142037D01*
X259682Y142280D01*
X258870Y142442D01*
X258235Y142315D01*
X258095Y142777D01*
X258078Y142808D01*
X258071Y142843D01*
X258013Y142930D01*
X257963Y143023D01*
X257936Y143045D01*
X257916Y143075D01*
X257829Y143133D01*
X257748Y143199D01*
X257714Y143210D01*
X257685Y143229D01*
X257582Y143250D01*
X257481Y143280D01*
X257446Y143277D01*
X257412Y143284D01*
X251886Y143284D01*
X251881Y144169D01*
Y146172D01*
X251166D01*
X251160Y146174D01*
X250334D01*
X250213Y146472D01*
D02*
G37*
G36*
X91005Y144360D02*
X89680D01*
Y143035D01*
X89781Y143055D01*
X90503Y143537D01*
X90985Y144259D01*
X91005Y144360D01*
D02*
G37*
G36*
X88180D02*
X86855D01*
X86875Y144259D01*
X87357Y143537D01*
X88079Y143055D01*
X88180Y143035D01*
Y144360D01*
D02*
G37*
G36*
X192505Y145884D02*
X189604D01*
X186705D01*
Y144105D01*
X186642D01*
Y142305D01*
X189541D01*
X192441D01*
Y144084D01*
X192505D01*
Y145884D01*
D02*
G37*
G36*
X57090Y142375D02*
Y141050D01*
X58415D01*
X58395Y141151D01*
X57912Y141873D01*
X57191Y142355D01*
X57090Y142375D01*
D02*
G37*
G36*
X55590D02*
X55489Y142355D01*
X54768Y141873D01*
X54286Y141151D01*
X54265Y141050D01*
X55590D01*
Y142375D01*
D02*
G37*
G36*
X210770Y142590D02*
X208970D01*
Y140440D01*
X210770D01*
Y142590D01*
D02*
G37*
G36*
X185475Y141720D02*
X184150D01*
Y140395D01*
X184251Y140416D01*
X184973Y140898D01*
X185454Y141619D01*
X185475Y141720D01*
D02*
G37*
G36*
X182650D02*
X181325D01*
X181345Y141619D01*
X181827Y140898D01*
X182549Y140416D01*
X182650Y140395D01*
Y141720D01*
D02*
G37*
G36*
X103653Y142491D02*
X93395D01*
Y139123D01*
X103653D01*
Y142491D01*
D02*
G37*
G36*
X192441Y140805D02*
X190292D01*
Y139005D01*
X192441D01*
Y140805D01*
D02*
G37*
G36*
X188792D02*
X186642D01*
Y139005D01*
X188792D01*
Y140805D01*
D02*
G37*
G36*
X58415Y139550D02*
X57090D01*
Y138225D01*
X57191Y138245D01*
X57912Y138727D01*
X58395Y139449D01*
X58415Y139550D01*
D02*
G37*
G36*
X55590D02*
X54265D01*
X54286Y139449D01*
X54768Y138727D01*
X55489Y138245D01*
X55590Y138225D01*
Y139550D01*
D02*
G37*
G36*
X210770Y138940D02*
X208970D01*
Y136790D01*
X210770D01*
Y138940D01*
D02*
G37*
G36*
X269750Y136630D02*
X267600D01*
Y134830D01*
X269750D01*
Y136630D01*
D02*
G37*
G36*
X212410Y136035D02*
Y134710D01*
X213735D01*
X213715Y134811D01*
X213232Y135532D01*
X212511Y136015D01*
X212410Y136035D01*
D02*
G37*
G36*
X210910D02*
X210809Y136015D01*
X210087Y135532D01*
X209606Y134811D01*
X209585Y134710D01*
X210910D01*
Y136035D01*
D02*
G37*
G36*
X48707Y149056D02*
X44207D01*
Y148393D01*
X32283D01*
X31542Y148246D01*
X30913Y147826D01*
X26174Y143087D01*
X25672Y143295D01*
X24409Y143461D01*
X23147Y143295D01*
X21970Y142808D01*
X20960Y142033D01*
X20184Y141022D01*
X19697Y139845D01*
X19531Y138583D01*
X19697Y137320D01*
X20184Y136143D01*
X20960Y135133D01*
X21970Y134358D01*
X23147Y133870D01*
X24409Y133704D01*
X25672Y133870D01*
X26849Y134358D01*
X27859Y135133D01*
X28635Y136143D01*
X29122Y137320D01*
X29288Y138583D01*
X29122Y139845D01*
X28914Y140348D01*
X33086Y144519D01*
X44126D01*
Y138583D01*
X44273Y137841D01*
X44693Y137213D01*
X47449Y134457D01*
X48078Y134037D01*
X48819Y133890D01*
X50728D01*
X50763Y133866D01*
X51575Y133705D01*
X52387Y133866D01*
X53075Y134326D01*
X53535Y135015D01*
X53697Y135827D01*
X53535Y136639D01*
X53075Y137327D01*
X52387Y137787D01*
X51575Y137949D01*
X50763Y137787D01*
X50728Y137764D01*
X49621D01*
X48000Y139385D01*
Y143856D01*
X48707D01*
Y149056D01*
D02*
G37*
G36*
X194992Y134858D02*
Y132358D01*
X197742D01*
Y134858D01*
X194992D01*
D02*
G37*
G36*
X186406D02*
X183656D01*
Y132358D01*
X186406D01*
Y134858D01*
D02*
G37*
G36*
X60390Y133375D02*
Y132050D01*
X61715D01*
X61695Y132151D01*
X61212Y132872D01*
X60491Y133354D01*
X60390Y133375D01*
D02*
G37*
G36*
X58890D02*
X58789Y133354D01*
X58068Y132872D01*
X57586Y132151D01*
X57565Y132050D01*
X58890D01*
Y133375D01*
D02*
G37*
G36*
X213735Y133210D02*
X212410D01*
Y131885D01*
X212511Y131905D01*
X213232Y132387D01*
X213715Y133109D01*
X213735Y133210D01*
D02*
G37*
G36*
X210910D02*
X209585D01*
X209606Y133109D01*
X210087Y132387D01*
X210809Y131905D01*
X210910Y131885D01*
Y133210D01*
D02*
G37*
G36*
X269750Y133330D02*
X267600D01*
Y131530D01*
X269750D01*
Y133330D01*
D02*
G37*
G36*
X179660Y132505D02*
Y131180D01*
X180985D01*
X180965Y131281D01*
X180482Y132002D01*
X179761Y132484D01*
X179660Y132505D01*
D02*
G37*
G36*
X178160D02*
X178059Y132484D01*
X177338Y132002D01*
X176855Y131281D01*
X176835Y131180D01*
X178160D01*
Y132505D01*
D02*
G37*
G36*
X203220Y132155D02*
Y130830D01*
X204545D01*
X204524Y130931D01*
X204043Y131652D01*
X203321Y132134D01*
X203220Y132155D01*
D02*
G37*
G36*
X201720D02*
X201619Y132134D01*
X200898Y131652D01*
X200415Y130931D01*
X200395Y130830D01*
X201720D01*
Y132155D01*
D02*
G37*
G36*
X154940Y131645D02*
Y130320D01*
X156265D01*
X156245Y130421D01*
X155763Y131142D01*
X155041Y131624D01*
X154940Y131645D01*
D02*
G37*
G36*
X153440D02*
X153339Y131624D01*
X152618Y131142D01*
X152135Y130421D01*
X152115Y130320D01*
X153440D01*
Y131645D01*
D02*
G37*
G36*
X61715Y130550D02*
X60390D01*
Y129225D01*
X60491Y129245D01*
X61212Y129727D01*
X61695Y130449D01*
X61715Y130550D01*
D02*
G37*
G36*
X58890D02*
X57565D01*
X57586Y130449D01*
X58068Y129727D01*
X58789Y129245D01*
X58890Y129225D01*
Y130550D01*
D02*
G37*
G36*
X197742Y130858D02*
X194992D01*
Y128358D01*
X197742D01*
Y130858D01*
D02*
G37*
G36*
X186406D02*
X183656D01*
Y128358D01*
X186406D01*
Y130858D01*
D02*
G37*
G36*
X190742Y134858D02*
X190242Y134858D01*
X187906D01*
Y131608D01*
Y128358D01*
X190242D01*
X190656Y128358D01*
X191156Y128358D01*
X193492D01*
Y131608D01*
Y134858D01*
X191156D01*
X190742Y134858D01*
D02*
G37*
G36*
X180985Y129680D02*
X179660D01*
Y128355D01*
X179761Y128375D01*
X180482Y128858D01*
X180965Y129579D01*
X180985Y129680D01*
D02*
G37*
G36*
X178160D02*
X176835D01*
X176855Y129579D01*
X177338Y128858D01*
X178059Y128375D01*
X178160Y128355D01*
Y129680D01*
D02*
G37*
G36*
X267590Y129545D02*
Y128220D01*
X268915D01*
X268895Y128321D01*
X268412Y129042D01*
X267691Y129525D01*
X267590Y129545D01*
D02*
G37*
G36*
X266090D02*
X265989Y129525D01*
X265267Y129042D01*
X264785Y128321D01*
X264765Y128220D01*
X266090D01*
Y129545D01*
D02*
G37*
G36*
X204545Y129330D02*
X203220D01*
Y128005D01*
X203321Y128025D01*
X204043Y128507D01*
X204524Y129229D01*
X204545Y129330D01*
D02*
G37*
G36*
X201720D02*
X200395D01*
X200415Y129229D01*
X200898Y128507D01*
X201619Y128025D01*
X201720Y128005D01*
Y129330D01*
D02*
G37*
G36*
X156265Y128820D02*
X154940D01*
Y127495D01*
X155041Y127515D01*
X155763Y127998D01*
X156245Y128719D01*
X156265Y128820D01*
D02*
G37*
G36*
X153440D02*
X152115D01*
X152135Y128719D01*
X152618Y127998D01*
X153339Y127515D01*
X153440Y127495D01*
Y128820D01*
D02*
G37*
G36*
X197442Y127058D02*
X191042D01*
Y126555D01*
X190356D01*
Y127058D01*
X183956D01*
Y125467D01*
X171752D01*
X171437Y125405D01*
X170166D01*
Y122627D01*
X171680D01*
X171752Y122613D01*
X183956D01*
Y121158D01*
X190356D01*
Y121661D01*
X191042D01*
Y121158D01*
X197442D01*
Y121661D01*
X202692D01*
X203628Y121848D01*
X204422Y122378D01*
X204952Y123172D01*
X205139Y124108D01*
X204952Y125045D01*
X204422Y125839D01*
X203628Y126369D01*
X202692Y126555D01*
X197442D01*
Y127058D01*
D02*
G37*
G36*
X284095Y141199D02*
X282662Y141058D01*
X281285Y140640D01*
X280016Y139962D01*
X278904Y139049D01*
X277991Y137937D01*
X277312Y136668D01*
X276895Y135290D01*
X276754Y133858D01*
X276895Y132426D01*
X277312Y131049D01*
X277991Y129780D01*
X278904Y128667D01*
X280016Y127755D01*
X281285Y127076D01*
X282662Y126658D01*
X284095Y126517D01*
X285527Y126658D01*
X286904Y127076D01*
X288173Y127755D01*
X289285Y128667D01*
X290198Y129780D01*
X290877Y131049D01*
X291294Y132426D01*
X291435Y133858D01*
X291294Y135290D01*
X290877Y136668D01*
X290198Y137937D01*
X289285Y139049D01*
X288173Y139962D01*
X286904Y140640D01*
X285527Y141058D01*
X284095Y141199D01*
D02*
G37*
G36*
X268915Y126720D02*
X267590D01*
Y125395D01*
X267691Y125416D01*
X268412Y125898D01*
X268895Y126619D01*
X268915Y126720D01*
D02*
G37*
G36*
X266090D02*
X264765D01*
X264785Y126619D01*
X265267Y125898D01*
X265989Y125416D01*
X266090Y125395D01*
Y126720D01*
D02*
G37*
G36*
X59935Y128053D02*
X55435D01*
Y122404D01*
X59935D01*
Y128053D01*
D02*
G37*
G36*
X53935D02*
X49435D01*
Y122404D01*
X53935D01*
Y128053D01*
D02*
G37*
G36*
X45980Y123685D02*
Y122360D01*
X47305D01*
X47285Y122461D01*
X46802Y123182D01*
X46081Y123665D01*
X45980Y123685D01*
D02*
G37*
G36*
X44480D02*
X44379Y123665D01*
X43657Y123182D01*
X43176Y122461D01*
X43155Y122360D01*
X44480D01*
Y123685D01*
D02*
G37*
G36*
X47305Y120860D02*
X45980D01*
Y119535D01*
X46081Y119555D01*
X46802Y120037D01*
X47285Y120759D01*
X47305Y120860D01*
D02*
G37*
G36*
X44480D02*
X43155D01*
X43176Y120759D01*
X43657Y120037D01*
X44379Y119555D01*
X44480Y119535D01*
Y120860D01*
D02*
G37*
G36*
X207831Y120317D02*
X203331D01*
Y119399D01*
X200122D01*
X199479Y119271D01*
X198933Y118906D01*
X197738Y117711D01*
X197353Y117432D01*
X187095D01*
Y114064D01*
X197353D01*
Y114066D01*
X198153D01*
X198797Y114194D01*
X199343Y114558D01*
X200819Y116035D01*
X203331D01*
Y115117D01*
X207831D01*
Y116418D01*
X209522D01*
X209938Y116140D01*
X210750Y115978D01*
X211562Y116140D01*
X212250Y116600D01*
X212710Y117288D01*
X212872Y118100D01*
X212710Y118912D01*
X212250Y119600D01*
X211562Y120060D01*
X210750Y120222D01*
X209938Y120060D01*
X209522Y119782D01*
X207831D01*
Y120317D01*
D02*
G37*
G36*
X59935Y120904D02*
X55435D01*
Y115254D01*
X59935D01*
Y120904D01*
D02*
G37*
G36*
X53935D02*
X49435D01*
Y115254D01*
X53935D01*
Y120904D01*
D02*
G37*
G36*
X162894Y125545D02*
X145276D01*
X144690Y125429D01*
X144194Y125097D01*
X139815Y120718D01*
X138747Y121161D01*
X137402Y121338D01*
X136057Y121161D01*
X134803Y120642D01*
X133727Y119816D01*
X132901Y118740D01*
X132382Y117487D01*
X132205Y116142D01*
X132382Y114797D01*
X132901Y113543D01*
X133727Y112467D01*
X134803Y111642D01*
X136057Y111122D01*
X137402Y110945D01*
X138747Y111122D01*
X140000Y111642D01*
X141076Y112467D01*
X141902Y113543D01*
X142421Y114797D01*
X142598Y116142D01*
X142421Y117487D01*
X141978Y118555D01*
X145909Y122486D01*
X160683D01*
X160890Y121986D01*
X156879Y117974D01*
X156547Y117478D01*
X156431Y116893D01*
Y110270D01*
X156547Y109685D01*
X156879Y109189D01*
X161381Y104686D01*
X161877Y104355D01*
X162462Y104238D01*
X168788D01*
Y104084D01*
X179046D01*
Y107452D01*
X168788D01*
Y107297D01*
X163096D01*
X161424Y108968D01*
X161616Y109430D01*
X166179D01*
Y109585D01*
X167058D01*
X167403Y109355D01*
X167988Y109238D01*
X168788D01*
Y109083D01*
X179046D01*
Y112452D01*
X168788D01*
Y112452D01*
X168299Y112479D01*
X168227Y112528D01*
X167641Y112644D01*
X166179D01*
Y112799D01*
X160842D01*
Y110205D01*
X160380Y110013D01*
X159489Y110904D01*
Y116260D01*
X160342Y117112D01*
X160842Y116905D01*
X160842Y116723D01*
Y113761D01*
X166179D01*
Y113916D01*
X167666D01*
X168251Y114032D01*
X168297Y114063D01*
X168788Y114084D01*
Y114084D01*
X179046D01*
Y117452D01*
X168788D01*
Y117297D01*
X167988D01*
X167403Y117181D01*
X167095Y116975D01*
X166179D01*
Y117130D01*
X161270D01*
X161066Y117130D01*
X160859Y117630D01*
X163975Y120745D01*
X164307Y121241D01*
X164423Y121827D01*
Y122627D01*
X164479D01*
Y125405D01*
X163515D01*
X163479Y125429D01*
X162894Y125545D01*
D02*
G37*
G36*
X276990Y114225D02*
Y112900D01*
X278315D01*
X278294Y113001D01*
X277813Y113723D01*
X277091Y114205D01*
X276990Y114225D01*
D02*
G37*
G36*
X55030Y114065D02*
Y112740D01*
X56355D01*
X56335Y112841D01*
X55853Y113563D01*
X55131Y114045D01*
X55030Y114065D01*
D02*
G37*
G36*
X53530D02*
X53429Y114045D01*
X52707Y113563D01*
X52226Y112841D01*
X52205Y112740D01*
X53530D01*
Y114065D01*
D02*
G37*
G36*
X278315Y111400D02*
X276990D01*
Y110075D01*
X277091Y110096D01*
X277813Y110577D01*
X278294Y111299D01*
X278315Y111400D01*
D02*
G37*
G36*
X272229Y117813D02*
X250576D01*
X250303Y117759D01*
X250071Y117604D01*
X249284Y116817D01*
X249129Y116585D01*
X249075Y116312D01*
X249075Y108044D01*
X249129Y107771D01*
X249284Y107540D01*
X249677Y107146D01*
X249909Y106991D01*
X249909Y106991D01*
X249909Y106991D01*
X250182Y106937D01*
X259349D01*
X259425Y106823D01*
X259157Y106323D01*
X249876D01*
Y102955D01*
X260134D01*
Y105825D01*
X260634Y106032D01*
X261018Y105648D01*
Y103676D01*
X263568D01*
Y102176D01*
X261018D01*
Y100026D01*
X261018Y100026D01*
X261018D01*
X260974Y99544D01*
X260928Y99512D01*
X260634Y99073D01*
X260134Y99225D01*
Y101323D01*
X249876D01*
Y97955D01*
X259802D01*
X260139Y97944D01*
X260354Y97546D01*
X260445Y97089D01*
X260841Y96497D01*
X260650Y95997D01*
X260134D01*
Y96323D01*
X249876D01*
Y92955D01*
X260134D01*
Y93143D01*
X264730D01*
Y92320D01*
X269930D01*
Y96820D01*
X265048D01*
X264972Y96820D01*
X264889Y96873D01*
X264644Y97190D01*
X262500D01*
Y98690D01*
X264575D01*
X264555Y98791D01*
X264072Y99512D01*
X264053Y99526D01*
X264204Y100026D01*
X265973D01*
Y98288D01*
X268723D01*
Y101538D01*
X269473D01*
Y102288D01*
X272973D01*
Y104788D01*
X273161Y105211D01*
X273521Y105571D01*
X273676Y105803D01*
X273730Y106076D01*
X273730Y111149D01*
X273962Y111225D01*
X274230Y111232D01*
X274668Y110577D01*
X275389Y110096D01*
X275490Y110075D01*
Y112150D01*
Y114225D01*
X275389Y114205D01*
X274668Y113723D01*
X274230Y113068D01*
X273962Y113075D01*
X273730Y113151D01*
X273730Y116312D01*
X273676Y116585D01*
X273521Y116817D01*
X273521Y116817D01*
X272734Y117604D01*
X272502Y117759D01*
X272229Y117813D01*
D02*
G37*
G36*
X207831Y114017D02*
X203331D01*
Y112844D01*
X201319D01*
X200772Y112736D01*
X200309Y112426D01*
X200309Y112426D01*
X197816Y109933D01*
X197353Y110124D01*
Y112452D01*
X187095D01*
Y109083D01*
X196313D01*
X196504Y108622D01*
X195335Y107452D01*
X187095D01*
Y104084D01*
X197353D01*
Y105433D01*
X201910Y109990D01*
X202977D01*
X203331Y109636D01*
X203331Y108506D01*
X203331Y108317D01*
Y103306D01*
X207831D01*
Y104328D01*
X209992D01*
X210408Y104050D01*
X211220Y103888D01*
X212032Y104050D01*
X212720Y104510D01*
X213180Y105198D01*
X213342Y106010D01*
X213180Y106822D01*
X212720Y107510D01*
X212032Y107970D01*
X211220Y108132D01*
X210408Y107970D01*
X209992Y107692D01*
X208185D01*
X207831Y108046D01*
X207831Y108817D01*
X207831Y109006D01*
Y109853D01*
X214021D01*
X214070Y109780D01*
X214758Y109320D01*
X215570Y109158D01*
X216382Y109320D01*
X217070Y109780D01*
X217530Y110468D01*
X217692Y111280D01*
X217530Y112092D01*
X217070Y112780D01*
X216382Y113240D01*
X215570Y113402D01*
X214758Y113240D01*
X214070Y112780D01*
X214021Y112707D01*
X207831D01*
Y114017D01*
D02*
G37*
G36*
X56355Y111240D02*
X55030D01*
Y109915D01*
X55131Y109935D01*
X55853Y110417D01*
X56335Y111139D01*
X56355Y111240D01*
D02*
G37*
G36*
X53530D02*
X52205D01*
X52226Y111139D01*
X52707Y110417D01*
X53429Y109935D01*
X53530Y109915D01*
Y111240D01*
D02*
G37*
G36*
X81695Y108777D02*
X80883Y108615D01*
X80646Y108457D01*
X69280D01*
Y108770D01*
X64080D01*
Y104270D01*
X69280D01*
Y104583D01*
X81445D01*
X81695Y104533D01*
X82507Y104695D01*
X83195Y105155D01*
X83655Y105843D01*
X83817Y106655D01*
X83655Y107467D01*
X83195Y108155D01*
X82507Y108615D01*
X81695Y108777D01*
D02*
G37*
G36*
X50213Y109661D02*
X47994D01*
Y108034D01*
X50213D01*
Y109661D01*
D02*
G37*
G36*
X46494D02*
X44276D01*
Y108034D01*
X46494D01*
Y109661D01*
D02*
G37*
G36*
Y106534D02*
X44276D01*
Y104905D01*
X46494D01*
Y106534D01*
D02*
G37*
G36*
X179347Y102752D02*
X174667D01*
Y101518D01*
X179347D01*
Y102752D01*
D02*
G37*
G36*
X173167D02*
X168488D01*
Y101518D01*
X173167D01*
Y102752D01*
D02*
G37*
G36*
X24409Y125745D02*
X23147Y125579D01*
X21970Y125091D01*
X20960Y124316D01*
X20184Y123305D01*
X19697Y122129D01*
X19531Y120866D01*
X19697Y119603D01*
X20184Y118427D01*
X20960Y117416D01*
X21970Y116641D01*
X23147Y116154D01*
X24409Y115987D01*
X25672Y116154D01*
X26174Y116362D01*
X32829Y109707D01*
Y105982D01*
X32976Y105241D01*
X33396Y104612D01*
X35127Y102882D01*
Y101465D01*
X40464D01*
Y105621D01*
X37866D01*
X36703Y106784D01*
Y110510D01*
X36556Y111251D01*
X36136Y111879D01*
X28914Y119101D01*
X29122Y119603D01*
X29288Y120866D01*
X29122Y122129D01*
X28635Y123305D01*
X27859Y124316D01*
X26849Y125091D01*
X25672Y125579D01*
X24409Y125745D01*
D02*
G37*
G36*
X115430Y101695D02*
Y100370D01*
X116755D01*
X116735Y100471D01*
X116253Y101192D01*
X115531Y101674D01*
X115430Y101695D01*
D02*
G37*
G36*
X113930D02*
X113829Y101674D01*
X113108Y101192D01*
X112626Y100471D01*
X112605Y100370D01*
X113930D01*
Y101695D01*
D02*
G37*
G36*
X155260Y101575D02*
Y100250D01*
X156585D01*
X156565Y100351D01*
X156082Y101073D01*
X155361Y101555D01*
X155260Y101575D01*
D02*
G37*
G36*
X153760D02*
X153659Y101555D01*
X152937Y101073D01*
X152455Y100351D01*
X152435Y100250D01*
X153760D01*
Y101575D01*
D02*
G37*
G36*
X179347Y100018D02*
X174667D01*
Y98783D01*
X179347D01*
Y100018D01*
D02*
G37*
G36*
X173167D02*
X168488D01*
Y98783D01*
X173167D01*
Y100018D01*
D02*
G37*
G36*
X272973Y100788D02*
X270223D01*
Y98288D01*
X272973D01*
Y100788D01*
D02*
G37*
G36*
X197353Y102452D02*
X187095D01*
Y99084D01*
X197353D01*
Y99340D01*
X200778D01*
X201522Y98597D01*
X201522Y98597D01*
X201985Y98287D01*
X202531Y98178D01*
X202531Y98178D01*
X203331D01*
Y97006D01*
X207831D01*
Y98313D01*
X210721D01*
X210770Y98240D01*
X211458Y97780D01*
X212270Y97618D01*
X213082Y97780D01*
X213770Y98240D01*
X214230Y98928D01*
X214392Y99740D01*
X214230Y100552D01*
X213770Y101240D01*
X213082Y101700D01*
X212270Y101862D01*
X211458Y101700D01*
X210770Y101240D01*
X210721Y101167D01*
X207831D01*
Y102206D01*
X203331D01*
Y101532D01*
X202831Y101325D01*
X202379Y101777D01*
X201916Y102086D01*
X201369Y102195D01*
X201369Y102195D01*
X197353D01*
Y102452D01*
D02*
G37*
G36*
X116755Y98870D02*
X115430D01*
Y97545D01*
X115531Y97565D01*
X116253Y98048D01*
X116735Y98769D01*
X116755Y98870D01*
D02*
G37*
G36*
X113930D02*
X112605D01*
X112626Y98769D01*
X113108Y98048D01*
X113829Y97565D01*
X113930Y97545D01*
Y98870D01*
D02*
G37*
G36*
X156585Y98750D02*
X155260D01*
Y97425D01*
X155361Y97445D01*
X156082Y97927D01*
X156565Y98649D01*
X156585Y98750D01*
D02*
G37*
G36*
X153760D02*
X152435D01*
X152455Y98649D01*
X152937Y97927D01*
X153659Y97445D01*
X153760Y97425D01*
Y98750D01*
D02*
G37*
G36*
X138152Y101655D02*
Y97207D01*
X142600D01*
X142518Y97828D01*
X141989Y99105D01*
X141147Y100202D01*
X140050Y101044D01*
X138773Y101574D01*
X138152Y101655D01*
D02*
G37*
G36*
X136652D02*
X136030Y101574D01*
X134753Y101044D01*
X133656Y100202D01*
X132814Y99105D01*
X132285Y97828D01*
X132203Y97207D01*
X136652D01*
Y101655D01*
D02*
G37*
G36*
X242127Y96623D02*
X237448D01*
Y95389D01*
X242127D01*
Y96623D01*
D02*
G37*
G36*
X235948D02*
X231269D01*
Y95389D01*
X235948D01*
Y96623D01*
D02*
G37*
G36*
X242127Y93889D02*
X237448D01*
Y92655D01*
X242127D01*
Y93889D01*
D02*
G37*
G36*
X235948D02*
X231269D01*
Y92655D01*
X235948D01*
Y93889D01*
D02*
G37*
G36*
X136652Y95707D02*
X132203D01*
X132285Y95086D01*
X132814Y93808D01*
X133656Y92711D01*
X134753Y91869D01*
X136030Y91340D01*
X136652Y91258D01*
Y95707D01*
D02*
G37*
G36*
X142600D02*
X138152D01*
Y91258D01*
X138773Y91340D01*
X140050Y91869D01*
X141147Y92711D01*
X141989Y93808D01*
X142518Y95086D01*
X142600Y95707D01*
D02*
G37*
G36*
X130940Y80235D02*
Y78910D01*
X132265D01*
X132245Y79011D01*
X131763Y79733D01*
X131041Y80215D01*
X130940Y80235D01*
D02*
G37*
G36*
X129440D02*
X129339Y80215D01*
X128618Y79733D01*
X128135Y79011D01*
X128115Y78910D01*
X129440D01*
Y80235D01*
D02*
G37*
G36*
X275320Y77955D02*
Y76630D01*
X276645D01*
X276624Y76731D01*
X276143Y77452D01*
X275421Y77935D01*
X275320Y77955D01*
D02*
G37*
G36*
X273820D02*
X273719Y77935D01*
X272997Y77452D01*
X272516Y76731D01*
X272495Y76630D01*
X273820D01*
Y77955D01*
D02*
G37*
G36*
X268260D02*
Y76630D01*
X269585D01*
X269565Y76731D01*
X269082Y77452D01*
X268361Y77935D01*
X268260Y77955D01*
D02*
G37*
G36*
X266760D02*
X266659Y77935D01*
X265937Y77452D01*
X265456Y76731D01*
X265435Y76630D01*
X266760D01*
Y77955D01*
D02*
G37*
G36*
X261020Y77685D02*
Y76360D01*
X262345D01*
X262325Y76461D01*
X261842Y77183D01*
X261121Y77665D01*
X261020Y77685D01*
D02*
G37*
G36*
X259520D02*
X259419Y77665D01*
X258698Y77183D01*
X258215Y76461D01*
X258195Y76360D01*
X259520D01*
Y77685D01*
D02*
G37*
G36*
X132265Y77410D02*
X130940D01*
Y76085D01*
X131041Y76105D01*
X131763Y76587D01*
X132245Y77309D01*
X132265Y77410D01*
D02*
G37*
G36*
X129440D02*
X128115D01*
X128135Y77309D01*
X128618Y76587D01*
X129339Y76105D01*
X129440Y76085D01*
Y77410D01*
D02*
G37*
G36*
X276645Y75130D02*
X275320D01*
Y73805D01*
X275421Y73826D01*
X276143Y74308D01*
X276624Y75029D01*
X276645Y75130D01*
D02*
G37*
G36*
X273820D02*
X272495D01*
X272516Y75029D01*
X272997Y74308D01*
X273719Y73826D01*
X273820Y73805D01*
Y75130D01*
D02*
G37*
G36*
X269585D02*
X268260D01*
Y73805D01*
X268361Y73826D01*
X269082Y74308D01*
X269565Y75029D01*
X269585Y75130D01*
D02*
G37*
G36*
X266760D02*
X265435D01*
X265456Y75029D01*
X265937Y74308D01*
X266659Y73826D01*
X266760Y73805D01*
Y75130D01*
D02*
G37*
G36*
X262345Y74860D02*
X261020D01*
Y73535D01*
X261121Y73555D01*
X261842Y74037D01*
X262325Y74759D01*
X262345Y74860D01*
D02*
G37*
G36*
X259520D02*
X258195D01*
X258215Y74759D01*
X258698Y74037D01*
X259419Y73555D01*
X259520Y73535D01*
Y74860D01*
D02*
G37*
G36*
X271030Y72187D02*
X270530Y72187D01*
X268194D01*
Y68937D01*
Y65687D01*
X270530D01*
X270944Y65687D01*
X271444Y65687D01*
X273780D01*
Y68937D01*
Y72187D01*
X271444D01*
X271030Y72187D01*
D02*
G37*
G36*
X275280Y72187D02*
Y69687D01*
X278030D01*
Y72187D01*
X275280D01*
D02*
G37*
G36*
X259607D02*
X256857D01*
Y69687D01*
X259607D01*
Y72187D01*
D02*
G37*
G36*
X278030Y68187D02*
X275280D01*
Y65687D01*
X278030D01*
Y68187D01*
D02*
G37*
G36*
X263944Y72187D02*
X263444Y72187D01*
X261107D01*
Y68937D01*
Y65687D01*
X263444D01*
X263857Y65687D01*
X264357Y65687D01*
X266694D01*
Y68937D01*
Y72187D01*
X264357D01*
X263944Y72187D01*
D02*
G37*
G36*
X259607Y68187D02*
X256857D01*
Y65687D01*
X259607D01*
Y68187D01*
D02*
G37*
G36*
X212511Y74125D02*
X198119D01*
Y61568D01*
X194882D01*
X193722Y61415D01*
X192641Y60968D01*
X191713Y60256D01*
X191001Y59327D01*
X190553Y58246D01*
X190400Y57087D01*
X190553Y55927D01*
X191001Y54846D01*
X191713Y53918D01*
X192641Y53205D01*
X193722Y52758D01*
X194882Y52605D01*
X201969D01*
X203128Y52758D01*
X204209Y53205D01*
X205137Y53918D01*
X205850Y54846D01*
X206080Y55402D01*
X212511D01*
Y74125D01*
D02*
G37*
G36*
X148830Y50375D02*
Y49050D01*
X150155D01*
X150135Y49151D01*
X149653Y49872D01*
X148931Y50355D01*
X148830Y50375D01*
D02*
G37*
G36*
X147330D02*
X147229Y50355D01*
X146508Y49872D01*
X146026Y49151D01*
X146005Y49050D01*
X147330D01*
Y50375D01*
D02*
G37*
G36*
X150155Y47550D02*
X148830D01*
Y46225D01*
X148931Y46245D01*
X149653Y46727D01*
X150135Y47449D01*
X150155Y47550D01*
D02*
G37*
G36*
X147330D02*
X146005D01*
X146026Y47449D01*
X146508Y46727D01*
X147229Y46245D01*
X147330Y46225D01*
Y47550D01*
D02*
G37*
G36*
X222404Y53700D02*
Y45632D01*
X226633D01*
Y48819D01*
X226464Y50108D01*
X225966Y51309D01*
X225175Y52340D01*
X224143Y53131D01*
X222942Y53629D01*
X222404Y53700D01*
D02*
G37*
G36*
X220904D02*
X220365Y53629D01*
X219164Y53131D01*
X218132Y52340D01*
X217341Y51309D01*
X216844Y50108D01*
X216674Y48819D01*
Y45632D01*
X220904D01*
Y53700D01*
D02*
G37*
G36*
X289670Y45037D02*
X281670D01*
X280848Y44929D01*
X280561Y44810D01*
X278470D01*
Y44001D01*
X272620D01*
X272135Y43905D01*
X271231D01*
Y43210D01*
X271066Y42963D01*
X270938Y42319D01*
X271066Y41675D01*
X271231Y41428D01*
Y40733D01*
X272135D01*
X272620Y40637D01*
X278470D01*
Y38910D01*
X280561D01*
X280848Y38791D01*
X281670Y38683D01*
X289670D01*
X290492Y38791D01*
X291259Y39108D01*
X291917Y39613D01*
X292422Y40271D01*
X292739Y41038D01*
X292847Y41860D01*
X292739Y42682D01*
X292422Y43449D01*
X291917Y44107D01*
X291259Y44611D01*
X290492Y44929D01*
X289670Y45037D01*
D02*
G37*
G36*
X285170Y37610D02*
X282420D01*
Y35110D01*
X285170D01*
Y37610D01*
D02*
G37*
G36*
X280920D02*
X278170D01*
Y35110D01*
X280920D01*
Y37610D01*
D02*
G37*
G36*
X206693Y37263D02*
X203506D01*
Y33033D01*
X211574D01*
X211503Y33572D01*
X211005Y34773D01*
X210214Y35805D01*
X209183Y36596D01*
X207982Y37093D01*
X206693Y37263D01*
D02*
G37*
G36*
X202006D02*
X198819D01*
X197530Y37093D01*
X196329Y36596D01*
X195298Y35805D01*
X194506Y34773D01*
X194009Y33572D01*
X193938Y33033D01*
X202006D01*
Y37263D01*
D02*
G37*
G36*
X285170Y33610D02*
X282420D01*
Y31110D01*
X285170D01*
Y33610D01*
D02*
G37*
G36*
X280920D02*
X278170D01*
Y31110D01*
X280920D01*
Y33610D01*
D02*
G37*
G36*
X236827Y42732D02*
X228900D01*
Y30278D01*
X236827D01*
Y42732D01*
D02*
G37*
G36*
X226633Y44132D02*
X221654D01*
X216674D01*
Y40945D01*
X216844Y39656D01*
X217341Y38455D01*
X218132Y37424D01*
X219164Y36632D01*
X219473Y36505D01*
Y30278D01*
X227400D01*
Y42732D01*
X226633D01*
Y44132D01*
D02*
G37*
G36*
X186039Y42732D02*
X178112D01*
Y30278D01*
X186039D01*
Y42732D01*
D02*
G37*
G36*
X176612D02*
X168685D01*
Y30278D01*
X176612D01*
Y42732D01*
D02*
G37*
G36*
X282590Y29145D02*
Y27820D01*
X283915D01*
X283894Y27921D01*
X283413Y28642D01*
X282691Y29125D01*
X282590Y29145D01*
D02*
G37*
G36*
X281090D02*
X280989Y29125D01*
X280268Y28642D01*
X279785Y27921D01*
X279765Y27820D01*
X281090D01*
Y29145D01*
D02*
G37*
G36*
X211574Y31534D02*
X203506D01*
Y27304D01*
X206693D01*
X207982Y27474D01*
X209183Y27971D01*
X210214Y28762D01*
X211005Y29794D01*
X211503Y30995D01*
X211574Y31534D01*
D02*
G37*
G36*
X202006D02*
X193938D01*
X194009Y30995D01*
X194506Y29794D01*
X195298Y28762D01*
X196329Y27971D01*
X197530Y27474D01*
X198819Y27304D01*
X202006D01*
Y31534D01*
D02*
G37*
G36*
X123740Y26845D02*
Y25520D01*
X125065D01*
X125045Y25621D01*
X124563Y26342D01*
X123841Y26825D01*
X123740Y26845D01*
D02*
G37*
G36*
X122240D02*
X122139Y26825D01*
X121417Y26342D01*
X120935Y25621D01*
X120915Y25520D01*
X122240D01*
Y26845D01*
D02*
G37*
G36*
X283915Y26320D02*
X282590D01*
Y24995D01*
X282691Y25016D01*
X283413Y25497D01*
X283894Y26219D01*
X283915Y26320D01*
D02*
G37*
G36*
X281090D02*
X279765D01*
X279785Y26219D01*
X280268Y25497D01*
X280989Y25016D01*
X281090Y24995D01*
Y26320D01*
D02*
G37*
G36*
X134252Y34405D02*
X133440Y34244D01*
X132752Y33784D01*
X132292Y33095D01*
X132130Y32283D01*
X132292Y31471D01*
X132315Y31437D01*
Y28249D01*
X132314Y28247D01*
Y27447D01*
X131652D01*
Y22947D01*
X136852D01*
Y27447D01*
X136189D01*
Y28245D01*
X136189Y28247D01*
Y31437D01*
X136212Y31471D01*
X136374Y32283D01*
X136212Y33095D01*
X135752Y33784D01*
X135064Y34244D01*
X134252Y34405D01*
D02*
G37*
G36*
X125065Y24020D02*
X123740D01*
Y22695D01*
X123841Y22715D01*
X124563Y23198D01*
X125045Y23919D01*
X125065Y24020D01*
D02*
G37*
G36*
X122240D02*
X120915D01*
X120935Y23919D01*
X121417Y23198D01*
X122139Y22715D01*
X122240Y22695D01*
Y24020D01*
D02*
G37*
G36*
X122478Y21123D02*
X120260D01*
Y19495D01*
X122478D01*
Y21123D01*
D02*
G37*
G36*
Y17995D02*
X120260D01*
Y16367D01*
X122478D01*
Y17995D01*
D02*
G37*
G36*
X236827Y28778D02*
X228900D01*
Y16323D01*
X236827D01*
Y28778D01*
D02*
G37*
G36*
X227400D02*
X219473D01*
Y16323D01*
X227400D01*
Y28778D01*
D02*
G37*
G36*
X186039Y28778D02*
X178112D01*
Y16323D01*
X186039D01*
Y28778D01*
D02*
G37*
G36*
X176612D02*
X168685D01*
Y16323D01*
X176612D01*
Y28778D01*
D02*
G37*
G36*
X252078Y22157D02*
X242410D01*
Y14457D01*
X252043D01*
X252078Y14457D01*
X252543Y14374D01*
Y14157D01*
X253581D01*
Y17815D01*
Y21472D01*
X252578D01*
X252543Y21472D01*
X252078Y21556D01*
Y22157D01*
D02*
G37*
G36*
X160936Y20976D02*
X156780D01*
Y13670D01*
X160936D01*
Y20976D01*
D02*
G37*
G36*
X130990Y13667D02*
X126490D01*
Y12743D01*
X125897D01*
Y13342D01*
X120560D01*
Y9187D01*
X125897D01*
Y9786D01*
X126490D01*
Y8467D01*
X130990D01*
Y13667D01*
D02*
G37*
G36*
X167039Y16842D02*
X161702D01*
Y12292D01*
X167039D01*
Y16842D01*
D02*
G37*
G36*
X202756Y19644D02*
X201442Y19471D01*
X200217Y18964D01*
X199166Y18157D01*
X198359Y17106D01*
X197852Y15881D01*
X197679Y14567D01*
X197852Y13253D01*
X198359Y12028D01*
X199166Y10977D01*
X200217Y10170D01*
X201442Y9663D01*
X202756Y9490D01*
X204070Y9663D01*
X205295Y10170D01*
X206346Y10977D01*
X207153Y12028D01*
X207660Y13253D01*
X207833Y14567D01*
X207660Y15881D01*
X207153Y17106D01*
X206346Y18157D01*
X205295Y18964D01*
X204070Y19471D01*
X202756Y19644D01*
D02*
G37*
G36*
X142913Y28273D02*
X138583Y28273D01*
X138310Y28218D01*
X138078Y28064D01*
X137684Y27670D01*
X137530Y27439D01*
X137475Y27165D01*
Y23228D01*
X137530Y22955D01*
X137684Y22724D01*
X138263Y22145D01*
X138263Y16842D01*
X132961D01*
Y12292D01*
X138298D01*
Y12741D01*
X138798Y12948D01*
X138865Y12881D01*
X139097Y12726D01*
X139370Y12672D01*
X141843Y12672D01*
X142061Y12172D01*
X141761Y11780D01*
X141492Y11130D01*
X141400Y10433D01*
X141492Y9736D01*
X141761Y9086D01*
X142189Y8528D01*
X142747Y8099D01*
X143397Y7830D01*
X144095Y7738D01*
X144792Y7830D01*
X145442Y8099D01*
X146000Y8528D01*
X146428Y9086D01*
X146697Y9736D01*
X146789Y10433D01*
X146697Y11130D01*
X146428Y11780D01*
X146000Y12338D01*
X145442Y12767D01*
X144792Y13036D01*
X144297Y13101D01*
X144159Y13270D01*
X144008Y13528D01*
X143989Y13618D01*
X144021Y13780D01*
X144021Y27165D01*
X143966Y27439D01*
X143812Y27670D01*
X143812Y27670D01*
X143418Y28064D01*
X143186Y28218D01*
X142913Y28273D01*
D02*
G37*
G36*
X167039Y8574D02*
X161702D01*
Y4024D01*
X167039D01*
Y8574D01*
D02*
G37*
G36*
X138298D02*
X132961D01*
Y4024D01*
X138298D01*
Y8574D01*
D02*
G37*
%LPD*%
G36*
X70100Y157830D02*
X70100Y143437D01*
X72685Y142231D01*
X84646Y142231D01*
X85433Y141444D01*
Y139869D01*
X84646Y139081D01*
X75590D01*
X71479Y139081D01*
X60621Y143579D01*
X59840Y144360D01*
X59840Y147660D01*
X58440Y149060D01*
X58440Y158410D01*
X60090Y160060D01*
X67870Y160060D01*
X70100Y157830D01*
D02*
G37*
G36*
X85433Y137795D02*
X86614Y136614D01*
X86614Y135433D01*
X89764Y132283D01*
Y111024D01*
X88976Y110236D01*
X81890Y110236D01*
X81102Y111024D01*
Y114567D01*
X77165Y114567D01*
X66929Y114567D01*
X64961Y116535D01*
X64961Y126772D01*
X66929Y128740D01*
X73622Y128740D01*
X74803Y129921D01*
X74803Y134252D01*
X74803Y137402D01*
X75197Y137795D01*
X85433Y137795D01*
D02*
G37*
G36*
X103937Y137402D02*
X103937Y127559D01*
X103543Y127165D01*
X91339Y127165D01*
X90945Y127559D01*
X90945Y137402D01*
X91339Y137795D01*
X103543D01*
X103937Y137402D01*
D02*
G37*
G36*
X154724Y210630D02*
X155118Y210236D01*
X155118Y201575D01*
X164567Y201575D01*
X165354Y200787D01*
X165354Y190158D01*
X164569Y189372D01*
X148819D01*
X111811Y173228D01*
X111811Y113779D01*
X108661Y110630D01*
X91732Y110630D01*
X91339Y111024D01*
X91339Y125984D01*
X102272Y125984D01*
X102321Y125484D01*
X102299Y125480D01*
X101577Y124998D01*
X101095Y124276D01*
X101075Y124175D01*
X105224D01*
X105204Y124276D01*
X104722Y124998D01*
X104001Y125480D01*
X103978Y125484D01*
X104027Y125984D01*
X106299D01*
X106299Y145669D01*
X103937Y148031D01*
X92913Y148032D01*
X92520Y148425D01*
X92520Y153149D01*
X92913Y153543D01*
X98425Y153543D01*
X98425Y164961D01*
X96457Y166929D01*
Y173228D01*
X96850Y173622D01*
X110039Y176575D01*
X148819Y194677D01*
X148819Y210236D01*
X149213Y210630D01*
X154724Y210630D01*
D02*
G37*
%LPC*%
G36*
X164425Y200902D02*
X162304D01*
Y196419D01*
X164425D01*
Y200902D01*
D02*
G37*
G36*
X160804D02*
X158684D01*
Y196419D01*
X160804D01*
Y200902D01*
D02*
G37*
G36*
X164425Y194919D02*
X162304D01*
Y190437D01*
X164425D01*
Y194919D01*
D02*
G37*
G36*
X160804D02*
X158684D01*
Y190437D01*
X160804D01*
Y194919D01*
D02*
G37*
G36*
X111236Y173047D02*
X105081D01*
Y170829D01*
X111236D01*
Y173047D01*
D02*
G37*
G36*
X103581D02*
X97425D01*
Y170829D01*
X103581D01*
Y173047D01*
D02*
G37*
G36*
X111236Y169329D02*
X105081D01*
Y167110D01*
X111236D01*
Y169329D01*
D02*
G37*
G36*
X103581D02*
X97425D01*
Y167110D01*
X103581D01*
Y169329D01*
D02*
G37*
G36*
X103953Y152791D02*
X99274D01*
Y151557D01*
X103953D01*
Y152791D01*
D02*
G37*
G36*
X97774D02*
X93094D01*
Y151557D01*
X97774D01*
Y152791D01*
D02*
G37*
G36*
X103953Y150057D02*
X99274D01*
Y148823D01*
X103953D01*
Y150057D01*
D02*
G37*
G36*
X97774D02*
X93094D01*
Y148823D01*
X97774D01*
Y150057D01*
D02*
G37*
G36*
X105224Y122675D02*
X101075D01*
X101095Y122574D01*
X101577Y121853D01*
Y121848D01*
X101095Y121127D01*
X101075Y121026D01*
X105224D01*
X105204Y121127D01*
X104722Y121848D01*
Y121853D01*
X105204Y122574D01*
X105224Y122675D01*
D02*
G37*
G36*
Y119526D02*
X101075D01*
X101095Y119425D01*
X101577Y118703D01*
Y118699D01*
X101095Y117977D01*
X101075Y117876D01*
X105224D01*
X105204Y117977D01*
X104722Y118699D01*
Y118703D01*
X105204Y119425D01*
X105224Y119526D01*
D02*
G37*
G36*
Y116376D02*
X101075D01*
X101095Y116275D01*
X101577Y115553D01*
Y115549D01*
X101095Y114827D01*
X101075Y114726D01*
X105224D01*
X105204Y114827D01*
X104722Y115549D01*
Y115553D01*
X105204Y116275D01*
X105224Y116376D01*
D02*
G37*
G36*
Y113226D02*
X103900D01*
Y111902D01*
X104001Y111922D01*
X104722Y112404D01*
X105204Y113125D01*
X105224Y113226D01*
D02*
G37*
G36*
X102400D02*
X101075D01*
X101095Y113125D01*
X101577Y112404D01*
X102299Y111922D01*
X102400Y111902D01*
Y113226D01*
D02*
G37*
%LPD*%
G36*
X251177Y142570D02*
X257412Y142570D01*
X257563Y142070D01*
X257297Y141893D01*
X256816Y141171D01*
X256795Y141070D01*
X258870D01*
Y140320D01*
X259620D01*
Y138245D01*
X259721Y138266D01*
X260442Y138748D01*
X260446Y138752D01*
X261159Y138276D01*
X261260Y138255D01*
Y140330D01*
X262760D01*
Y138255D01*
X262861Y138276D01*
X263120Y138449D01*
X263620Y138181D01*
X263620Y132250D01*
X262937Y131567D01*
X258015Y131605D01*
X257350Y132270D01*
X257350Y136510D01*
X253110Y140750D01*
X249990D01*
X249981Y145106D01*
X250334Y145460D01*
X251160D01*
X251177Y142570D01*
D02*
G37*
G36*
X156299Y26772D02*
X156299Y23622D01*
X155118Y22441D01*
X155118Y13780D01*
X154724Y13386D01*
X151181Y13386D01*
X150787Y13780D01*
Y26772D01*
X151181Y27165D01*
X155905Y27165D01*
X156299Y26772D01*
D02*
G37*
%LPC*%
G36*
X258120Y139570D02*
X256795D01*
X256816Y139469D01*
X257297Y138748D01*
X258019Y138266D01*
X258120Y138245D01*
Y139570D01*
D02*
G37*
%LPD*%
G36*
X285013Y136887D02*
X285586Y136649D01*
X286102Y136305D01*
X286541Y135866D01*
X286886Y135350D01*
X287123Y134777D01*
X287244Y134169D01*
Y133858D01*
Y133548D01*
X287123Y132940D01*
X286886Y132366D01*
X286541Y131851D01*
X286102Y131412D01*
X285586Y131067D01*
X285013Y130830D01*
X284405Y130709D01*
X283784D01*
X283176Y130830D01*
X282603Y131067D01*
X282087Y131412D01*
X281648Y131851D01*
X281303Y132366D01*
X281066Y132940D01*
X280945Y133548D01*
Y133858D01*
Y134169D01*
X281066Y134777D01*
X281303Y135350D01*
X281648Y135866D01*
X282087Y136305D01*
X282603Y136649D01*
X283176Y136887D01*
X283784Y137008D01*
X284405D01*
X285013Y136887D01*
D02*
G37*
G36*
X273017Y116312D02*
X273017Y106076D01*
X272623Y105682D01*
X267111Y105682D01*
X261993D01*
X260024Y107651D01*
X250182D01*
X249788Y108044D01*
X249788Y116312D01*
X250576Y117099D01*
X272229D01*
X273017Y116312D01*
D02*
G37*
G36*
X143307Y27165D02*
X143307Y13780D01*
X142913Y13386D01*
X139370Y13386D01*
X138976Y13780D01*
X138976Y22441D01*
X138189Y23228D01*
Y27165D01*
X138583Y27559D01*
X142913Y27559D01*
X143307Y27165D01*
D02*
G37*
%LPC*%
G36*
X79490Y12085D02*
Y10760D01*
X80815D01*
X80795Y10861D01*
X80313Y11582D01*
X79591Y12065D01*
X79490Y12085D01*
D02*
G37*
G36*
X77990D02*
X77889Y12065D01*
X77167Y11582D01*
X76686Y10861D01*
X76665Y10760D01*
X77990D01*
Y12085D01*
D02*
G37*
G36*
X80815Y9260D02*
X76665D01*
X76686Y9159D01*
X77167Y8438D01*
X77341Y8322D01*
Y7822D01*
X77118Y7672D01*
X76635Y6951D01*
X76615Y6850D01*
X80765D01*
X80745Y6951D01*
X80263Y7672D01*
X80089Y7788D01*
Y8288D01*
X80313Y8438D01*
X80795Y9159D01*
X80815Y9260D01*
D02*
G37*
G36*
X80765Y5350D02*
X79440D01*
Y4025D01*
X79541Y4045D01*
X80263Y4527D01*
X80745Y5249D01*
X80765Y5350D01*
D02*
G37*
G36*
X77940D02*
X76615D01*
X76635Y5249D01*
X77118Y4527D01*
X77839Y4045D01*
X77940Y4025D01*
Y5350D01*
D02*
G37*
G36*
X108244Y32693D02*
X105791D01*
Y31421D01*
X108244D01*
Y32693D01*
D02*
G37*
G36*
X110300Y30945D02*
Y29620D01*
X111625D01*
X111604Y29721D01*
X111123Y30443D01*
X110401Y30924D01*
X110300Y30945D01*
D02*
G37*
G36*
X108800D02*
X108699Y30924D01*
X107977Y30443D01*
X107495Y29721D01*
X107475Y29620D01*
X108800D01*
Y30945D01*
D02*
G37*
G36*
X111625Y28120D02*
X110300D01*
Y26795D01*
X110401Y26815D01*
X111123Y27297D01*
X111604Y28019D01*
X111625Y28120D01*
D02*
G37*
G36*
X108800D02*
X107475D01*
X107495Y28019D01*
X107977Y27297D01*
X108699Y26815D01*
X108800Y26795D01*
Y28120D01*
D02*
G37*
G36*
X107560Y25875D02*
Y24550D01*
X108885D01*
X108865Y24651D01*
X108382Y25372D01*
X107661Y25855D01*
X107560Y25875D01*
D02*
G37*
G36*
X106060D02*
X105959Y25855D01*
X105237Y25372D01*
X104755Y24651D01*
X104735Y24550D01*
X106060D01*
Y25875D01*
D02*
G37*
G36*
X108885Y23050D02*
X107560D01*
Y21725D01*
X107661Y21745D01*
X108382Y22228D01*
X108865Y22949D01*
X108885Y23050D01*
D02*
G37*
G36*
X106060D02*
X104735D01*
X104755Y22949D01*
X105237Y22228D01*
X105959Y21745D01*
X106060Y21725D01*
Y23050D01*
D02*
G37*
G36*
X103126Y20744D02*
X101854D01*
Y18291D01*
X103126D01*
Y20744D01*
D02*
G37*
G36*
X354277Y150598D02*
Y148373D01*
X356502D01*
X356496Y148419D01*
X356189Y149160D01*
X355700Y149796D01*
X355064Y150285D01*
X354322Y150592D01*
X354277Y150598D01*
D02*
G37*
G36*
X352777D02*
X352731Y150592D01*
X351990Y150285D01*
X351354Y149796D01*
X350865Y149160D01*
X350558Y148419D01*
X350552Y148373D01*
X352777D01*
Y150598D01*
D02*
G37*
G36*
X339387Y150596D02*
X338617Y150495D01*
X337900Y150198D01*
X337285Y149725D01*
X336812Y149109D01*
X336515Y148393D01*
X336414Y147623D01*
X336515Y146854D01*
X336812Y146137D01*
X337285Y145521D01*
X337900Y145049D01*
X338617Y144752D01*
X339387Y144650D01*
X340156Y144752D01*
X340873Y145049D01*
X341489Y145521D01*
X341961Y146137D01*
X342258Y146854D01*
X342359Y147623D01*
X342258Y148393D01*
X341961Y149109D01*
X341489Y149725D01*
X340873Y150198D01*
X340156Y150495D01*
X339387Y150596D01*
D02*
G37*
G36*
X356502Y146873D02*
X354277D01*
Y144648D01*
X354322Y144654D01*
X355064Y144961D01*
X355700Y145450D01*
X356189Y146086D01*
X356496Y146828D01*
X356502Y146873D01*
D02*
G37*
G36*
X352777D02*
X350552D01*
X350558Y146828D01*
X350865Y146086D01*
X351354Y145450D01*
X351990Y144961D01*
X352731Y144654D01*
X352777Y144648D01*
Y146873D01*
D02*
G37*
G36*
X339383Y136455D02*
X338614Y136354D01*
X337897Y136057D01*
X337281Y135584D01*
X336809Y134969D01*
X336512Y134252D01*
X336411Y133483D01*
X336480Y132958D01*
X331780Y128259D01*
X331416Y127713D01*
X331288Y127069D01*
Y50963D01*
X331416Y50319D01*
X331780Y49773D01*
X333768Y47785D01*
X333866Y47294D01*
X334326Y46606D01*
X335014Y46146D01*
X335826Y45985D01*
X336638Y46146D01*
X337327Y46606D01*
X337787Y47294D01*
X337948Y48106D01*
X337787Y48918D01*
X337327Y49607D01*
X336638Y50067D01*
X336148Y50164D01*
X334652Y51660D01*
Y126373D01*
X338859Y130579D01*
X339383Y130510D01*
X340153Y130611D01*
X340870Y130908D01*
X341485Y131380D01*
X341958Y131996D01*
X342255Y132713D01*
X342356Y133483D01*
X342255Y134252D01*
X341958Y134969D01*
X341485Y135584D01*
X340870Y136057D01*
X340153Y136354D01*
X339383Y136455D01*
D02*
G37*
G36*
X344991Y117235D02*
X338867D01*
Y111111D01*
X340247D01*
Y108156D01*
X339132D01*
Y103656D01*
X344332D01*
Y108156D01*
X343612D01*
Y111111D01*
X344991D01*
Y117235D01*
D02*
G37*
G36*
X343982Y99740D02*
X339482D01*
Y94541D01*
X343982D01*
Y95458D01*
X344969D01*
Y94576D01*
X350306D01*
Y98731D01*
X347610D01*
X347151Y98823D01*
X343982D01*
Y99740D01*
D02*
G37*
G36*
X353259Y117235D02*
X347135D01*
Y111111D01*
X348515D01*
Y110311D01*
X348643Y109667D01*
X349007Y109121D01*
X349511Y108617D01*
X349320Y108156D01*
X345432D01*
Y103656D01*
X348253D01*
X350672Y101236D01*
X350770Y100745D01*
X351230Y100057D01*
X351918Y99597D01*
X352730Y99436D01*
X353542Y99597D01*
X354230Y100057D01*
X354690Y100745D01*
X354852Y101557D01*
X354690Y102369D01*
X354230Y103058D01*
X353542Y103518D01*
X353051Y103615D01*
X350632Y106035D01*
Y106843D01*
X351094Y107035D01*
X355404Y102724D01*
Y94991D01*
X354418D01*
Y90835D01*
X359755D01*
Y94991D01*
X358769D01*
Y103421D01*
X358769Y103421D01*
X358641Y104065D01*
X358276Y104611D01*
X358276Y104611D01*
X352276Y110611D01*
X352483Y111111D01*
X353259D01*
Y117235D01*
D02*
G37*
G36*
X350606Y91551D02*
X348388D01*
Y89923D01*
X350606D01*
Y91551D01*
D02*
G37*
G36*
X346888D02*
X344669D01*
Y89923D01*
X346888D01*
Y91551D01*
D02*
G37*
G36*
X365170Y45205D02*
Y43880D01*
X366495D01*
X366475Y43981D01*
X365992Y44703D01*
X365271Y45185D01*
X365170Y45205D01*
D02*
G37*
G36*
X363670D02*
X363569Y45185D01*
X362847Y44703D01*
X362366Y43981D01*
X362345Y43880D01*
X363670D01*
Y45205D01*
D02*
G37*
G36*
X320310Y117132D02*
X319498Y116970D01*
X318810Y116510D01*
X318350Y115822D01*
X318188Y115010D01*
X318350Y114198D01*
X318773Y113564D01*
X318826Y113381D01*
Y112998D01*
X318710Y112920D01*
X318250Y112232D01*
X318152Y111741D01*
X303060Y96650D01*
X302696Y96104D01*
X302568Y95460D01*
Y74678D01*
X302310Y74292D01*
X302148Y73480D01*
X302310Y72668D01*
X302770Y71980D01*
X303458Y71520D01*
X304270Y71358D01*
X304719Y71447D01*
X305219Y71056D01*
Y54861D01*
X304590Y54440D01*
X304130Y53752D01*
X303968Y52940D01*
X304130Y52128D01*
X304590Y51440D01*
X305278Y50980D01*
X306090Y50818D01*
X306902Y50980D01*
X307590Y51440D01*
X308050Y52128D01*
X308156Y52659D01*
X308455Y53107D01*
X308583Y53751D01*
X308583Y53751D01*
Y81521D01*
X308841Y81907D01*
X309003Y82719D01*
X308841Y83531D01*
X308382Y84220D01*
X307693Y84680D01*
X306881Y84841D01*
X306432Y84752D01*
X305932Y85144D01*
Y94763D01*
X320531Y109362D01*
X321022Y109460D01*
X321710Y109920D01*
X321952Y110282D01*
X322590Y110351D01*
X325098Y107843D01*
Y44800D01*
X323937Y43639D01*
X323188Y43490D01*
X322500Y43030D01*
X322040Y42342D01*
X321878Y41530D01*
X322040Y40718D01*
X322500Y40030D01*
X323188Y39570D01*
X324000Y39408D01*
X324812Y39570D01*
X325500Y40030D01*
X325960Y40718D01*
X326007Y40950D01*
X327970Y42913D01*
X328334Y43459D01*
X328462Y44103D01*
Y108540D01*
X328334Y109184D01*
X327970Y109730D01*
X322368Y115331D01*
X322270Y115822D01*
X321810Y116510D01*
X321122Y116970D01*
X320310Y117132D01*
D02*
G37*
G36*
X343982Y93441D02*
X339482D01*
Y88240D01*
X339638D01*
Y43247D01*
X323911Y27520D01*
X323253Y27389D01*
X313924D01*
X313771Y27506D01*
Y28006D01*
X313969Y28157D01*
X314542Y28905D01*
X314902Y29775D01*
X315025Y30709D01*
X314902Y31642D01*
X314542Y32513D01*
X313969Y33260D01*
X313771Y33411D01*
X313771Y33911D01*
X313969Y34063D01*
X314542Y34810D01*
X314902Y35680D01*
X315025Y36614D01*
X314902Y37548D01*
X314542Y38418D01*
X313969Y39165D01*
X313771Y39317D01*
X313771Y39817D01*
X313969Y39968D01*
X314542Y40716D01*
X314902Y41586D01*
X315025Y42520D01*
X314902Y43453D01*
X314542Y44324D01*
X313969Y45071D01*
X313221Y45644D01*
X312351Y46005D01*
X311417Y46128D01*
X310484Y46005D01*
X309613Y45644D01*
X308866Y45071D01*
X308293Y44324D01*
X307932Y43453D01*
X307809Y42520D01*
X307932Y41586D01*
X308293Y40716D01*
X308866Y39968D01*
X309064Y39817D01*
X309064Y39317D01*
X308866Y39165D01*
X308293Y38418D01*
X307932Y37548D01*
X307809Y36614D01*
X307932Y35680D01*
X308293Y34810D01*
X308866Y34063D01*
X309064Y33911D01*
X309064Y33411D01*
X308866Y33260D01*
X308293Y32513D01*
X307932Y31642D01*
X307809Y30709D01*
X307932Y29775D01*
X308293Y28905D01*
X308866Y28157D01*
X309064Y28006D01*
Y27506D01*
X308866Y27354D01*
X308293Y26607D01*
X307932Y25737D01*
X307809Y24803D01*
X307932Y23869D01*
X308293Y22999D01*
X308866Y22252D01*
X308981Y22163D01*
Y21663D01*
X308795Y21520D01*
X308205Y20752D01*
X307835Y19858D01*
X307807Y19648D01*
X311417D01*
X315027D01*
X315000Y19858D01*
X314629Y20752D01*
X314040Y21520D01*
X313853Y21663D01*
Y22163D01*
X313969Y22252D01*
X314542Y22999D01*
X314544Y23005D01*
X323967D01*
X324806Y23172D01*
X324918Y23246D01*
X325135D01*
X325228Y23265D01*
X325322Y23271D01*
X325363Y23292D01*
X325408Y23301D01*
X325487Y23353D01*
X325571Y23395D01*
X325865Y23622D01*
X325927Y23694D01*
X325998Y23756D01*
X326017Y23798D01*
X326048Y23832D01*
X326078Y23922D01*
X326119Y24007D01*
X326457Y25308D01*
X342510Y41360D01*
X342874Y41906D01*
X343002Y42550D01*
Y88240D01*
X343982D01*
Y93441D01*
D02*
G37*
G36*
X345100Y20520D02*
X343775D01*
X343795Y20419D01*
X344278Y19697D01*
X344999Y19216D01*
X345100Y19195D01*
Y20520D01*
D02*
G37*
G36*
X342870Y19275D02*
Y17950D01*
X344195D01*
X344175Y18051D01*
X343692Y18772D01*
X342971Y19255D01*
X342870Y19275D01*
D02*
G37*
G36*
X341370D02*
X341269Y19255D01*
X340547Y18772D01*
X340066Y18051D01*
X340045Y17950D01*
X341370D01*
Y19275D01*
D02*
G37*
G36*
X350606Y88423D02*
X347638D01*
X344669D01*
Y86795D01*
X345446D01*
Y24256D01*
X344300Y23110D01*
X343825Y22399D01*
X343749Y22020D01*
X345850D01*
Y21270D01*
X346600D01*
Y19078D01*
X352162D01*
X353740Y17500D01*
X354451Y17025D01*
X355290Y16858D01*
X356129Y17025D01*
X356840Y17500D01*
X356840Y17500D01*
X365970Y26630D01*
X366445Y27341D01*
X366612Y28180D01*
Y42380D01*
X362228D01*
Y29088D01*
X355290Y22150D01*
X354380Y23060D01*
X353669Y23535D01*
X352830Y23702D01*
X351991Y23535D01*
X351882Y23462D01*
X349830D01*
Y86795D01*
X350606D01*
Y88423D01*
D02*
G37*
G36*
X344195Y16450D02*
X342870D01*
Y15125D01*
X342971Y15145D01*
X343692Y15628D01*
X344175Y16349D01*
X344195Y16450D01*
D02*
G37*
G36*
X341370D02*
X340045D01*
X340066Y16349D01*
X340547Y15628D01*
X341269Y15145D01*
X341370Y15125D01*
Y16450D01*
D02*
G37*
G36*
X315027Y18148D02*
X311417D01*
X307807D01*
X307835Y17938D01*
X308205Y17043D01*
X308795Y16275D01*
X308981Y16132D01*
Y15632D01*
X308866Y15543D01*
X308293Y14796D01*
X307932Y13926D01*
X307809Y12992D01*
X307932Y12058D01*
X308293Y11188D01*
X308866Y10441D01*
X309613Y9867D01*
X310484Y9507D01*
X311417Y9384D01*
X312351Y9507D01*
X313221Y9867D01*
X313969Y10441D01*
X314542Y11188D01*
X314902Y12058D01*
X315025Y12992D01*
X314902Y13926D01*
X314542Y14796D01*
X313969Y15543D01*
X313853Y15632D01*
Y16132D01*
X314040Y16275D01*
X314629Y17043D01*
X315000Y17938D01*
X315027Y18148D01*
D02*
G37*
%LPD*%
G36*
X325428Y24187D02*
X325135Y23960D01*
X322140Y23960D01*
Y26440D01*
X324248Y26859D01*
X326350Y27730D01*
X325428Y24187D01*
D02*
G37*
D103*
X13878Y193701D02*
D03*
X202756Y14567D02*
D03*
D108*
X350197Y114173D02*
D03*
X341929D02*
D03*
D109*
X341732Y105905D02*
D03*
X348032D02*
D03*
X145125Y208398D02*
D03*
X151425D02*
D03*
X56461Y146063D02*
D03*
X62761D02*
D03*
X93308Y129528D02*
D03*
X87007D02*
D03*
X66680Y106520D02*
D03*
X60380D02*
D03*
X101575Y14961D02*
D03*
X95275D02*
D03*
X140552Y25197D02*
D03*
X134252D02*
D03*
X159843Y24803D02*
D03*
X153543D02*
D03*
X267330Y94570D02*
D03*
X273630D02*
D03*
X181495Y153543D02*
D03*
X187795D02*
D03*
X189604Y146634D02*
D03*
X195905D02*
D03*
X189541Y141555D02*
D03*
X195842D02*
D03*
X191732Y176772D02*
D03*
X185432D02*
D03*
X266850Y134080D02*
D03*
X260550D02*
D03*
X264173Y150787D02*
D03*
X270473D02*
D03*
X270472Y161417D02*
D03*
X276772D02*
D03*
X270472Y166142D02*
D03*
X276772D02*
D03*
X271890Y178310D02*
D03*
X265590D02*
D03*
X228550Y185100D02*
D03*
X222250D02*
D03*
D110*
X341732Y90841D02*
D03*
Y97141D02*
D03*
X205581Y99606D02*
D03*
Y105906D02*
D03*
Y111417D02*
D03*
Y117717D02*
D03*
X254331Y261417D02*
D03*
Y267717D02*
D03*
X248819Y261417D02*
D03*
Y267717D02*
D03*
X232673Y260585D02*
D03*
Y254285D02*
D03*
X227161Y260585D02*
D03*
Y254285D02*
D03*
X46457Y152756D02*
D03*
Y146456D02*
D03*
X128740Y17367D02*
D03*
Y11067D02*
D03*
X108661Y8267D02*
D03*
Y14567D02*
D03*
X263568Y102926D02*
D03*
Y109226D02*
D03*
X211520Y139690D02*
D03*
Y145990D02*
D03*
X220944Y130231D02*
D03*
Y123931D02*
D03*
X226062Y130231D02*
D03*
Y123931D02*
D03*
X231180Y130231D02*
D03*
Y123931D02*
D03*
X236298Y130231D02*
D03*
Y123931D02*
D03*
X236810Y200260D02*
D03*
Y193960D02*
D03*
D111*
X347638Y96653D02*
D03*
Y89173D02*
D03*
X357087Y92913D02*
D03*
X260236Y268307D02*
D03*
Y260827D02*
D03*
X269685Y264567D02*
D03*
X220866Y260039D02*
D03*
Y267520D02*
D03*
X211417Y263779D02*
D03*
X47244Y99803D02*
D03*
Y107283D02*
D03*
X37795Y103543D02*
D03*
X113779Y15005D02*
D03*
X123228Y18745D02*
D03*
Y11265D02*
D03*
D112*
X170610Y195669D02*
D03*
X179665D02*
D03*
X161555D02*
D03*
D113*
X170610Y218504D02*
D03*
D114*
X152025Y202098D02*
D03*
X144525D02*
D03*
X62411Y152362D02*
D03*
X54911D02*
D03*
X95069Y9055D02*
D03*
X102569D02*
D03*
D115*
X171752Y124016D02*
D03*
X162894D02*
D03*
X275197Y267717D02*
D03*
X284055D02*
D03*
X205118Y266929D02*
D03*
X196260D02*
D03*
X19927Y234203D02*
D03*
X28785D02*
D03*
D116*
X163510Y111115D02*
D03*
Y115445D02*
D03*
D117*
X173917Y115768D02*
D03*
Y110768D02*
D03*
Y105768D02*
D03*
Y100768D02*
D03*
X192224D02*
D03*
Y105768D02*
D03*
Y110768D02*
D03*
Y115748D02*
D03*
X98524Y135807D02*
D03*
Y140807D02*
D03*
Y145807D02*
D03*
Y150807D02*
D03*
X80216D02*
D03*
Y145807D02*
D03*
Y140807D02*
D03*
Y135827D02*
D03*
X236698Y109639D02*
D03*
Y104639D02*
D03*
Y99639D02*
D03*
Y94639D02*
D03*
X255005D02*
D03*
Y99639D02*
D03*
Y104639D02*
D03*
Y109619D02*
D03*
D118*
X187155Y124108D02*
D03*
Y131608D02*
D03*
X194242Y124108D02*
D03*
Y131608D02*
D03*
X88189Y6880D02*
D03*
Y14380D02*
D03*
X281670Y41860D02*
D03*
Y34360D02*
D03*
X274530Y61437D02*
D03*
Y68937D02*
D03*
X267444Y61437D02*
D03*
Y68937D02*
D03*
X260357Y61437D02*
D03*
Y68937D02*
D03*
X269473Y109038D02*
D03*
Y101538D02*
D03*
X188200Y197800D02*
D03*
Y190300D02*
D03*
X207261Y192600D02*
D03*
Y185100D02*
D03*
X214400Y192600D02*
D03*
Y185100D02*
D03*
D119*
X228937Y176575D02*
D03*
X230906D02*
D03*
X232874D02*
D03*
X234842D02*
D03*
X236811D02*
D03*
X238779D02*
D03*
X240748D02*
D03*
X242717D02*
D03*
X244685D02*
D03*
X246654D02*
D03*
X248622D02*
D03*
X250590D02*
D03*
X250590Y143110D02*
D03*
X248622D02*
D03*
X246654D02*
D03*
X244685D02*
D03*
X242717D02*
D03*
X240748D02*
D03*
X238779D02*
D03*
X236811D02*
D03*
X234842D02*
D03*
X232874D02*
D03*
X230906D02*
D03*
X228937D02*
D03*
D120*
X223031Y149016D02*
D03*
Y150984D02*
D03*
Y152953D02*
D03*
Y154921D02*
D03*
Y156890D02*
D03*
Y158858D02*
D03*
Y160827D02*
D03*
Y162795D02*
D03*
Y164764D02*
D03*
Y166732D02*
D03*
Y168701D02*
D03*
Y170669D02*
D03*
X256496Y149016D02*
D03*
Y150984D02*
D03*
Y152953D02*
D03*
Y154921D02*
D03*
Y156890D02*
D03*
Y158858D02*
D03*
Y160827D02*
D03*
Y162795D02*
D03*
Y164764D02*
D03*
Y166732D02*
D03*
Y168701D02*
D03*
Y170669D02*
D03*
D121*
X259842Y244016D02*
D03*
Y234016D02*
D03*
Y224016D02*
D03*
Y214016D02*
D03*
Y204016D02*
D03*
D122*
X31442Y243258D02*
D03*
X21206D02*
D03*
D123*
X123327Y199213D02*
D03*
X123366Y218898D02*
D03*
X87657Y199213D02*
D03*
X87697Y218898D02*
D03*
D124*
X85433Y170079D02*
D03*
X104331D02*
D03*
D125*
X28839Y219094D02*
D03*
Y168307D02*
D03*
D126*
X64075Y191142D02*
D03*
D127*
X93898Y118110D02*
D03*
X85630D02*
D03*
D128*
X72087Y121653D02*
D03*
X54685D02*
D03*
D129*
X71260Y56299D02*
D03*
X60236Y45276D02*
D03*
X65713D02*
D03*
X65784Y56299D02*
D03*
D130*
X71260Y45276D02*
D03*
X65748Y50787D02*
D03*
D03*
D03*
D03*
X60236Y50823D02*
D03*
X71260Y50752D02*
D03*
X60236Y56299D02*
D03*
D131*
X35354Y91142D02*
D03*
X40354D02*
D03*
X45354D02*
D03*
X50354D02*
D03*
X55354D02*
D03*
X60354D02*
D03*
X65354D02*
D03*
X70354D02*
D03*
X75354D02*
D03*
X80354D02*
D03*
X85354D02*
D03*
X90354D02*
D03*
X95354D02*
D03*
X100354D02*
D03*
D03*
Y22244D02*
D03*
D03*
D03*
X95354D02*
D03*
X90354D02*
D03*
X85354D02*
D03*
X80354D02*
D03*
X75354D02*
D03*
X70354D02*
D03*
X65354D02*
D03*
X60354D02*
D03*
X55354D02*
D03*
X50354D02*
D03*
X45354D02*
D03*
X40354D02*
D03*
X35354D02*
D03*
D132*
X104291Y79193D02*
D03*
Y74193D02*
D03*
Y69193D02*
D03*
Y64193D02*
D03*
Y59193D02*
D03*
Y54193D02*
D03*
Y49193D02*
D03*
Y44193D02*
D03*
Y39193D02*
D03*
Y34193D02*
D03*
D03*
D133*
X152953Y17323D02*
D03*
X141142D02*
D03*
D134*
X164370Y6299D02*
D03*
X135630D02*
D03*
X164370Y14567D02*
D03*
X135630D02*
D03*
D135*
X158858Y17323D02*
D03*
D136*
X177362Y29528D02*
D03*
X228150D02*
D03*
D137*
X205315Y64764D02*
D03*
D138*
X264173Y7677D02*
D03*
X274606D02*
D03*
D139*
X254724D02*
D03*
X244291D02*
D03*
D140*
X254331Y17815D02*
D03*
X256890D02*
D03*
X259449D02*
D03*
X262008D02*
D03*
X264567D02*
D03*
D141*
X247244Y18307D02*
D03*
X271654D02*
D03*
D142*
X254940Y42558D02*
D03*
X258680D02*
D03*
X262420D02*
D03*
Y33502D02*
D03*
X258680D02*
D03*
X254940D02*
D03*
D143*
X272620Y33461D02*
D03*
Y42319D02*
D03*
D144*
X201694Y173567D02*
D03*
X207819Y167442D02*
D03*
X197518Y157142D02*
D03*
X191394Y163266D02*
D03*
D145*
X211720Y146190D02*
Y149530D01*
X215531Y153341D01*
X211520Y145990D02*
X211720Y146190D01*
X215531Y153341D02*
X217589D01*
X246654Y138415D02*
Y143110D01*
X250630Y123334D02*
Y134438D01*
X246654Y138415D02*
X250630Y134438D01*
X280709Y79930D02*
X287177Y73461D01*
X274294Y120370D02*
X280709Y113956D01*
Y79930D02*
Y113956D01*
X274520Y122690D02*
X283071Y114139D01*
Y92976D02*
Y114139D01*
X283023Y89427D02*
Y92928D01*
X283071Y92976D01*
X283023Y89427D02*
X287177Y85272D01*
X195905Y141618D02*
Y146634D01*
X195842Y141555D02*
X195905Y141618D01*
X204364Y149244D02*
X213978Y158858D01*
X198865Y149244D02*
X204364D01*
X195905Y146634D02*
X196255D01*
X198865Y149244D01*
X213978Y158858D02*
X223031D01*
X217589Y153341D02*
X219169Y154921D01*
X223031D01*
X259919Y172320D02*
Y176659D01*
X261570Y178310D02*
X265590D01*
X259919Y176659D02*
X261570Y178310D01*
X258268Y170669D02*
X259919Y172320D01*
X256496Y170669D02*
X258268D01*
X90354Y22244D02*
Y30650D01*
X250630Y123334D02*
X251274Y122690D01*
X274520D01*
X248150Y122889D02*
X250669Y120370D01*
X248150Y122889D02*
Y134190D01*
X250669Y120370D02*
X274294D01*
X244685Y137655D02*
X248150Y134190D01*
X287177Y85272D02*
X287250D01*
X287177Y73461D02*
X287250D01*
X244810Y120784D02*
Y134984D01*
X242717Y137078D02*
X244810Y134984D01*
X242717Y137078D02*
Y143110D01*
X244685Y137655D02*
Y143110D01*
X226779Y105681D02*
X227038Y105940D01*
X227070D01*
X226779Y101240D02*
X227030D01*
X227220Y96090D02*
X230768Y99639D01*
X236698D01*
X227030Y101240D02*
X230429Y104639D01*
X236698D01*
X227070Y105940D02*
X230768Y109639D01*
X236698D01*
X219080Y104040D02*
X230390Y115350D01*
X236298Y115994D02*
Y123931D01*
X230390Y115350D02*
X235654D01*
X236298Y115994D01*
X221050Y103390D02*
X231210Y113550D01*
X237576D02*
X244810Y120784D01*
X231210Y113550D02*
X237576D01*
X221050Y91654D02*
Y103390D01*
X173550Y91010D02*
X220406D01*
X221050Y91654D01*
X169540Y93950D02*
X218436D01*
X219080Y94594D01*
Y104040D01*
X229210Y118320D02*
X231180Y120290D01*
Y123931D01*
X223090Y116160D02*
X226062Y119132D01*
Y123931D01*
X220944Y119354D02*
Y123931D01*
X218390Y116800D02*
X220944Y119354D01*
X128990Y53400D02*
X169540Y93950D01*
X240748Y134022D02*
Y143110D01*
X128990Y17617D02*
Y53400D01*
X128740Y17367D02*
X128990Y17617D01*
X159720Y77180D02*
X173550Y91010D01*
X159720Y24927D02*
Y77180D01*
Y24927D02*
X159843Y24803D01*
X231800Y134240D02*
X236811Y139251D01*
X231800Y130851D02*
Y134240D01*
X236811Y139251D02*
Y143110D01*
X231180Y130231D02*
X231800Y130851D01*
X226062Y133745D02*
X228390Y136073D01*
X230343D01*
X232874Y138604D01*
X226062Y130231D02*
Y133745D01*
X232874Y138604D02*
Y143110D01*
X238779Y136112D02*
Y143110D01*
X236298Y133631D02*
X238779Y136112D01*
X236298Y130231D02*
Y133631D01*
X123228Y11265D02*
X128543D01*
D146*
X326780Y44103D02*
Y108540D01*
X324000Y41530D02*
X324207D01*
X326780Y44103D01*
X350197Y110311D02*
X357087Y103421D01*
Y92913D02*
Y103421D01*
X348382Y105905D02*
X352730Y101557D01*
X348032Y105905D02*
X348382D01*
X332970Y50963D02*
X335826Y48106D01*
X332970Y50963D02*
Y127069D01*
X339383Y133483D01*
X341732Y105905D02*
X341929Y106103D01*
Y114173D01*
X341320Y42550D02*
Y90428D01*
X323967Y25197D02*
X341320Y42550D01*
Y90428D02*
X341732Y90841D01*
X320310Y115010D02*
X326780Y108540D01*
X306901Y53751D02*
Y82700D01*
X306881Y82719D02*
X306901Y82700D01*
X304250Y73500D02*
X304270Y73480D01*
X304250Y95460D02*
X320210Y111420D01*
X304250Y73500D02*
Y95460D01*
X306090Y52940D02*
X306901Y53751D01*
X320210Y111420D02*
Y111420D01*
X350197Y110311D02*
Y114173D01*
X347151Y97141D02*
X347638Y96653D01*
X341732Y97141D02*
X347151D01*
X205685Y106010D02*
X211220D01*
X205581Y105906D02*
X205685Y106010D01*
X205964Y118100D02*
X210750D01*
X205581Y117717D02*
X205964Y118100D01*
X281317Y148603D02*
Y148603D01*
X278890Y151030D02*
X281317Y148603D01*
X274115Y151030D02*
X278890D01*
X198153Y115748D02*
X200122Y117717D01*
X205581D01*
X192224Y115748D02*
X198153D01*
X273873Y150787D02*
X274115Y151030D01*
X270473Y150787D02*
X273873D01*
X272620Y42319D02*
X281211D01*
D147*
X345850Y21270D02*
X352590D01*
X352830Y21510D01*
X345850Y21270D02*
Y21560D01*
X347638Y23348D01*
X352830Y21510D02*
X353950Y20390D01*
X355290Y19050D01*
X364420Y28180D01*
X347638Y23348D02*
Y89173D01*
X364420Y28180D02*
Y43130D01*
X311811Y25197D02*
X323967D01*
X311417Y24803D02*
X311811Y25197D01*
X76772Y162902D02*
Y165354D01*
X80778Y169360D02*
X84715D01*
X85433Y170079D01*
X76772Y165354D02*
X80778Y169360D01*
X189541Y146571D02*
X189604Y146634D01*
X289670Y41860D02*
X289680Y41870D01*
D148*
X260236Y260827D02*
X260480Y260583D01*
Y252240D02*
Y260583D01*
X134252Y28247D02*
Y32283D01*
X134252Y28247D02*
X134252Y28247D01*
X134252Y25197D02*
Y28247D01*
X260236Y260827D02*
X260236Y260827D01*
X254881Y260827D02*
X260236D01*
X254331Y261377D02*
X254881Y260827D01*
X254331Y261377D02*
Y261417D01*
X203310Y135740D02*
Y144590D01*
X204710Y145990D01*
X211520D01*
X265800Y178520D02*
Y185460D01*
X265590Y178310D02*
X265800Y178520D01*
X35354Y86689D02*
X41403Y80640D01*
X84410D02*
X93560Y71490D01*
X41403Y80640D02*
X84410D01*
X93560Y40472D02*
Y71490D01*
Y40472D02*
X99839Y34193D01*
X104291D01*
X35354Y86689D02*
Y91142D01*
X69030Y15880D02*
X82689D01*
X84189Y14380D01*
X88189D01*
X81560Y106520D02*
X81695Y106655D01*
X70080Y106520D02*
X81560D01*
X66680D02*
X70080D01*
X47835Y99803D02*
X54552Y106520D01*
X60380D01*
X47244Y99803D02*
X47835D01*
X258680Y28238D02*
Y33502D01*
X24409Y120866D02*
X34766Y110510D01*
Y105982D02*
Y110510D01*
Y105982D02*
X37205Y103543D01*
X37795D01*
X48819Y135827D02*
X51575D01*
X46063Y146063D02*
X46457Y146456D01*
X46063Y138583D02*
X48819Y135827D01*
X46063Y138583D02*
Y146063D01*
X24409Y138583D02*
X32283Y146456D01*
X46457D01*
D149*
X179134Y139294D02*
Y140091D01*
X140779Y138189D02*
X174803D01*
X104690Y102100D02*
X140779Y138189D01*
X174100Y134260D02*
X179134Y139294D01*
X141510Y134260D02*
X174100D01*
X105800Y98550D02*
X141510Y134260D01*
X237360Y205720D02*
X245815Y197265D01*
X232530Y260378D02*
X236891D01*
X237360Y259909D01*
Y205720D02*
Y259909D01*
X238860Y206690D02*
X248190Y197360D01*
X238860Y251108D02*
X248819Y261067D01*
X238860Y206690D02*
Y251108D01*
X263280Y167960D02*
X265370D01*
X262052Y166732D02*
X263280Y167960D01*
X248190Y184390D02*
Y197360D01*
X244685Y180885D02*
X248190Y184390D01*
X245815Y184146D02*
Y197265D01*
X242775Y176633D02*
Y181106D01*
X245815Y184146D01*
X242717Y176575D02*
X242775Y176633D01*
X218806Y149016D02*
X223031D01*
X216629Y145989D02*
Y146839D01*
X218806Y149016D01*
X216330Y145690D02*
X216629Y145989D01*
X219380Y143110D02*
X228937D01*
X216730Y140460D02*
X219380Y143110D01*
X216250Y140460D02*
X216730D01*
X210730Y87110D02*
X273161D01*
X273630Y87579D02*
Y94570D01*
X273161Y87110D02*
X273630Y87579D01*
X57830Y98550D02*
X105800D01*
X94060Y102100D02*
X104690D01*
X55354Y96074D02*
X57830Y98550D01*
X55354Y91142D02*
Y96074D01*
X50354Y91142D02*
Y95600D01*
X56824Y102070D02*
X94030D01*
X94060Y102100D01*
X50354Y95600D02*
X56824Y102070D01*
X195774Y173080D02*
X201207D01*
X191732Y176772D02*
X192082D01*
X195774Y173080D01*
X201207D02*
X201694Y173567D01*
X205077Y176950D01*
X210310D01*
X215470Y171790D01*
Y164270D02*
Y171790D01*
Y164270D02*
X216945Y162795D01*
X223031D01*
X191257Y156655D02*
X197031D01*
X187795Y153543D02*
X188145D01*
X191257Y156655D01*
X197031D02*
X197518Y157142D01*
X200920Y153740D02*
X206040D01*
X197518Y157142D02*
X200920Y153740D01*
X206040D02*
X213127Y160827D01*
X223031D01*
X231310Y189880D02*
X232874Y188316D01*
Y176575D02*
Y188316D01*
X253021Y183280D02*
X254380D01*
X246330Y234016D02*
X259842D01*
X244110Y224016D02*
X259842D01*
X242374Y214016D02*
X259842D01*
X256496Y166732D02*
X262052D01*
X250890Y184216D02*
Y186000D01*
X248622Y176575D02*
Y181932D01*
X248649Y181975D02*
X250890Y184216D01*
X248622Y181932D02*
X248649Y181959D01*
Y181975D01*
X244685Y176575D02*
Y180885D01*
X250590Y180850D02*
X253021Y183280D01*
X250590Y176575D02*
Y180850D01*
X248819Y261067D02*
Y261417D01*
X243200Y184950D02*
Y186800D01*
X240748Y176575D02*
Y182498D01*
X243200Y184950D01*
X238779Y176575D02*
X238779Y176575D01*
X238779Y176575D02*
X239192Y186800D01*
D150*
X255005Y94639D02*
X255073Y94570D01*
X267330D01*
X205724Y111280D02*
X215570D01*
X205584Y111420D02*
X205724Y111280D01*
X230335Y138540D02*
X230921Y139126D01*
Y143094D01*
X222590Y138540D02*
X230335D01*
X230906Y143110D02*
X230921Y143094D01*
X220944Y130231D02*
Y136894D01*
X222590Y138540D01*
X205715Y99740D02*
X212270D01*
X205581Y99606D02*
X205715Y99740D01*
X205581Y111417D02*
X205584Y111420D01*
X171752Y124040D02*
X187087D01*
X187155Y124108D01*
X201319Y111417D02*
X205581D01*
X202531Y99606D02*
X205581D01*
X128543Y11265D02*
X128740Y11067D01*
X201369Y100768D02*
X202531Y99606D01*
X192224Y100768D02*
X201369D01*
X195669Y105768D02*
X201319Y111417D01*
X192224Y105768D02*
X195669D01*
X256496Y154921D02*
X256537Y154880D01*
X264173Y150787D02*
Y154294D01*
X263587Y154880D02*
X264173Y154294D01*
X256537Y154880D02*
X263587D01*
X236810Y193960D02*
X236811Y176575D01*
D151*
X258680Y42558D02*
Y47820D01*
X157960Y110270D02*
X162462Y105768D01*
X173917D01*
X157960Y110270D02*
Y116893D01*
X162894Y121827D01*
Y124016D01*
X137402Y116142D02*
X145276Y124016D01*
X162894D01*
X163510Y111115D02*
X167641D01*
X167988Y110768D01*
X173917D01*
X167666Y115445D02*
X167988Y115768D01*
X163510Y115445D02*
X167666D01*
X167988Y115768D02*
X173917D01*
X256505Y162786D02*
X260384D01*
X261753Y161417D02*
X270472D01*
X260384Y162786D02*
X261753Y161417D01*
X256496Y162795D02*
X256505Y162786D01*
X256496Y164809D02*
X263300D01*
X263323Y164787D02*
X268767D01*
X270122Y166142D02*
X270472D01*
X268767Y164787D02*
X270122Y166142D01*
X263300Y164809D02*
X263323Y164787D01*
X264567Y22557D02*
X272620Y30610D01*
X264567Y17815D02*
Y22557D01*
X272620Y30610D02*
Y33461D01*
X281211Y42319D02*
X281670Y41860D01*
D152*
X194242Y124108D02*
X202692D01*
X187155D02*
X194242D01*
X58400Y207900D02*
Y213290D01*
X41900Y229790D02*
X58400Y213290D01*
X35584Y229790D02*
X41900D01*
X31171Y234203D02*
X35584Y229790D01*
X28785Y234203D02*
X31171D01*
D153*
X247310Y244080D02*
X247374Y244016D01*
X281670Y41860D02*
X289670D01*
D154*
X247374Y244016D02*
X259842D01*
D155*
X283830Y166030D02*
X283910D01*
X282817Y165017D02*
X283830Y166030D01*
X278799Y165017D02*
X282817D01*
X276772Y166142D02*
X277584Y165330D01*
X278486D02*
X278799Y165017D01*
X277584Y165330D02*
X278486D01*
X259449Y17815D02*
Y22791D01*
X254977Y47818D02*
Y49041D01*
X243960Y60133D02*
X254787Y49305D01*
Y49230D02*
X254977Y49041D01*
X254787Y49230D02*
Y49305D01*
X241810Y81670D02*
X243960Y79520D01*
Y60133D02*
Y79520D01*
X237510Y81670D02*
X241810D01*
X254940Y47781D02*
X254977Y47818D01*
X254940Y27300D02*
X259449Y22791D01*
X254940Y33502D02*
Y42558D01*
Y47781D01*
Y27300D02*
Y33502D01*
X283438Y162542D02*
X283850Y162130D01*
X278799Y162542D02*
X283438D01*
X283850Y162130D02*
X283930D01*
X278486Y162230D02*
X278799Y162542D01*
X277584Y162230D02*
X278486D01*
X276772Y161417D02*
X277584Y162230D01*
X262420Y33502D02*
Y42558D01*
Y50595D01*
X262057Y33140D02*
X262420Y33502D01*
X246436Y61158D02*
X256135Y51459D01*
X246436Y61158D02*
Y80546D01*
X237510Y84146D02*
X242835D01*
X246436Y80546D01*
X261556Y51459D02*
X262420Y50595D01*
X262057Y17864D02*
Y33140D01*
X256135Y51459D02*
X261556D01*
X262008Y17815D02*
X262057Y17864D01*
D156*
X252756Y359764D02*
X260315Y367323D01*
X252756Y349213D02*
Y359764D01*
X199134Y359685D02*
X206772Y367323D01*
X199134Y348976D02*
Y359685D01*
D157*
X151390Y334043D02*
X159843Y325590D01*
X151390Y357689D02*
X161811Y368110D01*
X151390Y334043D02*
Y357689D01*
X24090Y347735D02*
Y355610D01*
X64303Y342390D02*
X81102Y325590D01*
X29435Y342390D02*
X64303D01*
X24090Y347735D02*
X29435Y342390D01*
X24090Y375610D02*
X36201D01*
X43701Y368110D01*
D158*
X311417Y12992D02*
D03*
Y18898D02*
D03*
Y24803D02*
D03*
Y30709D02*
D03*
Y36614D02*
D03*
Y42520D02*
D03*
X287250Y61650D02*
D03*
Y67555D02*
D03*
Y73461D02*
D03*
Y79366D02*
D03*
Y85272D02*
D03*
Y91178D02*
D03*
D159*
X353527Y147623D02*
D03*
X339387D02*
D03*
X339383Y133483D02*
D03*
D160*
X137402Y96457D02*
D03*
Y116142D02*
D03*
X37402Y316535D02*
D03*
X17717D02*
D03*
X37402Y272441D02*
D03*
X17717D02*
D03*
D161*
X252756Y279213D02*
D03*
Y319213D02*
D03*
Y349213D02*
D03*
X282756Y279213D02*
D03*
Y339213D02*
D03*
X199134Y278976D02*
D03*
Y318976D02*
D03*
Y348976D02*
D03*
X229134Y278976D02*
D03*
Y338976D02*
D03*
D162*
X140157Y246850D02*
D03*
X81102Y325590D02*
D03*
X159843D02*
D03*
D163*
X100787Y246850D02*
D03*
D164*
X260315Y367323D02*
D03*
X280315D02*
D03*
X206772D02*
D03*
X226772D02*
D03*
X24090Y355610D02*
D03*
Y375610D02*
D03*
D165*
X161811Y368110D02*
D03*
X43701D02*
D03*
D166*
X56398Y198031D02*
D03*
D167*
X44193Y174803D02*
D03*
X202756Y32283D02*
D03*
D168*
X31594Y193701D02*
D03*
X221654Y44882D02*
D03*
D169*
X24409Y138583D02*
D03*
Y120866D02*
D03*
D170*
X198425Y57087D02*
D03*
D171*
X342120Y17200D02*
D03*
X345850Y21270D02*
D03*
X352730Y101557D02*
D03*
X335826Y48106D02*
D03*
X306881Y82719D02*
D03*
X320310Y115010D02*
D03*
X320210Y111420D02*
D03*
X304270Y73480D02*
D03*
X306090Y52940D02*
D03*
X324000Y41530D02*
D03*
X364420Y43130D02*
D03*
X260480Y252240D02*
D03*
X102840Y188010D02*
D03*
X148080Y48300D02*
D03*
X289250Y237980D02*
D03*
X225820Y240290D02*
D03*
X206693Y235827D02*
D03*
X122990Y24770D02*
D03*
X260270Y75610D02*
D03*
X267510Y75880D02*
D03*
X183400Y142470D02*
D03*
X183280Y147290D02*
D03*
X159130Y218390D02*
D03*
X137710Y202210D02*
D03*
X137850Y208610D02*
D03*
X96230Y218960D02*
D03*
X45230Y121610D02*
D03*
X54280Y111990D02*
D03*
X59640Y131300D02*
D03*
X56340Y140300D02*
D03*
X54860Y159500D02*
D03*
X127090Y169420D02*
D03*
X147700Y158430D02*
D03*
X88930Y145110D02*
D03*
X171120Y186770D02*
D03*
X187310Y170270D02*
D03*
X114680Y99620D02*
D03*
X178910Y130430D02*
D03*
X154190Y129570D02*
D03*
X154510Y99500D02*
D03*
X130190Y78160D02*
D03*
X281840Y27070D02*
D03*
X262500Y97940D02*
D03*
X274570Y75880D02*
D03*
X276240Y112150D02*
D03*
X231270Y154510D02*
D03*
X249050Y150220D02*
D03*
X248930Y168070D02*
D03*
X231580Y168260D02*
D03*
X202470Y130080D02*
D03*
X266840Y127470D02*
D03*
X211660Y133960D02*
D03*
X270800Y203890D02*
D03*
X271820Y173730D02*
D03*
X197740Y184790D02*
D03*
X215640Y178920D02*
D03*
X228990Y205170D02*
D03*
X180990Y218580D02*
D03*
X134252Y32283D02*
D03*
X76772Y162902D02*
D03*
X179134Y140091D02*
D03*
X174803Y138189D02*
D03*
X265370Y167960D02*
D03*
X226960Y266970D02*
D03*
X213386Y203937D02*
D03*
X208661D02*
D03*
X203937D02*
D03*
X199213D02*
D03*
X194488D02*
D03*
X189764D02*
D03*
X203310Y135740D02*
D03*
X216330Y145690D02*
D03*
X216250Y140460D02*
D03*
X265800Y185460D02*
D03*
X90354Y30650D02*
D03*
X102070Y28760D02*
D03*
X106810Y23800D02*
D03*
X109550Y28870D02*
D03*
X69030Y15880D02*
D03*
X294020Y61260D02*
D03*
X226779Y105681D02*
D03*
Y101240D02*
D03*
X227220Y96090D02*
D03*
X229210Y118320D02*
D03*
X223090Y116160D02*
D03*
X218390Y116800D02*
D03*
X211220Y106010D02*
D03*
X215570Y111280D02*
D03*
X210750Y118100D02*
D03*
X240748Y134022D02*
D03*
X210730Y87110D02*
D03*
X212270Y99740D02*
D03*
X202692Y124108D02*
D03*
X81695Y106655D02*
D03*
X231310Y189880D02*
D03*
X254380Y183280D02*
D03*
X242374Y214016D02*
D03*
X244110Y224016D02*
D03*
X246330Y234016D02*
D03*
X250890Y186000D02*
D03*
X247374Y244016D02*
D03*
X243200Y186800D02*
D03*
X269685Y268898D02*
D03*
X281317Y148603D02*
D03*
X258680Y28238D02*
D03*
X58268Y180709D02*
D03*
X61750Y158610D02*
D03*
X67250Y157830D02*
D03*
X239192Y186800D02*
D03*
X111600Y18800D02*
D03*
X78690Y6100D02*
D03*
X78740Y10010D02*
D03*
X258870Y140320D02*
D03*
X262010Y140330D02*
D03*
X259740Y56660D02*
D03*
X280660Y58490D02*
D03*
X269079Y114737D02*
D03*
X263568D02*
D03*
X257662D02*
D03*
X252544D02*
D03*
X103150Y113976D02*
D03*
X69900Y141720D02*
D03*
X68620Y150240D02*
D03*
X289680Y41870D02*
D03*
X103150Y123425D02*
D03*
Y117126D02*
D03*
Y120276D02*
D03*
X51575Y135827D02*
D03*
X66535Y180709D02*
D03*
X62205D02*
D03*
X66142Y207874D02*
D03*
X62205D02*
D03*
X58400Y207900D02*
D03*
D172*
X258680Y47820D02*
D03*
X237510Y81670D02*
D03*
Y84146D02*
D03*
X283910Y166030D02*
D03*
X283930Y162130D02*
D03*
M02*
