G04*
G04 #@! TF.GenerationSoftware,Altium Limited,Altium Designer,20.0.10 (225)*
G04*
G04 Layer_Color=255*
%FSLAX25Y25*%
%MOIN*%
G70*
G01*
G75*
%ADD103C,0.08268*%
%ADD108R,0.04724X0.04724*%
%ADD109R,0.03800X0.03100*%
%ADD110R,0.03100X0.03800*%
%ADD111R,0.03937X0.02756*%
%ADD112R,0.03740X0.08465*%
%ADD113R,0.12795X0.08465*%
%ADD114R,0.04500X0.05000*%
%ADD115R,0.01772X0.01378*%
%ADD116R,0.03937X0.01968*%
%ADD117R,0.08858X0.01968*%
%ADD118R,0.05000X0.04500*%
%ADD119R,0.01181X0.04724*%
%ADD120R,0.04724X0.01181*%
%ADD121R,0.08819X0.05551*%
%ADD122R,0.04331X0.07874*%
%ADD123R,0.04724X0.05984*%
%ADD124R,0.11811X0.03937*%
%ADD125R,0.24410X0.15354*%
%ADD126R,0.17323X0.12992*%
%ADD127R,0.05118X0.13386*%
%ADD128R,0.08500X0.10799*%
%ADD129R,0.03543X0.03543*%
%ADD130R,0.03543X0.03543*%
%ADD131R,0.03543X0.05906*%
%ADD132R,0.05906X0.03543*%
%ADD133R,0.02756X0.05906*%
%ADD134R,0.03937X0.03150*%
%ADD135R,0.02756X0.05906*%
%ADD136R,0.15354X0.24410*%
%ADD137R,0.12992X0.17323*%
%ADD138R,0.07480X0.07480*%
%ADD139R,0.07480X0.07480*%
%ADD140R,0.01575X0.05315*%
%ADD141R,0.08268X0.06299*%
%ADD142R,0.02362X0.04724*%
%ADD143R,0.01378X0.01772*%
G04:AMPARAMS|DCode=144|XSize=49.21mil|YSize=62.99mil|CornerRadius=0mil|HoleSize=0mil|Usage=FLASHONLY|Rotation=315.000|XOffset=0mil|YOffset=0mil|HoleType=Round|Shape=Rectangle|*
%AMROTATEDRECTD144*
4,1,4,-0.03967,-0.00487,0.00487,0.03967,0.03967,0.00487,-0.00487,-0.03967,-0.03967,-0.00487,0.0*
%
%ADD144ROTATEDRECTD144*%

%ADD158C,0.05354*%
%ADD159C,0.04095*%
%ADD160C,0.08504*%
%ADD161C,0.11024*%
%ADD162C,0.05669*%
%ADD163C,0.05039*%
%ADD164C,0.10709*%
%ADD165C,0.06299*%
%ADD166O,0.07087X0.14173*%
%ADD167O,0.15748X0.07874*%
%ADD168O,0.07874X0.15748*%
%ADD169C,0.07874*%
%ADD170O,0.14173X0.07087*%
D103*
X13878Y193701D02*
D03*
X202756Y14567D02*
D03*
D108*
X350197Y114173D02*
D03*
X341929D02*
D03*
D109*
X341732Y105905D02*
D03*
X348032D02*
D03*
X145125Y208398D02*
D03*
X151425D02*
D03*
X56461Y146063D02*
D03*
X62761D02*
D03*
X93308Y129528D02*
D03*
X87007D02*
D03*
X66680Y106520D02*
D03*
X60380D02*
D03*
X101575Y14961D02*
D03*
X95275D02*
D03*
X140552Y25197D02*
D03*
X134252D02*
D03*
X159843Y24803D02*
D03*
X153543D02*
D03*
X267330Y94570D02*
D03*
X273630D02*
D03*
X181495Y153543D02*
D03*
X187795D02*
D03*
X189604Y146634D02*
D03*
X195905D02*
D03*
X189541Y141555D02*
D03*
X195842D02*
D03*
X191732Y176772D02*
D03*
X185432D02*
D03*
X266850Y134080D02*
D03*
X260550D02*
D03*
X264173Y150787D02*
D03*
X270473D02*
D03*
X270472Y161417D02*
D03*
X276772D02*
D03*
X270472Y166142D02*
D03*
X276772D02*
D03*
X271890Y178310D02*
D03*
X265590D02*
D03*
X228550Y185100D02*
D03*
X222250D02*
D03*
D110*
X341732Y90841D02*
D03*
Y97141D02*
D03*
X205581Y99606D02*
D03*
Y105906D02*
D03*
Y111417D02*
D03*
Y117717D02*
D03*
X254331Y261417D02*
D03*
Y267717D02*
D03*
X248819Y261417D02*
D03*
Y267717D02*
D03*
X232673Y260585D02*
D03*
Y254285D02*
D03*
X227161Y260585D02*
D03*
Y254285D02*
D03*
X46457Y152756D02*
D03*
Y146456D02*
D03*
X128740Y17367D02*
D03*
Y11067D02*
D03*
X108661Y8267D02*
D03*
Y14567D02*
D03*
X263568Y102926D02*
D03*
Y109226D02*
D03*
X211520Y139690D02*
D03*
Y145990D02*
D03*
X220944Y130231D02*
D03*
Y123931D02*
D03*
X226062Y130231D02*
D03*
Y123931D02*
D03*
X231180Y130231D02*
D03*
Y123931D02*
D03*
X236298Y130231D02*
D03*
Y123931D02*
D03*
X236810Y200260D02*
D03*
Y193960D02*
D03*
D111*
X347638Y96653D02*
D03*
Y89173D02*
D03*
X357087Y92913D02*
D03*
X260236Y268307D02*
D03*
Y260827D02*
D03*
X269685Y264567D02*
D03*
X220866Y260039D02*
D03*
Y267520D02*
D03*
X211417Y263779D02*
D03*
X47244Y99803D02*
D03*
Y107283D02*
D03*
X37795Y103543D02*
D03*
X113779Y15005D02*
D03*
X123228Y18745D02*
D03*
Y11265D02*
D03*
D112*
X170610Y195669D02*
D03*
X179665D02*
D03*
X161555D02*
D03*
D113*
X170610Y218504D02*
D03*
D114*
X152025Y202098D02*
D03*
X144525D02*
D03*
X62411Y152362D02*
D03*
X54911D02*
D03*
X95069Y9055D02*
D03*
X102569D02*
D03*
D115*
X171752Y124016D02*
D03*
X162894D02*
D03*
X275197Y267717D02*
D03*
X284055D02*
D03*
X205118Y266929D02*
D03*
X196260D02*
D03*
X19927Y234203D02*
D03*
X28785D02*
D03*
D116*
X163510Y111115D02*
D03*
Y115445D02*
D03*
D117*
X173917Y115768D02*
D03*
Y110768D02*
D03*
Y105768D02*
D03*
Y100768D02*
D03*
X192224D02*
D03*
Y105768D02*
D03*
Y110768D02*
D03*
Y115748D02*
D03*
X98524Y135807D02*
D03*
Y140807D02*
D03*
Y145807D02*
D03*
Y150807D02*
D03*
X80216D02*
D03*
Y145807D02*
D03*
Y140807D02*
D03*
Y135827D02*
D03*
X236698Y109639D02*
D03*
Y104639D02*
D03*
Y99639D02*
D03*
Y94639D02*
D03*
X255005D02*
D03*
Y99639D02*
D03*
Y104639D02*
D03*
Y109619D02*
D03*
D118*
X187155Y124108D02*
D03*
Y131608D02*
D03*
X194242Y124108D02*
D03*
Y131608D02*
D03*
X88189Y6880D02*
D03*
Y14380D02*
D03*
X281670Y41860D02*
D03*
Y34360D02*
D03*
X274530Y61437D02*
D03*
Y68937D02*
D03*
X267444Y61437D02*
D03*
Y68937D02*
D03*
X260357Y61437D02*
D03*
Y68937D02*
D03*
X269473Y109038D02*
D03*
Y101538D02*
D03*
X188200Y197800D02*
D03*
Y190300D02*
D03*
X207261Y192600D02*
D03*
Y185100D02*
D03*
X214400Y192600D02*
D03*
Y185100D02*
D03*
D119*
X228937Y176575D02*
D03*
X230906D02*
D03*
X232874D02*
D03*
X234842D02*
D03*
X236811D02*
D03*
X238779D02*
D03*
X240748D02*
D03*
X242717D02*
D03*
X244685D02*
D03*
X246654D02*
D03*
X248622D02*
D03*
X250590D02*
D03*
X250590Y143110D02*
D03*
X248622D02*
D03*
X246654D02*
D03*
X244685D02*
D03*
X242717D02*
D03*
X240748D02*
D03*
X238779D02*
D03*
X236811D02*
D03*
X234842D02*
D03*
X232874D02*
D03*
X230906D02*
D03*
X228937D02*
D03*
D120*
X223031Y149016D02*
D03*
Y150984D02*
D03*
Y152953D02*
D03*
Y154921D02*
D03*
Y156890D02*
D03*
Y158858D02*
D03*
Y160827D02*
D03*
Y162795D02*
D03*
Y164764D02*
D03*
Y166732D02*
D03*
Y168701D02*
D03*
Y170669D02*
D03*
X256496Y149016D02*
D03*
Y150984D02*
D03*
Y152953D02*
D03*
Y154921D02*
D03*
Y156890D02*
D03*
Y158858D02*
D03*
Y160827D02*
D03*
Y162795D02*
D03*
Y164764D02*
D03*
Y166732D02*
D03*
Y168701D02*
D03*
Y170669D02*
D03*
D121*
X259842Y244016D02*
D03*
Y234016D02*
D03*
Y224016D02*
D03*
Y214016D02*
D03*
Y204016D02*
D03*
D122*
X31442Y243258D02*
D03*
X21206D02*
D03*
D123*
X123327Y199213D02*
D03*
X123366Y218898D02*
D03*
X87657Y199213D02*
D03*
X87697Y218898D02*
D03*
D124*
X85433Y170079D02*
D03*
X104331D02*
D03*
D125*
X28839Y219094D02*
D03*
Y168307D02*
D03*
D126*
X64075Y191142D02*
D03*
D127*
X93898Y118110D02*
D03*
X85630D02*
D03*
D128*
X72087Y121653D02*
D03*
X54685D02*
D03*
D129*
X71260Y56299D02*
D03*
X60236Y45276D02*
D03*
X65713D02*
D03*
X65784Y56299D02*
D03*
D130*
X71260Y45276D02*
D03*
X65748Y50787D02*
D03*
D03*
D03*
D03*
X60236Y50823D02*
D03*
X71260Y50752D02*
D03*
X60236Y56299D02*
D03*
D131*
X35354Y91142D02*
D03*
X40354D02*
D03*
X45354D02*
D03*
X50354D02*
D03*
X55354D02*
D03*
X60354D02*
D03*
X65354D02*
D03*
X70354D02*
D03*
X75354D02*
D03*
X80354D02*
D03*
X85354D02*
D03*
X90354D02*
D03*
X95354D02*
D03*
X100354D02*
D03*
D03*
Y22244D02*
D03*
D03*
D03*
X95354D02*
D03*
X90354D02*
D03*
X85354D02*
D03*
X80354D02*
D03*
X75354D02*
D03*
X70354D02*
D03*
X65354D02*
D03*
X60354D02*
D03*
X55354D02*
D03*
X50354D02*
D03*
X45354D02*
D03*
X40354D02*
D03*
X35354D02*
D03*
D132*
X104291Y79193D02*
D03*
Y74193D02*
D03*
Y69193D02*
D03*
Y64193D02*
D03*
Y59193D02*
D03*
Y54193D02*
D03*
Y49193D02*
D03*
Y44193D02*
D03*
Y39193D02*
D03*
Y34193D02*
D03*
D03*
D133*
X152953Y17323D02*
D03*
X141142D02*
D03*
D134*
X164370Y6299D02*
D03*
X135630D02*
D03*
X164370Y14567D02*
D03*
X135630D02*
D03*
D135*
X158858Y17323D02*
D03*
D136*
X177362Y29528D02*
D03*
X228150D02*
D03*
D137*
X205315Y64764D02*
D03*
D138*
X264173Y7677D02*
D03*
X274606D02*
D03*
D139*
X254724D02*
D03*
X244291D02*
D03*
D140*
X254331Y17815D02*
D03*
X256890D02*
D03*
X259449D02*
D03*
X262008D02*
D03*
X264567D02*
D03*
D141*
X247244Y18307D02*
D03*
X271654D02*
D03*
D142*
X254940Y42558D02*
D03*
X258680D02*
D03*
X262420D02*
D03*
Y33502D02*
D03*
X258680D02*
D03*
X254940D02*
D03*
D143*
X272620Y33461D02*
D03*
Y42319D02*
D03*
D144*
X201694Y173567D02*
D03*
X207819Y167442D02*
D03*
X197518Y157142D02*
D03*
X191394Y163266D02*
D03*
D158*
X311417Y12992D02*
D03*
Y18898D02*
D03*
Y24803D02*
D03*
Y30709D02*
D03*
Y36614D02*
D03*
Y42520D02*
D03*
X287250Y61650D02*
D03*
Y67555D02*
D03*
Y73461D02*
D03*
Y79366D02*
D03*
Y85272D02*
D03*
Y91178D02*
D03*
D159*
X353527Y147623D02*
D03*
X339387D02*
D03*
X339383Y133483D02*
D03*
D160*
X137402Y96457D02*
D03*
Y116142D02*
D03*
X37402Y316535D02*
D03*
X17717D02*
D03*
X37402Y272441D02*
D03*
X17717D02*
D03*
D161*
X252756Y279213D02*
D03*
Y319213D02*
D03*
Y349213D02*
D03*
X282756Y279213D02*
D03*
Y339213D02*
D03*
X199134Y278976D02*
D03*
Y318976D02*
D03*
Y348976D02*
D03*
X229134Y278976D02*
D03*
Y338976D02*
D03*
D162*
X140157Y246850D02*
D03*
X81102Y325590D02*
D03*
X159843D02*
D03*
D163*
X100787Y246850D02*
D03*
D164*
X260315Y367323D02*
D03*
X280315D02*
D03*
X206772D02*
D03*
X226772D02*
D03*
X24090Y355610D02*
D03*
Y375610D02*
D03*
D165*
X161811Y368110D02*
D03*
X43701D02*
D03*
D166*
X56398Y198031D02*
D03*
D167*
X44193Y174803D02*
D03*
X202756Y32283D02*
D03*
D168*
X31594Y193701D02*
D03*
X221654Y44882D02*
D03*
D169*
X24409Y138583D02*
D03*
Y120866D02*
D03*
D170*
X198425Y57087D02*
D03*
M02*
