G04*
G04 #@! TF.GenerationSoftware,Altium Limited,Altium Designer,20.0.10 (225)*
G04*
G04 Layer_Physical_Order=4*
G04 Layer_Color=16711680*
%FSLAX25Y25*%
%MOIN*%
G70*
G01*
G75*
%ADD103C,0.08268*%
%ADD109R,0.03800X0.03100*%
%ADD110R,0.03100X0.03800*%
%ADD114R,0.04500X0.05000*%
%ADD118R,0.05000X0.04500*%
%ADD145C,0.01100*%
%ADD146C,0.01500*%
%ADD147C,0.02500*%
%ADD148C,0.02000*%
%ADD149C,0.00800*%
%ADD150C,0.01000*%
%ADD151C,0.01200*%
%ADD152C,0.03000*%
%ADD154C,0.05000*%
%ADD155C,0.01476*%
%ADD156C,0.07000*%
%ADD158C,0.05354*%
%ADD159C,0.04095*%
%ADD160C,0.08504*%
%ADD161C,0.11024*%
%ADD162C,0.05669*%
%ADD163C,0.05039*%
%ADD164C,0.10709*%
%ADD165C,0.06299*%
%ADD166O,0.07087X0.14173*%
%ADD167O,0.15748X0.07874*%
%ADD168O,0.07874X0.15748*%
%ADD169C,0.07874*%
%ADD170O,0.14173X0.07087*%
%ADD171C,0.02362*%
%ADD172C,0.01772*%
%ADD209R,0.04724X0.04724*%
%ADD210R,0.02362X0.04331*%
%ADD211R,0.06000X0.06300*%
%ADD212R,0.04646X0.02284*%
%ADD213R,0.06300X0.06000*%
%ADD214C,0.03500*%
G36*
X49606Y320866D02*
Y230739D01*
X177463Y229675D01*
X177653Y229212D01*
X117903Y169462D01*
X59070D01*
X58426Y169334D01*
X57880Y168970D01*
X57880Y168970D01*
X45030Y156120D01*
X44666Y155574D01*
X44538Y154930D01*
Y129979D01*
X44666Y129335D01*
X45030Y128789D01*
X45909Y127910D01*
X46455Y127546D01*
X47099Y127418D01*
X54933D01*
X76885Y105465D01*
X76885Y105465D01*
X77431Y105101D01*
X78075Y104973D01*
X80467D01*
X80883Y104695D01*
X81695Y104533D01*
X82507Y104695D01*
X83195Y105155D01*
X83655Y105843D01*
X83817Y106655D01*
X83655Y107467D01*
X83195Y108155D01*
X82507Y108615D01*
X81695Y108777D01*
X80883Y108615D01*
X80467Y108337D01*
X78772D01*
X56820Y130290D01*
X56274Y130654D01*
X55630Y130782D01*
X47902D01*
Y154233D01*
X52417Y158748D01*
X52966Y158589D01*
X53360Y158000D01*
X54048Y157540D01*
X54860Y157378D01*
X55672Y157540D01*
X56360Y158000D01*
X56820Y158688D01*
X56982Y159500D01*
X56820Y160312D01*
X56360Y161000D01*
X55771Y161394D01*
X55612Y161943D01*
X59767Y166098D01*
X118600D01*
X119244Y166226D01*
X119790Y166590D01*
X182829Y229630D01*
X249395Y229076D01*
X249825Y228647D01*
Y220621D01*
X249365Y220529D01*
X249324Y220538D01*
X249047Y220953D01*
X246191Y223809D01*
X246232Y224016D01*
X246070Y224828D01*
X245610Y225516D01*
X244922Y225976D01*
X244110Y226138D01*
X243298Y225976D01*
X242610Y225516D01*
X242150Y224828D01*
X241988Y224016D01*
X242150Y223204D01*
X242610Y222515D01*
X243298Y222055D01*
X244110Y221894D01*
X244316Y221935D01*
X246784Y219467D01*
Y194880D01*
X246810Y194752D01*
X246349Y194505D01*
X243700Y197155D01*
Y212399D01*
X243875Y212515D01*
X244335Y213204D01*
X244496Y214016D01*
X244335Y214828D01*
X243875Y215516D01*
X243186Y215976D01*
X242374Y216138D01*
X241562Y215976D01*
X240874Y215516D01*
X240414Y214828D01*
X240252Y214016D01*
X240414Y213204D01*
X240874Y212515D01*
X241049Y212399D01*
Y196606D01*
X241150Y196098D01*
X241437Y195668D01*
X249266Y187840D01*
Y187315D01*
X248930Y186812D01*
X248768Y186000D01*
X248930Y185188D01*
X249390Y184500D01*
X250078Y184040D01*
X250890Y183878D01*
X251702Y184040D01*
X251932Y184193D01*
X252380Y183891D01*
X252258Y183280D01*
X252420Y182468D01*
X252880Y181780D01*
X253568Y181320D01*
X254380Y181158D01*
X255192Y181320D01*
X255880Y181780D01*
X256340Y182468D01*
X256502Y183280D01*
X256340Y184092D01*
X255880Y184780D01*
X255705Y184897D01*
Y188610D01*
X255605Y189117D01*
X255317Y189547D01*
X249435Y195429D01*
Y210155D01*
X249895Y210247D01*
X249936Y210238D01*
X250213Y209823D01*
X262193Y197842D01*
Y169811D01*
X262294Y169304D01*
X262582Y168874D01*
X263289Y168166D01*
X263248Y167960D01*
X263410Y167148D01*
X263870Y166460D01*
X264558Y166000D01*
X265370Y165838D01*
X266182Y166000D01*
X266870Y166460D01*
X267330Y167148D01*
X267492Y167960D01*
X267330Y168772D01*
X266870Y169460D01*
X266182Y169920D01*
X265370Y170082D01*
X265216Y170051D01*
X264844Y170383D01*
Y183040D01*
X265344Y183429D01*
X265800Y183338D01*
X266612Y183500D01*
X267300Y183960D01*
X267760Y184648D01*
X267922Y185460D01*
X267760Y186272D01*
X267300Y186960D01*
X266612Y187420D01*
X265800Y187582D01*
X265344Y187491D01*
X264844Y187880D01*
Y198391D01*
X264743Y198898D01*
X264456Y199328D01*
X252476Y211309D01*
Y228695D01*
X252831Y229047D01*
X275578Y228858D01*
Y150250D01*
X275706Y149606D01*
X276070Y149060D01*
X277717Y147414D01*
X278263Y147049D01*
X278907Y146921D01*
X280089D01*
X280505Y146643D01*
X281317Y146481D01*
X282129Y146643D01*
X282817Y147103D01*
X283277Y147791D01*
X283439Y148603D01*
X283277Y149415D01*
X282817Y150103D01*
X282129Y150564D01*
X281317Y150725D01*
X280505Y150564D01*
X280089Y150285D01*
X279604D01*
X278942Y150947D01*
Y228475D01*
X279297Y228827D01*
X289764Y228740D01*
X294488Y224016D01*
Y160935D01*
X293988Y160885D01*
X293937Y161142D01*
X293575Y161683D01*
X293575Y161683D01*
X288760Y166499D01*
X288218Y166861D01*
X287579Y166988D01*
X287579Y166988D01*
X285418D01*
X285197Y167317D01*
X284607Y167712D01*
X283910Y167851D01*
X283213Y167712D01*
X282623Y167317D01*
X282228Y166727D01*
X282089Y166030D01*
X282228Y165333D01*
X282623Y164743D01*
X283181Y164369D01*
X283223Y164321D01*
X283300Y164095D01*
X283268Y163960D01*
X283182Y163778D01*
X282643Y163417D01*
X282248Y162827D01*
X282109Y162130D01*
X282248Y161433D01*
X282643Y160843D01*
X283233Y160448D01*
X283930Y160309D01*
X284627Y160448D01*
X285217Y160843D01*
X285391Y161102D01*
X285901Y161133D01*
X288249Y158785D01*
Y157323D01*
X287961Y156893D01*
X287834Y156254D01*
Y153778D01*
X287961Y153139D01*
X288249Y152708D01*
Y118020D01*
X256044Y85816D01*
X238225D01*
X238207Y85828D01*
X237510Y85966D01*
X236813Y85828D01*
X236223Y85433D01*
X235828Y84842D01*
X235689Y84146D01*
X235828Y83449D01*
X236189Y82908D01*
X235828Y82367D01*
X235689Y81670D01*
X235800Y81112D01*
X235513Y80612D01*
X231738D01*
Y83068D01*
X245575Y96905D01*
X245896Y97384D01*
X246008Y97950D01*
Y130240D01*
X245896Y130806D01*
X245575Y131285D01*
X242865Y133996D01*
X242870Y134022D01*
X242708Y134834D01*
X242248Y135522D01*
X241560Y135982D01*
X240748Y136144D01*
X239936Y135982D01*
X239248Y135522D01*
X238788Y134834D01*
X238626Y134022D01*
X238788Y133210D01*
X239248Y132522D01*
X239936Y132062D01*
X240748Y131900D01*
X240774Y131905D01*
X243052Y129628D01*
Y98562D01*
X229215Y84725D01*
X228894Y84246D01*
X228782Y83680D01*
Y79778D01*
X228894Y79212D01*
X229215Y78733D01*
X229859Y78088D01*
X230339Y77768D01*
X230904Y77655D01*
X258685D01*
X258837Y77155D01*
X258770Y77110D01*
X258310Y76422D01*
X258148Y75610D01*
X258310Y74798D01*
X258770Y74110D01*
X259458Y73650D01*
X260270Y73488D01*
X261082Y73650D01*
X261770Y74110D01*
X262230Y74798D01*
X262392Y75610D01*
X262230Y76422D01*
X261770Y77110D01*
X261703Y77155D01*
X261855Y77655D01*
X265592D01*
X265859Y77155D01*
X265550Y76692D01*
X265388Y75880D01*
X265550Y75068D01*
X266010Y74380D01*
X266698Y73920D01*
X267510Y73758D01*
X268322Y73920D01*
X269010Y74380D01*
X269470Y75068D01*
X269632Y75880D01*
X269470Y76692D01*
X269161Y77155D01*
X269428Y77655D01*
X272652D01*
X272919Y77155D01*
X272610Y76692D01*
X272448Y75880D01*
X272610Y75068D01*
X273070Y74380D01*
X273758Y73920D01*
X274570Y73758D01*
X275382Y73920D01*
X276070Y74380D01*
X276530Y75068D01*
X276692Y75880D01*
X276530Y76692D01*
X276221Y77155D01*
X276488Y77655D01*
X284087D01*
X284125Y77562D01*
X284699Y76815D01*
X284896Y76664D01*
Y76164D01*
X284699Y76012D01*
X284125Y75265D01*
X283765Y74395D01*
X283642Y73461D01*
X283765Y72527D01*
X284125Y71657D01*
X284699Y70910D01*
X284896Y70758D01*
X284896Y70258D01*
X284699Y70107D01*
X284125Y69359D01*
X283765Y68489D01*
X283642Y67555D01*
X283765Y66622D01*
X284125Y65751D01*
X284699Y65004D01*
X284896Y64853D01*
X284896Y64353D01*
X284699Y64201D01*
X284649Y64136D01*
X284553Y64134D01*
X284423Y64106D01*
X284293Y64080D01*
X284288Y64076D01*
X284281Y64075D01*
X284172Y63999D01*
X284062Y63925D01*
X283348Y63212D01*
X283194Y62981D01*
X283139Y62708D01*
X283139Y60804D01*
X283139Y60628D01*
X283194Y60355D01*
X283348Y60123D01*
X286890Y56582D01*
X286903Y56573D01*
X286912Y56560D01*
X287018Y56496D01*
X287121Y56427D01*
X287137Y56424D01*
X287150Y56416D01*
X287273Y56397D01*
X287394Y56373D01*
X287410Y56376D01*
X287426Y56374D01*
X287546Y56403D01*
X287668Y56427D01*
X287681Y56436D01*
X287696Y56440D01*
X287796Y56513D01*
X287899Y56582D01*
X287908Y56595D01*
X287921Y56604D01*
X291077Y60050D01*
X291142Y60156D01*
X291211Y60259D01*
X291214Y60275D01*
X291222Y60288D01*
X291241Y60411D01*
X291265Y60532D01*
Y62768D01*
X291211Y63041D01*
X291056Y63272D01*
X290308Y64021D01*
X290302Y64024D01*
X290298Y64030D01*
X290187Y64101D01*
X290076Y64175D01*
X290070Y64176D01*
X290064Y64180D01*
X289933Y64204D01*
X289803Y64230D01*
X289643Y64570D01*
X289604Y64663D01*
Y64853D01*
X289801Y65004D01*
X290375Y65751D01*
X290735Y66622D01*
X290858Y67555D01*
X290735Y68489D01*
X290375Y69359D01*
X289801Y70107D01*
X289604Y70258D01*
X289604Y70758D01*
X289801Y70910D01*
X290375Y71657D01*
X290735Y72527D01*
X290858Y73461D01*
X290735Y74395D01*
X290375Y75265D01*
X289801Y76012D01*
X289604Y76164D01*
Y76664D01*
X289801Y76815D01*
X290375Y77562D01*
X290735Y78433D01*
X290858Y79366D01*
X290735Y80300D01*
X290375Y81171D01*
X289801Y81918D01*
X289604Y82069D01*
X289604Y82569D01*
X289801Y82721D01*
X290375Y83468D01*
X290735Y84338D01*
X290858Y85272D01*
X290735Y86206D01*
X290375Y87076D01*
X289801Y87823D01*
X289604Y87975D01*
X289604Y88475D01*
X289801Y88626D01*
X289851Y88692D01*
X289947Y88693D01*
X290077Y88722D01*
X290207Y88748D01*
X290212Y88751D01*
X290219Y88753D01*
X290328Y88828D01*
X290439Y88902D01*
X291151Y89615D01*
X291306Y89847D01*
X291361Y90120D01*
X291361Y92023D01*
X291360Y92200D01*
X291306Y92473D01*
X291151Y92704D01*
X287610Y96246D01*
X287597Y96254D01*
X287588Y96267D01*
X287482Y96331D01*
X287379Y96400D01*
X287363Y96403D01*
X287350Y96412D01*
X287227Y96430D01*
X287105Y96455D01*
X287090Y96452D01*
X287074Y96454D01*
X286954Y96425D01*
X286832Y96400D01*
X286819Y96391D01*
X286804Y96388D01*
X286704Y96315D01*
X286601Y96246D01*
X286592Y96232D01*
X286579Y96223D01*
X283423Y92777D01*
X283358Y92672D01*
X283289Y92568D01*
X283286Y92553D01*
X283278Y92539D01*
X283259Y92417D01*
X283235Y92295D01*
Y90060D01*
X283289Y89787D01*
X283444Y89555D01*
X284192Y88807D01*
X284198Y88803D01*
X284202Y88798D01*
X284314Y88726D01*
X284424Y88652D01*
X284430Y88651D01*
X284436Y88648D01*
X284567Y88624D01*
X284697Y88598D01*
X284857Y88257D01*
X284896Y88165D01*
Y87975D01*
X284699Y87823D01*
X284125Y87076D01*
X283765Y86206D01*
X283642Y85272D01*
X283765Y84338D01*
X284125Y83468D01*
X284699Y82721D01*
X284896Y82569D01*
X284896Y82069D01*
X284699Y81918D01*
X284125Y81171D01*
X283894Y80612D01*
X259718D01*
X259527Y81074D01*
X293575Y115122D01*
X293575Y115122D01*
X293937Y115664D01*
X293988Y115920D01*
X294488Y115871D01*
Y63683D01*
X294102Y63366D01*
X294020Y63382D01*
X293208Y63220D01*
X292520Y62760D01*
X292060Y62072D01*
X291898Y61260D01*
X292060Y60448D01*
X292520Y59760D01*
X293208Y59300D01*
X294020Y59138D01*
X294102Y59154D01*
X294488Y58837D01*
Y5512D01*
Y2362D01*
X118504D01*
X114173Y6693D01*
Y91339D01*
X108268Y97244D01*
X5512D01*
X3150Y99606D01*
Y228346D01*
X5906Y231102D01*
X26772Y230929D01*
Y319685D01*
X31102Y324016D01*
X46457D01*
X49606Y320866D01*
D02*
G37*
G36*
X290647Y92200D02*
X290647Y92023D01*
X290647Y90120D01*
X289934Y89407D01*
X284697Y89312D01*
X283949Y90060D01*
Y92295D01*
X287105Y95741D01*
X290647Y92200D01*
D02*
G37*
G36*
X290551Y62768D02*
Y60532D01*
X287394Y57087D01*
X283853Y60628D01*
X283853Y60804D01*
X283853Y62708D01*
X284566Y63421D01*
X289803Y63516D01*
X290551Y62768D01*
D02*
G37*
G36*
X391339Y161024D02*
X391339Y3937D01*
X389764Y2362D01*
X304331D01*
X301575Y5118D01*
Y161024D01*
X303543Y162992D01*
X389370D01*
X391339Y161024D01*
D02*
G37*
%LPC*%
G36*
X37402Y321732D02*
X36057Y321555D01*
X34803Y321036D01*
X33727Y320210D01*
X32901Y319134D01*
X32382Y317880D01*
X32205Y316535D01*
X32382Y315191D01*
X32901Y313937D01*
X33727Y312861D01*
X34803Y312035D01*
X36057Y311516D01*
X37402Y311339D01*
X38747Y311516D01*
X40000Y312035D01*
X41076Y312861D01*
X41902Y313937D01*
X42421Y315191D01*
X42598Y316535D01*
X42421Y317880D01*
X41902Y319134D01*
X41076Y320210D01*
X40000Y321036D01*
X38747Y321555D01*
X37402Y321732D01*
D02*
G37*
G36*
X37402Y277637D02*
X36057Y277460D01*
X34803Y276941D01*
X33727Y276115D01*
X32901Y275039D01*
X32382Y273786D01*
X32205Y272441D01*
X32382Y271096D01*
X32901Y269843D01*
X33727Y268766D01*
X34803Y267941D01*
X36057Y267422D01*
X37402Y267245D01*
X38747Y267422D01*
X40000Y267941D01*
X41076Y268766D01*
X41902Y269843D01*
X42421Y271096D01*
X42598Y272441D01*
X42421Y273786D01*
X41902Y275039D01*
X41076Y276115D01*
X40000Y276941D01*
X38747Y277460D01*
X37402Y277637D01*
D02*
G37*
G36*
X96230Y221082D02*
X95418Y220920D01*
X94730Y220460D01*
X94270Y219772D01*
X94108Y218960D01*
X94270Y218148D01*
X94730Y217460D01*
X95418Y217000D01*
X96230Y216838D01*
X97042Y217000D01*
X97730Y217460D01*
X98190Y218148D01*
X98352Y218960D01*
X98190Y219772D01*
X97730Y220460D01*
X97042Y220920D01*
X96230Y221082D01*
D02*
G37*
G36*
X180990Y220702D02*
X180178Y220540D01*
X179490Y220080D01*
X179030Y219392D01*
X178868Y218580D01*
X179030Y217768D01*
X179490Y217080D01*
X180178Y216620D01*
X180990Y216458D01*
X181802Y216620D01*
X182490Y217080D01*
X182950Y217768D01*
X183112Y218580D01*
X182950Y219392D01*
X182490Y220080D01*
X181802Y220540D01*
X180990Y220702D01*
D02*
G37*
G36*
X159130Y220512D02*
X158318Y220350D01*
X157630Y219890D01*
X157170Y219202D01*
X157008Y218390D01*
X157170Y217578D01*
X157630Y216890D01*
X158318Y216430D01*
X159130Y216268D01*
X159942Y216430D01*
X160630Y216890D01*
X161090Y217578D01*
X161252Y218390D01*
X161090Y219202D01*
X160630Y219890D01*
X159942Y220350D01*
X159130Y220512D01*
D02*
G37*
G36*
X137850Y210732D02*
X137038Y210570D01*
X136350Y210110D01*
X135890Y209422D01*
X135728Y208610D01*
X135890Y207798D01*
X136350Y207110D01*
X137038Y206650D01*
X137850Y206488D01*
X138662Y206650D01*
X139350Y207110D01*
X139810Y207798D01*
X139972Y208610D01*
X139810Y209422D01*
X139350Y210110D01*
X138662Y210570D01*
X137850Y210732D01*
D02*
G37*
G36*
X58400Y210022D02*
X57588Y209860D01*
X56900Y209400D01*
X56440Y208712D01*
X56278Y207900D01*
X56440Y207088D01*
X56830Y206504D01*
X56669Y206124D01*
X56590Y206031D01*
X56398Y206056D01*
X55238Y205904D01*
X54157Y205456D01*
X53229Y204744D01*
X52516Y203816D01*
X52069Y202735D01*
X51916Y201575D01*
Y194488D01*
X52069Y193328D01*
X52516Y192247D01*
X53229Y191319D01*
X54157Y190607D01*
X55238Y190159D01*
X56398Y190006D01*
X57558Y190159D01*
X58639Y190607D01*
X59567Y191319D01*
X60279Y192247D01*
X60727Y193328D01*
X60879Y194488D01*
Y201575D01*
X60727Y202735D01*
X60279Y203816D01*
X59567Y204744D01*
X58784Y205345D01*
X58870Y205863D01*
X58875Y205873D01*
X59212Y205940D01*
X59900Y206400D01*
X60044Y206614D01*
X60544D01*
X60704Y206374D01*
X61393Y205914D01*
X62205Y205752D01*
X63017Y205914D01*
X63705Y206374D01*
X63873Y206624D01*
X64474D01*
X64641Y206374D01*
X65330Y205914D01*
X66142Y205752D01*
X66954Y205914D01*
X67642Y206374D01*
X68102Y207062D01*
X68264Y207874D01*
X68102Y208686D01*
X67642Y209374D01*
X66954Y209834D01*
X66142Y209996D01*
X65330Y209834D01*
X64641Y209374D01*
X64474Y209124D01*
X63873D01*
X63705Y209374D01*
X63017Y209834D01*
X62205Y209996D01*
X61393Y209834D01*
X60704Y209374D01*
X60561Y209160D01*
X60061D01*
X59900Y209400D01*
X59212Y209860D01*
X58400Y210022D01*
D02*
G37*
G36*
X228990Y207292D02*
X228178Y207130D01*
X227490Y206670D01*
X227030Y205982D01*
X226868Y205170D01*
X227030Y204358D01*
X227490Y203670D01*
X228178Y203210D01*
X228990Y203048D01*
X229802Y203210D01*
X230490Y203670D01*
X230950Y204358D01*
X231112Y205170D01*
X230950Y205982D01*
X230490Y206670D01*
X229802Y207130D01*
X228990Y207292D01*
D02*
G37*
G36*
X213386Y206059D02*
X212574Y205897D01*
X211885Y205437D01*
X211425Y204749D01*
X211264Y203937D01*
X211425Y203125D01*
X211885Y202437D01*
X212574Y201977D01*
X213386Y201815D01*
X214198Y201977D01*
X214886Y202437D01*
X215346Y203125D01*
X215508Y203937D01*
X215346Y204749D01*
X214886Y205437D01*
X214198Y205897D01*
X213386Y206059D01*
D02*
G37*
G36*
X208661D02*
X207849Y205897D01*
X207161Y205437D01*
X206701Y204749D01*
X206540Y203937D01*
X206701Y203125D01*
X207161Y202437D01*
X207849Y201977D01*
X208661Y201815D01*
X209473Y201977D01*
X210162Y202437D01*
X210622Y203125D01*
X210783Y203937D01*
X210622Y204749D01*
X210162Y205437D01*
X209473Y205897D01*
X208661Y206059D01*
D02*
G37*
G36*
X203937D02*
X203125Y205897D01*
X202437Y205437D01*
X201977Y204749D01*
X201815Y203937D01*
X201977Y203125D01*
X202437Y202437D01*
X203125Y201977D01*
X203937Y201815D01*
X204749Y201977D01*
X205437Y202437D01*
X205897Y203125D01*
X206059Y203937D01*
X205897Y204749D01*
X205437Y205437D01*
X204749Y205897D01*
X203937Y206059D01*
D02*
G37*
G36*
X199213D02*
X198401Y205897D01*
X197712Y205437D01*
X197252Y204749D01*
X197091Y203937D01*
X197252Y203125D01*
X197712Y202437D01*
X198401Y201977D01*
X199213Y201815D01*
X200025Y201977D01*
X200713Y202437D01*
X201173Y203125D01*
X201335Y203937D01*
X201173Y204749D01*
X200713Y205437D01*
X200025Y205897D01*
X199213Y206059D01*
D02*
G37*
G36*
X194488D02*
X193676Y205897D01*
X192988Y205437D01*
X192528Y204749D01*
X192366Y203937D01*
X192528Y203125D01*
X192988Y202437D01*
X193676Y201977D01*
X194488Y201815D01*
X195300Y201977D01*
X195989Y202437D01*
X196449Y203125D01*
X196610Y203937D01*
X196449Y204749D01*
X195989Y205437D01*
X195300Y205897D01*
X194488Y206059D01*
D02*
G37*
G36*
X189764D02*
X188952Y205897D01*
X188263Y205437D01*
X187803Y204749D01*
X187642Y203937D01*
X187803Y203125D01*
X188263Y202437D01*
X188952Y201977D01*
X189764Y201815D01*
X190576Y201977D01*
X191264Y202437D01*
X191724Y203125D01*
X191886Y203937D01*
X191724Y204749D01*
X191264Y205437D01*
X190576Y205897D01*
X189764Y206059D01*
D02*
G37*
G36*
X270800Y206012D02*
X269988Y205850D01*
X269300Y205390D01*
X268840Y204702D01*
X268678Y203890D01*
X268840Y203078D01*
X269300Y202390D01*
X269988Y201930D01*
X270800Y201768D01*
X271612Y201930D01*
X272300Y202390D01*
X272760Y203078D01*
X272922Y203890D01*
X272760Y204702D01*
X272300Y205390D01*
X271612Y205850D01*
X270800Y206012D01*
D02*
G37*
G36*
X137710Y204332D02*
X136898Y204170D01*
X136210Y203710D01*
X135750Y203022D01*
X135588Y202210D01*
X135750Y201398D01*
X136210Y200710D01*
X136898Y200250D01*
X137710Y200088D01*
X138522Y200250D01*
X139210Y200710D01*
X139670Y201398D01*
X139832Y202210D01*
X139670Y203022D01*
X139210Y203710D01*
X138522Y204170D01*
X137710Y204332D01*
D02*
G37*
G36*
X13878Y198778D02*
X12564Y198605D01*
X11339Y198098D01*
X10288Y197291D01*
X9481Y196239D01*
X8974Y195015D01*
X8801Y193701D01*
X8974Y192387D01*
X9481Y191162D01*
X10288Y190111D01*
X11339Y189304D01*
X12564Y188796D01*
X13878Y188623D01*
X15192Y188796D01*
X16417Y189304D01*
X17468Y190111D01*
X18275Y191162D01*
X18782Y192387D01*
X18955Y193701D01*
X18782Y195015D01*
X18275Y196239D01*
X17468Y197291D01*
X16417Y198098D01*
X15192Y198605D01*
X13878Y198778D01*
D02*
G37*
G36*
X102840Y190132D02*
X102028Y189970D01*
X101340Y189510D01*
X100880Y188822D01*
X100718Y188010D01*
X100880Y187198D01*
X101340Y186510D01*
X102028Y186050D01*
X102840Y185888D01*
X103652Y186050D01*
X104340Y186510D01*
X104800Y187198D01*
X104962Y188010D01*
X104800Y188822D01*
X104340Y189510D01*
X103652Y189970D01*
X102840Y190132D01*
D02*
G37*
G36*
X31594Y202517D02*
X30332Y202350D01*
X29155Y201863D01*
X28145Y201088D01*
X27369Y200077D01*
X26882Y198900D01*
X26716Y197638D01*
Y189764D01*
X26882Y188501D01*
X27369Y187324D01*
X28145Y186314D01*
X29155Y185539D01*
X30332Y185051D01*
X31594Y184885D01*
X32857Y185051D01*
X34034Y185539D01*
X35044Y186314D01*
X35820Y187324D01*
X36307Y188501D01*
X36473Y189764D01*
Y197638D01*
X36307Y198900D01*
X35820Y200077D01*
X35044Y201088D01*
X34034Y201863D01*
X32857Y202350D01*
X31594Y202517D01*
D02*
G37*
G36*
X171120Y188892D02*
X170308Y188730D01*
X169620Y188270D01*
X169160Y187582D01*
X168998Y186770D01*
X169160Y185958D01*
X169620Y185270D01*
X170308Y184810D01*
X171120Y184648D01*
X171932Y184810D01*
X172620Y185270D01*
X173080Y185958D01*
X173242Y186770D01*
X173080Y187582D01*
X172620Y188270D01*
X171932Y188730D01*
X171120Y188892D01*
D02*
G37*
G36*
X197740Y186912D02*
X196928Y186750D01*
X196240Y186290D01*
X195780Y185602D01*
X195618Y184790D01*
X195780Y183978D01*
X196240Y183290D01*
X196928Y182830D01*
X197740Y182668D01*
X198552Y182830D01*
X199240Y183290D01*
X199700Y183978D01*
X199862Y184790D01*
X199700Y185602D01*
X199240Y186290D01*
X198552Y186750D01*
X197740Y186912D01*
D02*
G37*
G36*
X66535Y182831D02*
X65723Y182669D01*
X65035Y182209D01*
X64648Y181630D01*
X64477Y181591D01*
X64263D01*
X64092Y181630D01*
X63705Y182209D01*
X63017Y182669D01*
X62205Y182831D01*
X61393Y182669D01*
X60704Y182209D01*
X60537Y181958D01*
X59936D01*
X59768Y182209D01*
X59080Y182669D01*
X58268Y182831D01*
X57456Y182669D01*
X56767Y182209D01*
X56307Y181521D01*
X56146Y180709D01*
X56307Y179897D01*
X56767Y179208D01*
X57456Y178748D01*
X58268Y178587D01*
X59080Y178748D01*
X59768Y179208D01*
X59936Y179459D01*
X60537D01*
X60704Y179208D01*
X61393Y178748D01*
X62205Y178587D01*
X63017Y178748D01*
X63705Y179208D01*
X64092Y179788D01*
X64263Y179826D01*
X64477D01*
X64648Y179788D01*
X65035Y179208D01*
X65723Y178748D01*
X66535Y178587D01*
X67347Y178748D01*
X68036Y179208D01*
X68496Y179897D01*
X68657Y180709D01*
X68496Y181521D01*
X68036Y182209D01*
X67347Y182669D01*
X66535Y182831D01*
D02*
G37*
G36*
X215640Y181042D02*
X214828Y180880D01*
X214140Y180420D01*
X213680Y179732D01*
X213518Y178920D01*
X213680Y178108D01*
X214140Y177420D01*
X214828Y176960D01*
X215640Y176798D01*
X216452Y176960D01*
X217140Y177420D01*
X217600Y178108D01*
X217762Y178920D01*
X217600Y179732D01*
X217140Y180420D01*
X216452Y180880D01*
X215640Y181042D01*
D02*
G37*
G36*
X271820Y175852D02*
X271008Y175690D01*
X270320Y175230D01*
X269860Y174542D01*
X269698Y173730D01*
X269860Y172918D01*
X270320Y172230D01*
X271008Y171770D01*
X271820Y171608D01*
X272632Y171770D01*
X273320Y172230D01*
X273780Y172918D01*
X273942Y173730D01*
X273780Y174542D01*
X273320Y175230D01*
X272632Y175690D01*
X271820Y175852D01*
D02*
G37*
G36*
X48130Y179682D02*
X40256D01*
X38993Y179516D01*
X37817Y179028D01*
X36806Y178253D01*
X36031Y177243D01*
X35543Y176066D01*
X35377Y174803D01*
X35543Y173540D01*
X36031Y172364D01*
X36806Y171353D01*
X37817Y170578D01*
X38993Y170091D01*
X40256Y169924D01*
X48130D01*
X49393Y170091D01*
X50569Y170578D01*
X51580Y171353D01*
X52355Y172364D01*
X52842Y173540D01*
X53009Y174803D01*
X52842Y176066D01*
X52355Y177243D01*
X51580Y178253D01*
X50569Y179028D01*
X49393Y179516D01*
X48130Y179682D01*
D02*
G37*
G36*
X187310Y172392D02*
X186498Y172230D01*
X185810Y171770D01*
X185350Y171082D01*
X185188Y170270D01*
X185350Y169458D01*
X185810Y168770D01*
X186498Y168310D01*
X187310Y168148D01*
X188122Y168310D01*
X188810Y168770D01*
X189270Y169458D01*
X189432Y170270D01*
X189270Y171082D01*
X188810Y171770D01*
X188122Y172230D01*
X187310Y172392D01*
D02*
G37*
G36*
X127090Y171542D02*
X126278Y171380D01*
X125590Y170920D01*
X125130Y170232D01*
X124968Y169420D01*
X125130Y168608D01*
X125590Y167920D01*
X126278Y167460D01*
X127090Y167298D01*
X127902Y167460D01*
X128590Y167920D01*
X129050Y168608D01*
X129212Y169420D01*
X129050Y170232D01*
X128590Y170920D01*
X127902Y171380D01*
X127090Y171542D01*
D02*
G37*
G36*
X231580Y170382D02*
X230768Y170220D01*
X230080Y169760D01*
X229620Y169072D01*
X229458Y168260D01*
X229620Y167448D01*
X230080Y166760D01*
X230768Y166300D01*
X231580Y166138D01*
X232392Y166300D01*
X233080Y166760D01*
X233540Y167448D01*
X233702Y168260D01*
X233540Y169072D01*
X233080Y169760D01*
X232392Y170220D01*
X231580Y170382D01*
D02*
G37*
G36*
X248930Y170192D02*
X248118Y170030D01*
X247430Y169570D01*
X246970Y168882D01*
X246808Y168070D01*
X246970Y167258D01*
X247430Y166570D01*
X248118Y166110D01*
X248930Y165948D01*
X249742Y166110D01*
X250430Y166570D01*
X250890Y167258D01*
X251052Y168070D01*
X250890Y168882D01*
X250430Y169570D01*
X249742Y170030D01*
X248930Y170192D01*
D02*
G37*
G36*
X76772Y165024D02*
X75960Y164862D01*
X75271Y164402D01*
X74811Y163714D01*
X74650Y162902D01*
X74811Y162090D01*
X75271Y161401D01*
X75960Y160941D01*
X76772Y160780D01*
X77584Y160941D01*
X78272Y161401D01*
X78732Y162090D01*
X78894Y162902D01*
X78732Y163714D01*
X78272Y164402D01*
X77584Y164862D01*
X76772Y165024D01*
D02*
G37*
G36*
X61750Y160732D02*
X60938Y160570D01*
X60250Y160110D01*
X59790Y159422D01*
X59628Y158610D01*
X59790Y157798D01*
X60250Y157110D01*
X60938Y156650D01*
X61750Y156488D01*
X62562Y156650D01*
X63250Y157110D01*
X63710Y157798D01*
X63872Y158610D01*
X63710Y159422D01*
X63250Y160110D01*
X62562Y160570D01*
X61750Y160732D01*
D02*
G37*
G36*
X147700Y160552D02*
X146888Y160390D01*
X146200Y159930D01*
X145740Y159242D01*
X145578Y158430D01*
X145740Y157618D01*
X146200Y156930D01*
X146888Y156470D01*
X147700Y156308D01*
X148512Y156470D01*
X149200Y156930D01*
X149660Y157618D01*
X149822Y158430D01*
X149660Y159242D01*
X149200Y159930D01*
X148512Y160390D01*
X147700Y160552D01*
D02*
G37*
G36*
X67250Y159952D02*
X66438Y159790D01*
X65750Y159330D01*
X65290Y158642D01*
X65128Y157830D01*
X65290Y157018D01*
X65750Y156330D01*
X66438Y155870D01*
X67250Y155708D01*
X68062Y155870D01*
X68750Y156330D01*
X69210Y157018D01*
X69372Y157830D01*
X69210Y158642D01*
X68750Y159330D01*
X68062Y159790D01*
X67250Y159952D01*
D02*
G37*
G36*
X68620Y152362D02*
X67808Y152200D01*
X67120Y151740D01*
X66660Y151052D01*
X66498Y150240D01*
X66660Y149428D01*
X67120Y148740D01*
X67808Y148280D01*
X68620Y148118D01*
X69432Y148280D01*
X70120Y148740D01*
X70580Y149428D01*
X70742Y150240D01*
X70580Y151052D01*
X70120Y151740D01*
X69432Y152200D01*
X68620Y152362D01*
D02*
G37*
G36*
X249050Y152342D02*
X248238Y152180D01*
X247550Y151720D01*
X247090Y151032D01*
X246928Y150220D01*
X247090Y149408D01*
X247550Y148720D01*
X248238Y148260D01*
X249050Y148098D01*
X249862Y148260D01*
X250550Y148720D01*
X251010Y149408D01*
X251172Y150220D01*
X251010Y151032D01*
X250550Y151720D01*
X249862Y152180D01*
X249050Y152342D01*
D02*
G37*
G36*
X183280Y149412D02*
X182468Y149250D01*
X181780Y148790D01*
X181320Y148102D01*
X181158Y147290D01*
X181320Y146478D01*
X181780Y145790D01*
X182468Y145330D01*
X183280Y145168D01*
X184092Y145330D01*
X184780Y145790D01*
X185240Y146478D01*
X185402Y147290D01*
X185240Y148102D01*
X184780Y148790D01*
X184092Y149250D01*
X183280Y149412D01*
D02*
G37*
G36*
X88930Y147232D02*
X88118Y147070D01*
X87430Y146610D01*
X86970Y145922D01*
X86808Y145110D01*
X86970Y144298D01*
X87430Y143610D01*
X88118Y143150D01*
X88930Y142988D01*
X89742Y143150D01*
X90430Y143610D01*
X90890Y144298D01*
X91052Y145110D01*
X90890Y145922D01*
X90430Y146610D01*
X89742Y147070D01*
X88930Y147232D01*
D02*
G37*
G36*
X262010Y142452D02*
X261198Y142290D01*
X260510Y141830D01*
X260046Y142037D01*
X259682Y142280D01*
X258870Y142442D01*
X258058Y142280D01*
X257370Y141820D01*
X256910Y141132D01*
X256748Y140320D01*
X256910Y139508D01*
X257370Y138820D01*
X258058Y138360D01*
X258870Y138198D01*
X259682Y138360D01*
X260370Y138820D01*
X260834Y138613D01*
X261198Y138370D01*
X262010Y138208D01*
X262822Y138370D01*
X263510Y138830D01*
X263970Y139518D01*
X264132Y140330D01*
X263970Y141142D01*
X263510Y141830D01*
X262822Y142290D01*
X262010Y142452D01*
D02*
G37*
G36*
X69900Y143842D02*
X69088Y143680D01*
X68400Y143220D01*
X67940Y142532D01*
X67778Y141720D01*
X67940Y140908D01*
X68400Y140220D01*
X69088Y139760D01*
X69900Y139598D01*
X70712Y139760D01*
X71400Y140220D01*
X71860Y140908D01*
X72022Y141720D01*
X71860Y142532D01*
X71400Y143220D01*
X70712Y143680D01*
X69900Y143842D01*
D02*
G37*
G36*
X56340Y142422D02*
X55528Y142260D01*
X54840Y141800D01*
X54380Y141112D01*
X54218Y140300D01*
X54380Y139488D01*
X54840Y138800D01*
X55528Y138340D01*
X55908Y138264D01*
X55859Y137764D01*
X52421D01*
X52387Y137787D01*
X51575Y137949D01*
X50763Y137787D01*
X50074Y137327D01*
X49614Y136639D01*
X49453Y135827D01*
X49614Y135015D01*
X50074Y134326D01*
X50763Y133866D01*
X51575Y133705D01*
X52387Y133866D01*
X52421Y133890D01*
X59428D01*
X59478Y133390D01*
X59329Y133360D01*
X58828Y133260D01*
X58140Y132800D01*
X57680Y132112D01*
X57518Y131300D01*
X57680Y130488D01*
X58140Y129800D01*
X58828Y129340D01*
X59640Y129178D01*
X60452Y129340D01*
X61140Y129800D01*
X61600Y130488D01*
X61762Y131300D01*
X61600Y132112D01*
X61140Y132800D01*
X60452Y133260D01*
X59951Y133360D01*
X59803Y133390D01*
X59852Y133890D01*
X84631D01*
X91749Y126771D01*
X91714Y126272D01*
X90517Y125374D01*
X90483Y125336D01*
X90440Y125308D01*
X90390Y125233D01*
X90331Y125167D01*
X90314Y125119D01*
X90285Y125076D01*
X90268Y124988D01*
X90238Y124904D01*
X90241Y124853D01*
X90231Y124803D01*
X90231Y111417D01*
X90285Y111144D01*
X90440Y110913D01*
X91228Y110125D01*
X91459Y109970D01*
X91732Y109916D01*
X109449Y109916D01*
X109722Y109970D01*
X109953Y110125D01*
X110938Y111109D01*
X111092Y111341D01*
X111147Y111614D01*
Y111710D01*
X113159Y113697D01*
X116131D01*
X117051Y112777D01*
Y100718D01*
X116551Y100566D01*
X116180Y101120D01*
X115492Y101580D01*
X114680Y101742D01*
X113868Y101580D01*
X113180Y101120D01*
X112720Y100432D01*
X112558Y99620D01*
X112720Y98808D01*
X113180Y98120D01*
X113868Y97660D01*
X114680Y97498D01*
X115492Y97660D01*
X116180Y98120D01*
X116551Y98674D01*
X117051Y98522D01*
Y80087D01*
X117167Y79199D01*
X117510Y78372D01*
X118055Y77662D01*
X127542Y68175D01*
X128252Y67630D01*
X129079Y67287D01*
X129967Y67171D01*
X179948D01*
X186786Y60332D01*
Y55670D01*
X186841Y55397D01*
X186995Y55165D01*
X191335Y50825D01*
X191567Y50671D01*
X191840Y50616D01*
X204620D01*
X204893Y50671D01*
X205125Y50825D01*
X209840Y55541D01*
X235697D01*
X239701Y51537D01*
Y9360D01*
X239817Y8775D01*
X240149Y8279D01*
X244229Y4199D01*
X244725Y3867D01*
X245310Y3751D01*
X285430D01*
X286015Y3867D01*
X286511Y4199D01*
X290761Y8449D01*
X291093Y8945D01*
X291209Y9530D01*
Y40413D01*
X291640Y41058D01*
X291802Y41870D01*
X291640Y42682D01*
X291180Y43370D01*
X290492Y43830D01*
X289680Y43992D01*
X288868Y43830D01*
X288180Y43370D01*
X287720Y42682D01*
X287558Y41870D01*
X287720Y41058D01*
X288151Y40413D01*
Y10164D01*
X284797Y6809D01*
X245943D01*
X242759Y9994D01*
Y52170D01*
X242643Y52755D01*
X242311Y53251D01*
X237411Y58151D01*
X236915Y58483D01*
X236330Y58599D01*
X209910D01*
X209684Y58826D01*
Y60130D01*
X209629Y60403D01*
X209475Y60635D01*
X206025Y64085D01*
X206024Y64085D01*
X206024Y64085D01*
X205911Y64161D01*
X205793Y64239D01*
X205793Y64239D01*
X205793Y64240D01*
X205657Y64267D01*
X205520Y64294D01*
X205520Y64294D01*
X205520Y64294D01*
X192534Y64284D01*
X183793Y73025D01*
X183083Y73570D01*
X182256Y73913D01*
X181369Y74029D01*
X131387D01*
X129813Y75603D01*
X130060Y76064D01*
X130190Y76038D01*
X131002Y76200D01*
X131690Y76660D01*
X132150Y77348D01*
X132312Y78160D01*
X132150Y78972D01*
X131690Y79660D01*
X131002Y80120D01*
X130190Y80282D01*
X129378Y80120D01*
X128690Y79660D01*
X128230Y78972D01*
X128068Y78160D01*
X128094Y78030D01*
X127633Y77783D01*
X123909Y81507D01*
Y114197D01*
X123793Y115085D01*
X123450Y115912D01*
X122905Y116622D01*
X119976Y119551D01*
X119266Y120096D01*
X118439Y120439D01*
X117551Y120555D01*
X113131D01*
X111147Y122540D01*
Y124606D01*
X111092Y124879D01*
X110938Y125111D01*
X109757Y126292D01*
X109525Y126447D01*
X109252Y126501D01*
X98987D01*
X96009Y127990D01*
X86803Y137197D01*
X86174Y137617D01*
X85433Y137764D01*
X56821D01*
X56772Y138264D01*
X57152Y138340D01*
X57840Y138800D01*
X58300Y139488D01*
X58462Y140300D01*
X58300Y141112D01*
X57840Y141800D01*
X57152Y142260D01*
X56340Y142422D01*
D02*
G37*
G36*
X231310Y192002D02*
X230498Y191840D01*
X229810Y191380D01*
X229693Y191206D01*
X182500D01*
X181993Y191105D01*
X181563Y190817D01*
X170103Y179357D01*
X169815Y178927D01*
X169714Y178420D01*
Y120089D01*
X169815Y119581D01*
X170103Y119151D01*
X200161Y89093D01*
X200591Y88805D01*
X201099Y88705D01*
X207261D01*
X208649Y87316D01*
X208608Y87110D01*
X208770Y86298D01*
X209230Y85610D01*
X209918Y85150D01*
X210730Y84988D01*
X211542Y85150D01*
X212230Y85610D01*
X212690Y86298D01*
X212852Y87110D01*
X212690Y87922D01*
X212230Y88610D01*
X211542Y89070D01*
X210730Y89232D01*
X210524Y89191D01*
X208747Y90967D01*
X208317Y91255D01*
X207810Y91356D01*
X201648D01*
X172365Y120638D01*
Y137052D01*
X172829Y137348D01*
X172865Y137343D01*
X173303Y136689D01*
X173991Y136229D01*
X174803Y136067D01*
X175615Y136229D01*
X175997Y136484D01*
X180079D01*
X180586Y136585D01*
X181003Y136864D01*
X201002D01*
X201312Y136363D01*
X201188Y135740D01*
X201350Y134928D01*
X201810Y134240D01*
X202498Y133780D01*
X203310Y133618D01*
X204122Y133780D01*
X204810Y134240D01*
X205270Y134928D01*
X205432Y135740D01*
X205308Y136363D01*
X205618Y136864D01*
X213979D01*
X214486Y136964D01*
X214916Y137252D01*
X216044Y138379D01*
X216250Y138338D01*
X217062Y138500D01*
X217115Y138535D01*
X217434Y138147D01*
X214086Y134799D01*
X213513Y134933D01*
X213160Y135460D01*
X212472Y135920D01*
X211660Y136082D01*
X210848Y135920D01*
X210160Y135460D01*
X209700Y134772D01*
X209538Y133960D01*
X209700Y133148D01*
X210160Y132460D01*
X210848Y132000D01*
X211660Y131838D01*
X211761Y131755D01*
Y120483D01*
X211262Y120120D01*
X210750Y120222D01*
X209938Y120060D01*
X209250Y119600D01*
X208790Y118912D01*
X208628Y118100D01*
X208790Y117288D01*
X209250Y116600D01*
X209938Y116140D01*
X210750Y115978D01*
X211262Y116080D01*
X211761Y115717D01*
Y110294D01*
X211761Y110294D01*
X211870Y109748D01*
X212180Y109284D01*
X212860Y108604D01*
Y108019D01*
X212360Y107752D01*
X212032Y107970D01*
X211220Y108132D01*
X210408Y107970D01*
X209720Y107510D01*
X209260Y106822D01*
X209098Y106010D01*
X209260Y105198D01*
X209720Y104510D01*
X210408Y104050D01*
X211220Y103888D01*
X212032Y104050D01*
X212360Y104269D01*
X212860Y104001D01*
Y102348D01*
X212356Y101845D01*
X212270Y101862D01*
X211458Y101700D01*
X210770Y101240D01*
X210310Y100552D01*
X210148Y99740D01*
X210310Y98928D01*
X210770Y98240D01*
X211458Y97780D01*
X212270Y97618D01*
X213082Y97780D01*
X213770Y98240D01*
X214230Y98928D01*
X214392Y99740D01*
X214375Y99826D01*
X215296Y100748D01*
X215296Y100748D01*
X215606Y101211D01*
X215714Y101757D01*
Y109187D01*
X216382Y109320D01*
X216623Y109481D01*
X217024Y109314D01*
X217345Y108835D01*
X224704Y101475D01*
X224657Y101240D01*
X224819Y100428D01*
X225278Y99740D01*
X225967Y99280D01*
X226779Y99118D01*
X226960Y99154D01*
X227433Y98787D01*
X227442Y98632D01*
X227220Y98212D01*
X226408Y98051D01*
X225720Y97591D01*
X225260Y96902D01*
X225098Y96090D01*
X225260Y95278D01*
X225720Y94590D01*
X226408Y94130D01*
X227220Y93968D01*
X228032Y94130D01*
X228720Y94590D01*
X229180Y95278D01*
X229342Y96090D01*
X229337Y96116D01*
X230255Y97035D01*
X230576Y97515D01*
X230688Y98080D01*
Y116805D01*
X230710Y116820D01*
X231170Y117508D01*
X231332Y118320D01*
X231170Y119132D01*
X230710Y119820D01*
X230022Y120280D01*
X229210Y120442D01*
X228398Y120280D01*
X227710Y119820D01*
X227250Y119132D01*
X227088Y118320D01*
X227250Y117508D01*
X227710Y116820D01*
X227732Y116805D01*
Y108103D01*
X227232Y107713D01*
X226779Y107803D01*
X226753Y107798D01*
X224568Y109982D01*
Y114645D01*
X224590Y114660D01*
X225050Y115348D01*
X225212Y116160D01*
X225050Y116972D01*
X224590Y117660D01*
X223902Y118120D01*
X223090Y118282D01*
X222278Y118120D01*
X221590Y117660D01*
X221130Y116972D01*
X220968Y116160D01*
X221130Y115348D01*
X221590Y114660D01*
X221612Y114645D01*
Y109456D01*
X221405Y109310D01*
X221129Y109231D01*
X219868Y110492D01*
Y115285D01*
X219890Y115300D01*
X220350Y115988D01*
X220512Y116800D01*
X220350Y117612D01*
X219890Y118300D01*
X219202Y118760D01*
X218390Y118922D01*
X217578Y118760D01*
X217438Y118667D01*
X216997Y118903D01*
Y131269D01*
X244209Y158481D01*
X244209Y158481D01*
X244519Y158944D01*
X244627Y159490D01*
X244627Y159490D01*
Y185251D01*
X244700Y185300D01*
X245160Y185988D01*
X245322Y186800D01*
X245160Y187612D01*
X244700Y188300D01*
X244012Y188760D01*
X243200Y188922D01*
X242388Y188760D01*
X241700Y188300D01*
X241496Y187996D01*
X240895D01*
X240692Y188300D01*
X240004Y188760D01*
X239192Y188922D01*
X238380Y188760D01*
X237691Y188300D01*
X237231Y187612D01*
X237070Y186800D01*
X237110Y186598D01*
X237081Y186555D01*
X236973Y186008D01*
X236973Y186008D01*
Y157685D01*
X233879Y154592D01*
X233342Y154762D01*
X233230Y155322D01*
X232770Y156010D01*
X232082Y156470D01*
X231270Y156632D01*
X230458Y156470D01*
X229770Y156010D01*
X229310Y155322D01*
X229148Y154510D01*
X229310Y153698D01*
X229770Y153010D01*
X230458Y152550D01*
X231018Y152438D01*
X231188Y151901D01*
X218563Y139276D01*
X218175Y139595D01*
X218210Y139648D01*
X218372Y140460D01*
X218210Y141272D01*
X217750Y141960D01*
X217062Y142420D01*
X216250Y142582D01*
X215693Y142471D01*
X215446Y142932D01*
X216124Y143609D01*
X216330Y143568D01*
X217142Y143730D01*
X217830Y144190D01*
X218290Y144878D01*
X218452Y145690D01*
X218290Y146502D01*
X217830Y147190D01*
X217142Y147650D01*
X216330Y147812D01*
X215518Y147650D01*
X214830Y147190D01*
X214370Y146502D01*
X214208Y145690D01*
X214249Y145484D01*
X210182Y141416D01*
X185754D01*
X185412Y141916D01*
X185522Y142470D01*
X185360Y143282D01*
X184900Y143970D01*
X184212Y144430D01*
X183400Y144592D01*
X182588Y144430D01*
X181900Y143970D01*
X181440Y143282D01*
X181278Y142470D01*
X181363Y142042D01*
X181038Y141609D01*
X180634Y141591D01*
X179946Y142051D01*
X179134Y142212D01*
X178322Y142051D01*
X177634Y141591D01*
X177173Y140903D01*
X177012Y140091D01*
X177025Y140023D01*
X176612Y139538D01*
X176400Y139546D01*
X176304Y139689D01*
X175615Y140149D01*
X174803Y140311D01*
X173991Y140149D01*
X173303Y139689D01*
X172865Y139035D01*
X172829Y139030D01*
X172365Y139326D01*
Y177871D01*
X183049Y188555D01*
X229693D01*
X229810Y188380D01*
X230498Y187920D01*
X231310Y187758D01*
X232122Y187920D01*
X232810Y188380D01*
X233270Y189068D01*
X233432Y189880D01*
X233270Y190692D01*
X232810Y191380D01*
X232122Y191840D01*
X231310Y192002D01*
D02*
G37*
G36*
X24409Y143461D02*
X23147Y143295D01*
X21970Y142808D01*
X20960Y142033D01*
X20184Y141022D01*
X19697Y139845D01*
X19531Y138583D01*
X19697Y137320D01*
X20184Y136143D01*
X20960Y135133D01*
X21970Y134358D01*
X23147Y133870D01*
X24409Y133704D01*
X25672Y133870D01*
X26849Y134358D01*
X27859Y135133D01*
X28635Y136143D01*
X29122Y137320D01*
X29288Y138583D01*
X29122Y139845D01*
X28635Y141022D01*
X27859Y142033D01*
X26849Y142808D01*
X25672Y143295D01*
X24409Y143461D01*
D02*
G37*
G36*
X178910Y132552D02*
X178098Y132390D01*
X177410Y131930D01*
X176950Y131242D01*
X176788Y130430D01*
X176950Y129618D01*
X177410Y128930D01*
X178098Y128470D01*
X178910Y128308D01*
X179722Y128470D01*
X180410Y128930D01*
X180870Y129618D01*
X181032Y130430D01*
X180870Y131242D01*
X180410Y131930D01*
X179722Y132390D01*
X178910Y132552D01*
D02*
G37*
G36*
X202470Y132202D02*
X201658Y132040D01*
X200970Y131580D01*
X200510Y130892D01*
X200348Y130080D01*
X200510Y129268D01*
X200970Y128580D01*
X201658Y128120D01*
X202470Y127958D01*
X203282Y128120D01*
X203970Y128580D01*
X204430Y129268D01*
X204592Y130080D01*
X204430Y130892D01*
X203970Y131580D01*
X203282Y132040D01*
X202470Y132202D01*
D02*
G37*
G36*
X154190Y131692D02*
X153378Y131530D01*
X152690Y131070D01*
X152230Y130382D01*
X152068Y129570D01*
X152230Y128758D01*
X152690Y128070D01*
X153378Y127610D01*
X154190Y127448D01*
X155002Y127610D01*
X155690Y128070D01*
X156150Y128758D01*
X156312Y129570D01*
X156150Y130382D01*
X155690Y131070D01*
X155002Y131530D01*
X154190Y131692D01*
D02*
G37*
G36*
X266840Y129592D02*
X266028Y129430D01*
X265340Y128970D01*
X264880Y128282D01*
X264718Y127470D01*
X264880Y126658D01*
X265340Y125970D01*
X266028Y125510D01*
X266840Y125348D01*
X267652Y125510D01*
X268340Y125970D01*
X268800Y126658D01*
X268962Y127470D01*
X268800Y128282D01*
X268340Y128970D01*
X267652Y129430D01*
X266840Y129592D01*
D02*
G37*
G36*
X202692Y126230D02*
X201880Y126069D01*
X201191Y125609D01*
X200731Y124920D01*
X200570Y124108D01*
X200731Y123296D01*
X201191Y122608D01*
X201880Y122148D01*
X202692Y121986D01*
X203504Y122148D01*
X204192Y122608D01*
X204652Y123296D01*
X204814Y124108D01*
X204652Y124920D01*
X204192Y125609D01*
X203504Y126069D01*
X202692Y126230D01*
D02*
G37*
G36*
X45230Y123732D02*
X44418Y123570D01*
X43730Y123110D01*
X43270Y122422D01*
X43108Y121610D01*
X43270Y120798D01*
X43730Y120110D01*
X44418Y119650D01*
X45230Y119488D01*
X46042Y119650D01*
X46730Y120110D01*
X47190Y120798D01*
X47352Y121610D01*
X47190Y122422D01*
X46730Y123110D01*
X46042Y123570D01*
X45230Y123732D01*
D02*
G37*
G36*
X24409Y125745D02*
X23147Y125579D01*
X21970Y125091D01*
X20960Y124316D01*
X20184Y123305D01*
X19697Y122129D01*
X19531Y120866D01*
X19697Y119603D01*
X20184Y118427D01*
X20960Y117416D01*
X21970Y116641D01*
X23147Y116154D01*
X24409Y115987D01*
X25672Y116154D01*
X26849Y116641D01*
X27859Y117416D01*
X28635Y118427D01*
X29122Y119603D01*
X29288Y120866D01*
X29122Y122129D01*
X28635Y123305D01*
X27859Y124316D01*
X26849Y125091D01*
X25672Y125579D01*
X24409Y125745D01*
D02*
G37*
G36*
X269079Y116859D02*
X268267Y116698D01*
X267579Y116238D01*
X267119Y115549D01*
X266958Y114737D01*
X267119Y113925D01*
X267579Y113237D01*
X268267Y112777D01*
X269079Y112615D01*
X269892Y112777D01*
X270580Y113237D01*
X271040Y113925D01*
X271201Y114737D01*
X271040Y115549D01*
X270580Y116238D01*
X269892Y116698D01*
X269079Y116859D01*
D02*
G37*
G36*
X263568D02*
X262756Y116698D01*
X262067Y116238D01*
X261607Y115549D01*
X261446Y114737D01*
X261607Y113925D01*
X262067Y113237D01*
X262756Y112777D01*
X263568Y112615D01*
X264380Y112777D01*
X265068Y113237D01*
X265528Y113925D01*
X265690Y114737D01*
X265528Y115549D01*
X265068Y116238D01*
X264380Y116698D01*
X263568Y116859D01*
D02*
G37*
G36*
X257662D02*
X256850Y116698D01*
X256162Y116238D01*
X255702Y115549D01*
X255540Y114737D01*
X255702Y113925D01*
X256162Y113237D01*
X256850Y112777D01*
X257662Y112615D01*
X258474Y112777D01*
X259163Y113237D01*
X259623Y113925D01*
X259784Y114737D01*
X259623Y115549D01*
X259163Y116238D01*
X258474Y116698D01*
X257662Y116859D01*
D02*
G37*
G36*
X252544D02*
X251732Y116698D01*
X251044Y116238D01*
X250584Y115549D01*
X250422Y114737D01*
X250584Y113925D01*
X251044Y113237D01*
X251732Y112777D01*
X252544Y112615D01*
X253356Y112777D01*
X254045Y113237D01*
X254504Y113925D01*
X254666Y114737D01*
X254504Y115549D01*
X254045Y116238D01*
X253356Y116698D01*
X252544Y116859D01*
D02*
G37*
G36*
X137402Y121338D02*
X136057Y121161D01*
X134803Y120642D01*
X133727Y119816D01*
X132901Y118740D01*
X132382Y117487D01*
X132205Y116142D01*
X132382Y114797D01*
X132901Y113543D01*
X133727Y112467D01*
X134803Y111642D01*
X136057Y111122D01*
X137402Y110945D01*
X138747Y111122D01*
X140000Y111642D01*
X141076Y112467D01*
X141902Y113543D01*
X142421Y114797D01*
X142598Y116142D01*
X142421Y117487D01*
X141902Y118740D01*
X141076Y119816D01*
X140000Y120642D01*
X138747Y121161D01*
X137402Y121338D01*
D02*
G37*
G36*
X276240Y114272D02*
X275428Y114110D01*
X274740Y113650D01*
X274280Y112962D01*
X274118Y112150D01*
X274280Y111338D01*
X274740Y110650D01*
X275428Y110190D01*
X276240Y110028D01*
X277052Y110190D01*
X277740Y110650D01*
X278200Y111338D01*
X278362Y112150D01*
X278200Y112962D01*
X277740Y113650D01*
X277052Y114110D01*
X276240Y114272D01*
D02*
G37*
G36*
X54280Y114112D02*
X53468Y113950D01*
X52780Y113490D01*
X52320Y112802D01*
X52158Y111990D01*
X52320Y111178D01*
X52780Y110490D01*
X53468Y110030D01*
X54280Y109868D01*
X55092Y110030D01*
X55780Y110490D01*
X56240Y111178D01*
X56402Y111990D01*
X56240Y112802D01*
X55780Y113490D01*
X55092Y113950D01*
X54280Y114112D01*
D02*
G37*
G36*
X154510Y101622D02*
X153698Y101460D01*
X153010Y101000D01*
X152550Y100312D01*
X152388Y99500D01*
X152550Y98688D01*
X153010Y98000D01*
X153698Y97540D01*
X154510Y97378D01*
X155322Y97540D01*
X156010Y98000D01*
X156470Y98688D01*
X156632Y99500D01*
X156470Y100312D01*
X156010Y101000D01*
X155322Y101460D01*
X154510Y101622D01*
D02*
G37*
G36*
X262500Y100062D02*
X261688Y99900D01*
X261000Y99440D01*
X260540Y98752D01*
X260378Y97940D01*
X260540Y97128D01*
X261000Y96440D01*
X261688Y95980D01*
X262500Y95818D01*
X263312Y95980D01*
X264000Y96440D01*
X264460Y97128D01*
X264622Y97940D01*
X264460Y98752D01*
X264000Y99440D01*
X263312Y99900D01*
X262500Y100062D01*
D02*
G37*
G36*
X137402Y101653D02*
X136057Y101476D01*
X134803Y100957D01*
X133727Y100131D01*
X132901Y99055D01*
X132382Y97802D01*
X132205Y96457D01*
X132382Y95112D01*
X132901Y93858D01*
X133727Y92782D01*
X134803Y91957D01*
X136057Y91437D01*
X137402Y91260D01*
X138747Y91437D01*
X140000Y91957D01*
X141076Y92782D01*
X141902Y93858D01*
X142421Y95112D01*
X142598Y96457D01*
X142421Y97802D01*
X141902Y99055D01*
X141076Y100131D01*
X140000Y100957D01*
X138747Y101476D01*
X137402Y101653D01*
D02*
G37*
G36*
X280660Y60612D02*
X279848Y60450D01*
X279160Y59990D01*
X278700Y59302D01*
X278538Y58490D01*
X278700Y57678D01*
X279160Y56990D01*
X279848Y56530D01*
X280660Y56368D01*
X281472Y56530D01*
X282160Y56990D01*
X282620Y57678D01*
X282782Y58490D01*
X282620Y59302D01*
X282160Y59990D01*
X281472Y60450D01*
X280660Y60612D01*
D02*
G37*
G36*
X259740Y58782D02*
X258928Y58620D01*
X258240Y58160D01*
X257780Y57472D01*
X257618Y56660D01*
X257780Y55848D01*
X258240Y55160D01*
X258928Y54700D01*
X259740Y54538D01*
X260552Y54700D01*
X261240Y55160D01*
X261700Y55848D01*
X261862Y56660D01*
X261700Y57472D01*
X261240Y58160D01*
X260552Y58620D01*
X259740Y58782D01*
D02*
G37*
G36*
X148080Y50422D02*
X147268Y50260D01*
X146580Y49800D01*
X146120Y49112D01*
X145958Y48300D01*
X146120Y47488D01*
X146580Y46800D01*
X147268Y46340D01*
X148080Y46178D01*
X148892Y46340D01*
X149580Y46800D01*
X150040Y47488D01*
X150202Y48300D01*
X150040Y49112D01*
X149580Y49800D01*
X148892Y50260D01*
X148080Y50422D01*
D02*
G37*
G36*
X258680Y49641D02*
X257983Y49502D01*
X257393Y49108D01*
X256998Y48517D01*
X256859Y47820D01*
X256998Y47123D01*
X257393Y46532D01*
X257983Y46138D01*
X258680Y45999D01*
X259377Y46138D01*
X259967Y46532D01*
X260362Y47123D01*
X260501Y47820D01*
X260362Y48517D01*
X259967Y49108D01*
X259377Y49502D01*
X258680Y49641D01*
D02*
G37*
G36*
X221654Y53698D02*
X220391Y53531D01*
X219214Y53044D01*
X218204Y52269D01*
X217428Y51258D01*
X216941Y50082D01*
X216775Y48819D01*
Y40945D01*
X216941Y39682D01*
X217428Y38506D01*
X218204Y37495D01*
X219214Y36720D01*
X220391Y36232D01*
X221654Y36066D01*
X222916Y36232D01*
X224093Y36720D01*
X225103Y37495D01*
X225879Y38506D01*
X226366Y39682D01*
X226532Y40945D01*
Y48819D01*
X226366Y50082D01*
X225879Y51258D01*
X225103Y52269D01*
X224093Y53044D01*
X222916Y53531D01*
X221654Y53698D01*
D02*
G37*
G36*
X134252Y34405D02*
X133440Y34244D01*
X132752Y33784D01*
X132292Y33095D01*
X132130Y32283D01*
X132292Y31471D01*
X132752Y30783D01*
X133440Y30323D01*
X134252Y30162D01*
X135064Y30323D01*
X135752Y30783D01*
X136212Y31471D01*
X136374Y32283D01*
X136212Y33095D01*
X135752Y33784D01*
X135064Y34244D01*
X134252Y34405D01*
D02*
G37*
G36*
X206693Y37162D02*
X198819D01*
X197556Y36996D01*
X196379Y36509D01*
X195369Y35733D01*
X194594Y34723D01*
X194106Y33546D01*
X193940Y32283D01*
X194106Y31021D01*
X194594Y29844D01*
X195369Y28834D01*
X196379Y28058D01*
X197556Y27571D01*
X198819Y27405D01*
X206693D01*
X207956Y27571D01*
X209132Y28058D01*
X210143Y28834D01*
X210918Y29844D01*
X211405Y31021D01*
X211572Y32283D01*
X211405Y33546D01*
X210918Y34723D01*
X210143Y35733D01*
X209132Y36509D01*
X207956Y36996D01*
X206693Y37162D01*
D02*
G37*
G36*
X258680Y30360D02*
X257868Y30198D01*
X257180Y29738D01*
X256720Y29050D01*
X256558Y28238D01*
X256720Y27426D01*
X257180Y26738D01*
X257868Y26278D01*
X258680Y26116D01*
X259492Y26278D01*
X260180Y26738D01*
X260640Y27426D01*
X260802Y28238D01*
X260640Y29050D01*
X260180Y29738D01*
X259492Y30198D01*
X258680Y30360D01*
D02*
G37*
G36*
X281840Y29192D02*
X281028Y29030D01*
X280340Y28570D01*
X279880Y27882D01*
X279718Y27070D01*
X279880Y26258D01*
X280340Y25570D01*
X281028Y25110D01*
X281840Y24948D01*
X282652Y25110D01*
X283340Y25570D01*
X283800Y26258D01*
X283962Y27070D01*
X283800Y27882D01*
X283340Y28570D01*
X282652Y29030D01*
X281840Y29192D01*
D02*
G37*
G36*
X122990Y26892D02*
X122178Y26730D01*
X121490Y26270D01*
X121030Y25582D01*
X120868Y24770D01*
X121030Y23958D01*
X121490Y23270D01*
X122178Y22810D01*
X122990Y22648D01*
X123802Y22810D01*
X124490Y23270D01*
X124950Y23958D01*
X125112Y24770D01*
X124950Y25582D01*
X124490Y26270D01*
X123802Y26730D01*
X122990Y26892D01*
D02*
G37*
G36*
X202756Y19644D02*
X201442Y19471D01*
X200217Y18964D01*
X199166Y18157D01*
X198359Y17106D01*
X197852Y15881D01*
X197679Y14567D01*
X197852Y13253D01*
X198359Y12028D01*
X199166Y10977D01*
X200217Y10170D01*
X201442Y9663D01*
X202756Y9490D01*
X204070Y9663D01*
X205295Y10170D01*
X206346Y10977D01*
X207153Y12028D01*
X207660Y13253D01*
X207833Y14567D01*
X207660Y15881D01*
X207153Y17106D01*
X206346Y18157D01*
X205295Y18964D01*
X204070Y19471D01*
X202756Y19644D01*
D02*
G37*
G36*
X155905Y13128D02*
X155208Y13036D01*
X154558Y12767D01*
X154000Y12338D01*
X153572Y11780D01*
X153303Y11130D01*
X153211Y10433D01*
X153303Y9736D01*
X153572Y9086D01*
X154000Y8528D01*
X154558Y8099D01*
X155208Y7830D01*
X155905Y7738D01*
X156603Y7830D01*
X157253Y8099D01*
X157811Y8528D01*
X158239Y9086D01*
X158508Y9736D01*
X158600Y10433D01*
X158508Y11130D01*
X158239Y11780D01*
X157811Y12338D01*
X157253Y12767D01*
X156603Y13036D01*
X155905Y13128D01*
D02*
G37*
G36*
X144095D02*
X143397Y13036D01*
X142747Y12767D01*
X142189Y12338D01*
X141761Y11780D01*
X141492Y11130D01*
X141400Y10433D01*
X141492Y9736D01*
X141761Y9086D01*
X142189Y8528D01*
X142747Y8099D01*
X143397Y7830D01*
X144095Y7738D01*
X144792Y7830D01*
X145442Y8099D01*
X146000Y8528D01*
X146428Y9086D01*
X146697Y9736D01*
X146789Y10433D01*
X146697Y11130D01*
X146428Y11780D01*
X146000Y12338D01*
X145442Y12767D01*
X144792Y13036D01*
X144095Y13128D01*
D02*
G37*
%LPD*%
G36*
X98819Y125787D02*
X109252D01*
X110433Y124606D01*
Y122244D01*
X113079Y119599D01*
Y114620D01*
X110433Y112008D01*
Y111614D01*
X109449Y110630D01*
X91732Y110630D01*
X90945Y111417D01*
X90945Y124803D01*
X94095Y127165D01*
X94882Y127756D01*
X98819Y125787D01*
D02*
G37*
G36*
X208970Y60130D02*
Y58530D01*
X209790Y57710D01*
X209790Y56500D01*
X204620Y51330D01*
X191840D01*
X187500Y55670D01*
Y60980D01*
X191800Y63570D01*
X205520Y63580D01*
X208970Y60130D01*
D02*
G37*
G36*
X241773Y185218D02*
Y160081D01*
X240289Y158598D01*
X239827Y158789D01*
Y184805D01*
X240004Y184840D01*
X240692Y185300D01*
X240895Y185604D01*
X241419D01*
X241773Y185218D01*
D02*
G37*
%LPC*%
G36*
X356502Y146873D02*
X354277D01*
Y144648D01*
X354322Y144654D01*
X355064Y144961D01*
X355700Y145450D01*
X356189Y146086D01*
X356496Y146828D01*
X356502Y146873D01*
D02*
G37*
G36*
X351920Y161002D02*
X319490D01*
X318846Y160874D01*
X318300Y160510D01*
X318300Y160510D01*
X309060Y151270D01*
X308696Y150724D01*
X308568Y150080D01*
Y92310D01*
X307700D01*
Y91053D01*
X304959D01*
X304315Y90925D01*
X303769Y90560D01*
X302890Y89681D01*
X302526Y89136D01*
X302398Y88492D01*
Y78931D01*
X302526Y78287D01*
X302890Y77741D01*
X303769Y76863D01*
X304315Y76498D01*
X304959Y76370D01*
X305367D01*
Y75805D01*
X304867Y75483D01*
X304270Y75602D01*
X303458Y75440D01*
X302770Y74980D01*
X302310Y74292D01*
X302148Y73480D01*
X302310Y72668D01*
X302588Y72252D01*
Y66864D01*
X302716Y66220D01*
X303080Y65674D01*
X303390Y65365D01*
Y62544D01*
X307890D01*
Y67744D01*
X305952D01*
Y68430D01*
X307480D01*
Y70980D01*
X308230D01*
Y71730D01*
X311130D01*
Y73530D01*
X309912D01*
Y75009D01*
X311167D01*
Y76809D01*
X308267D01*
Y78309D01*
X311167D01*
Y80109D01*
X311406Y80510D01*
X312500D01*
Y80510D01*
X312950Y80480D01*
Y80480D01*
X312988Y80480D01*
X314351D01*
X314610Y79980D01*
X314489Y79809D01*
X311967D01*
Y75309D01*
X317167D01*
Y77335D01*
X320632D01*
X321276Y77464D01*
X321432Y77568D01*
X324046D01*
Y81251D01*
X318001D01*
Y80700D01*
X317450D01*
Y82548D01*
X321024D01*
X321124Y82568D01*
X324046D01*
Y86251D01*
X318001D01*
Y85912D01*
X315973D01*
X315329Y85784D01*
X315173Y85680D01*
X312950D01*
Y85680D01*
X312500Y85710D01*
Y85710D01*
X312462Y85710D01*
X308000D01*
Y85076D01*
X307931Y84988D01*
X307500Y84718D01*
X306881Y84841D01*
X306262Y84718D01*
X305762Y85031D01*
Y87688D01*
X307700D01*
Y86510D01*
X309500D01*
Y89410D01*
X311000D01*
Y86510D01*
X312562D01*
X312800Y86510D01*
X313188Y86780D01*
X313300Y86780D01*
X317450D01*
Y87708D01*
X318001D01*
Y87568D01*
X324046D01*
Y91251D01*
X323265D01*
X322998Y91751D01*
X323151Y91980D01*
X323279Y92624D01*
X323279Y92624D01*
Y93381D01*
X324803D01*
X325076Y93435D01*
X325308Y93590D01*
X325701Y93984D01*
X325856Y94215D01*
X325911Y94488D01*
Y109153D01*
X327067Y110310D01*
X328346D01*
X328620Y110364D01*
X328851Y110519D01*
X329245Y110913D01*
X329399Y111144D01*
X329454Y111417D01*
X329454Y116929D01*
X329399Y117202D01*
X329245Y117434D01*
X328851Y117827D01*
X328620Y117982D01*
X328346Y118036D01*
X318013Y118037D01*
X317740Y117982D01*
X317508Y117827D01*
X317212Y117531D01*
X317057Y117300D01*
X317003Y117026D01*
X317003Y94488D01*
X317057Y94215D01*
X317212Y93984D01*
X317606Y93590D01*
X317837Y93435D01*
X318110Y93381D01*
X319326D01*
X319594Y92881D01*
X319469Y92695D01*
X319341Y92051D01*
Y91251D01*
X318001D01*
Y91072D01*
X317450D01*
Y91980D01*
X313163Y91980D01*
X312800Y92310D01*
X312587Y92310D01*
X311932D01*
Y149383D01*
X320187Y157638D01*
X326039D01*
X326094Y157557D01*
X325965Y156878D01*
X325684Y156690D01*
X324220Y155226D01*
X323745Y154514D01*
X323578Y153675D01*
Y139000D01*
X323745Y138161D01*
X324220Y137450D01*
X331308Y130362D01*
Y118467D01*
X330668Y117827D01*
X330668Y117827D01*
X330514Y117673D01*
X330028D01*
Y114923D01*
X330760D01*
Y116910D01*
X331173Y117323D01*
X331173D01*
D01*
X338017Y117323D01*
X338742Y116597D01*
X338743Y95413D01*
X338050Y94720D01*
X335846D01*
Y93881D01*
X337893D01*
X338084Y93420D01*
X334066Y89401D01*
X333701Y88855D01*
X333573Y88211D01*
Y72300D01*
X333701Y71656D01*
X334066Y71110D01*
X336956Y68220D01*
X336956Y68220D01*
X337502Y67855D01*
X338146Y67727D01*
X338146Y67727D01*
X338946D01*
Y67568D01*
X344991D01*
Y67727D01*
X349368D01*
Y66254D01*
X349368D01*
Y66030D01*
X349368D01*
Y61575D01*
X349306Y61567D01*
X349283Y61554D01*
X349257Y61549D01*
X349162Y61486D01*
X349063Y61430D01*
X349047Y61409D01*
X349025Y61395D01*
X348665Y61035D01*
X348464Y60964D01*
X347820Y61092D01*
X345291D01*
Y61551D01*
X342719D01*
Y59409D01*
X341968D01*
Y58659D01*
X338646D01*
Y57268D01*
X340286D01*
Y55700D01*
X339226D01*
Y53900D01*
X342126D01*
X345026D01*
Y55700D01*
X343651D01*
Y57268D01*
X345291D01*
Y57727D01*
X347123D01*
X347378Y57472D01*
X347378Y57472D01*
X347924Y57107D01*
X348120Y57068D01*
X348505Y56683D01*
X348511Y56657D01*
X348665Y56425D01*
X350286Y54805D01*
Y52022D01*
X350414Y51378D01*
X350779Y50832D01*
X354280Y47330D01*
X354280Y47330D01*
X354826Y46966D01*
X355470Y46838D01*
X355470Y46838D01*
X361693D01*
X362738Y45793D01*
Y44812D01*
X361152D01*
Y45680D01*
X359001D01*
Y43130D01*
X358252D01*
Y42380D01*
X355351D01*
Y40580D01*
X356639D01*
X357066Y40404D01*
Y37989D01*
X359247D01*
X361428D01*
Y40404D01*
X361428D01*
X361152Y40580D01*
Y41448D01*
X363012D01*
X363569Y41076D01*
X363670Y41055D01*
Y43130D01*
X364420D01*
Y43880D01*
X366495D01*
X366475Y43981D01*
X366102Y44538D01*
Y46490D01*
X365974Y47134D01*
X365610Y47680D01*
X365610Y47680D01*
X363580Y49710D01*
X363034Y50074D01*
X362390Y50202D01*
X356167D01*
X353650Y52719D01*
Y54745D01*
X354692Y55786D01*
X354770D01*
X355043Y55841D01*
X355275Y55995D01*
X355505Y56225D01*
X355668Y56411D01*
X357617D01*
X357729Y56336D01*
X358568Y56169D01*
X361100D01*
Y53390D01*
X368800D01*
Y60790D01*
X361314D01*
X361168Y61229D01*
X361168Y61262D01*
Y62127D01*
X361205Y62164D01*
X361359Y62395D01*
X361414Y62669D01*
Y65284D01*
X361359Y65557D01*
X361205Y65789D01*
X361168Y65825D01*
Y66890D01*
X368800D01*
Y74290D01*
X364152D01*
X364039Y74365D01*
X363200Y74532D01*
X360891D01*
X360546Y74894D01*
X360553Y75032D01*
X360900Y75290D01*
X361018Y75290D01*
X368600D01*
Y82690D01*
X360959D01*
X360855Y82724D01*
X360518Y82974D01*
Y88033D01*
X356018D01*
Y87115D01*
X355400D01*
Y88033D01*
X350900D01*
Y86627D01*
X350116D01*
Y88033D01*
X345616D01*
Y87115D01*
X345106D01*
X344991Y87568D01*
X344991Y87615D01*
Y88804D01*
X345173Y88996D01*
X345616Y89133D01*
Y89133D01*
X350116D01*
Y90227D01*
X350900D01*
Y89133D01*
X355400D01*
Y94333D01*
X350900D01*
Y93592D01*
X350116D01*
Y94333D01*
X345616D01*
Y93415D01*
X344766D01*
X344122Y93287D01*
X343576Y92923D01*
X342352Y91698D01*
X342053Y91251D01*
X341328D01*
X341136Y91713D01*
X349870Y100446D01*
X350216Y100965D01*
X350333Y100981D01*
X350732Y100933D01*
X350770Y100745D01*
X351230Y100057D01*
X351918Y99597D01*
X352730Y99436D01*
X353542Y99597D01*
X354230Y100057D01*
X354690Y100745D01*
X354852Y101557D01*
X354690Y102369D01*
X354230Y103058D01*
X353542Y103518D01*
X352730Y103679D01*
X351918Y103518D01*
X351230Y103058D01*
X350862Y102508D01*
X350362Y102660D01*
Y138330D01*
X350234Y138974D01*
X349870Y139519D01*
X342290Y147099D01*
X342359Y147623D01*
X342258Y148393D01*
X341961Y149109D01*
X341489Y149725D01*
X340873Y150198D01*
X340156Y150495D01*
X339387Y150596D01*
X338617Y150495D01*
X337900Y150198D01*
X337285Y149725D01*
X336812Y149109D01*
X336515Y148393D01*
X336414Y147623D01*
X336515Y146854D01*
X336812Y146137D01*
X337285Y145521D01*
X337900Y145049D01*
X338617Y144752D01*
X339387Y144650D01*
X339911Y144720D01*
X346998Y137633D01*
Y102333D01*
X339938Y95274D01*
X339662Y95353D01*
X339456Y95499D01*
X339456Y116597D01*
X339402Y116871D01*
X339247Y117102D01*
X338522Y117827D01*
X338290Y117982D01*
X338017Y118036D01*
X336073Y118036D01*
X335692Y118417D01*
Y131270D01*
X335525Y132109D01*
X335050Y132820D01*
X327962Y139908D01*
Y152768D01*
X328142Y152948D01*
X345102D01*
X350457Y147593D01*
X350558Y146828D01*
X350865Y146086D01*
X351354Y145450D01*
X351990Y144961D01*
X352731Y144654D01*
X352777Y144648D01*
Y147623D01*
X353527D01*
Y148373D01*
X356502D01*
X356496Y148419D01*
X356189Y149160D01*
X355700Y149796D01*
X355209Y150173D01*
Y157713D01*
X355209Y157713D01*
X355081Y158357D01*
X354716Y158903D01*
X353110Y160510D01*
X352564Y160874D01*
X351920Y161002D01*
D02*
G37*
G36*
X339383Y136455D02*
X338614Y136354D01*
X337897Y136057D01*
X337281Y135584D01*
X336809Y134969D01*
X336512Y134252D01*
X336411Y133483D01*
X336512Y132713D01*
X336809Y131996D01*
X337281Y131380D01*
X337897Y130908D01*
X338614Y130611D01*
X339383Y130510D01*
X340153Y130611D01*
X340870Y130908D01*
X341485Y131380D01*
X341958Y131996D01*
X342255Y132713D01*
X342356Y133483D01*
X342255Y134252D01*
X341958Y134969D01*
X341485Y135584D01*
X340870Y136057D01*
X340153Y136354D01*
X339383Y136455D01*
D02*
G37*
G36*
X330760Y113423D02*
X330028D01*
Y110673D01*
X330046D01*
X330046Y94910D01*
X330101Y94637D01*
X330101Y94637D01*
X330101Y94637D01*
X330194Y94497D01*
X330255Y94405D01*
X330255Y94405D01*
X330255Y94405D01*
X330445Y94215D01*
X330664Y94069D01*
X330672Y94064D01*
X330672Y94064D01*
X330677Y94061D01*
X331097Y93881D01*
X331097Y93881D01*
X334347D01*
Y94720D01*
X330950D01*
X330760Y94910D01*
X330760Y113423D01*
D02*
G37*
G36*
X368600Y96190D02*
X360900D01*
Y94617D01*
X360518Y94333D01*
X356018D01*
Y89133D01*
X360518D01*
X360900Y88849D01*
Y88790D01*
X368600D01*
Y96190D01*
D02*
G37*
G36*
X311130Y70230D02*
X308980D01*
Y68430D01*
X311130D01*
Y70230D01*
D02*
G37*
G36*
X324046Y76251D02*
X318001D01*
Y73372D01*
X315240D01*
X314596Y73244D01*
X314575Y73230D01*
X311930D01*
Y68730D01*
X317130D01*
Y69148D01*
X317630Y69426D01*
X317873Y69275D01*
X317897Y69157D01*
X318001Y69001D01*
Y67568D01*
X324046D01*
Y71251D01*
X320762D01*
X320640Y71433D01*
X320640Y71433D01*
X319968Y72106D01*
X320159Y72568D01*
X324046D01*
Y76251D01*
D02*
G37*
G36*
X344991Y66251D02*
X338946D01*
Y66092D01*
X335961D01*
X335317Y65964D01*
X334771Y65599D01*
X333893Y64720D01*
X333528Y64175D01*
X333400Y63531D01*
Y55400D01*
X333226D01*
Y50900D01*
X334144D01*
Y49334D01*
X333866Y48918D01*
X333704Y48106D01*
X333866Y47294D01*
X334326Y46606D01*
X335014Y46146D01*
X335826Y45985D01*
X336638Y46146D01*
X337327Y46606D01*
X337787Y47294D01*
X337948Y48106D01*
X337787Y48918D01*
X337509Y49334D01*
Y50900D01*
X338426D01*
Y55400D01*
X336765D01*
Y62727D01*
X338946D01*
Y62568D01*
X344991D01*
Y66251D01*
D02*
G37*
G36*
X315782Y66816D02*
X309658D01*
Y60977D01*
X309408Y60596D01*
X309226Y60526D01*
X307890D01*
Y61444D01*
X303390D01*
Y56244D01*
X306362D01*
X306553Y55782D01*
X305769Y54998D01*
X305278Y54900D01*
X304590Y54440D01*
X304130Y53752D01*
X303968Y52940D01*
X304130Y52128D01*
X304590Y51440D01*
X305278Y50980D01*
X306090Y50818D01*
X306902Y50980D01*
X307590Y51440D01*
X308050Y52128D01*
X308148Y52619D01*
X309158Y53629D01*
X309658Y53421D01*
Y52424D01*
X315782D01*
Y58548D01*
X312037D01*
X310552Y60034D01*
X310315Y60192D01*
X310467Y60692D01*
X315782D01*
Y62072D01*
X319187D01*
X319831Y62200D01*
X320376Y62564D01*
X320380Y62568D01*
X324046D01*
Y66251D01*
X318001D01*
Y65436D01*
X315782D01*
Y66816D01*
D02*
G37*
G36*
X341218Y61551D02*
X338646D01*
Y60159D01*
X341218D01*
Y61551D01*
D02*
G37*
G36*
X345026Y52400D02*
X342876D01*
Y50600D01*
X345026D01*
Y52400D01*
D02*
G37*
G36*
X341376D02*
X339226D01*
Y50600D01*
X341376D01*
Y52400D01*
D02*
G37*
G36*
X354552Y45380D02*
X349352D01*
Y44149D01*
X348290D01*
Y45380D01*
X340890D01*
Y37680D01*
X348290D01*
Y40785D01*
X350084D01*
Y40104D01*
X349886D01*
Y34373D01*
X353648D01*
Y40104D01*
X353449D01*
Y40880D01*
X354552D01*
Y45380D01*
D02*
G37*
G36*
X357502Y45680D02*
X355351D01*
Y43880D01*
X357502D01*
Y45680D01*
D02*
G37*
G36*
X366495Y42380D02*
X365170D01*
Y41055D01*
X365271Y41076D01*
X365992Y41557D01*
X366475Y42279D01*
X366495Y42380D01*
D02*
G37*
G36*
X324046Y61251D02*
X318001D01*
Y59184D01*
X317968Y59018D01*
Y38296D01*
X315644D01*
X314488Y39434D01*
X314374Y39509D01*
X314261Y39585D01*
X314216Y39643D01*
X314103Y39924D01*
X314091Y40128D01*
X314542Y40716D01*
X314902Y41586D01*
X315025Y42520D01*
X314902Y43453D01*
X314542Y44324D01*
X313969Y45071D01*
X313221Y45644D01*
X312351Y46005D01*
X311417Y46128D01*
X310484Y46005D01*
X309613Y45644D01*
X308866Y45071D01*
X308293Y44324D01*
X307932Y43453D01*
X307809Y42520D01*
X307932Y41586D01*
X308293Y40716D01*
X308866Y39968D01*
X308883Y39955D01*
X308929Y39745D01*
X308888Y39321D01*
X308087Y38520D01*
X307932Y38289D01*
X307878Y38015D01*
Y37134D01*
X307809Y36614D01*
X307878Y36094D01*
Y35285D01*
X307932Y35012D01*
X308087Y34781D01*
X308906Y33962D01*
X308933Y33917D01*
X308977Y33537D01*
X308931Y33310D01*
X308866Y33260D01*
X308780Y33148D01*
X308257Y32625D01*
X308102Y32393D01*
X308048Y32120D01*
Y31921D01*
X307932Y31642D01*
X307809Y30709D01*
X307932Y29775D01*
X308048Y29496D01*
Y29390D01*
X308102Y29117D01*
X308257Y28885D01*
X308475Y28667D01*
X308866Y28157D01*
X309064Y28006D01*
Y27506D01*
X308866Y27354D01*
X308293Y26607D01*
X307932Y25737D01*
X307809Y24803D01*
X307932Y23869D01*
X308293Y22999D01*
X308866Y22252D01*
X308981Y22163D01*
Y21663D01*
X308795Y21520D01*
X308205Y20752D01*
X307835Y19858D01*
X307807Y19648D01*
X308990D01*
Y19930D01*
X309540Y20480D01*
X342680Y20480D01*
X343640Y21440D01*
Y23660D01*
X342626D01*
Y21594D01*
X342226Y21194D01*
X341820D01*
X341326Y21210D01*
Y27609D01*
X341290D01*
X341182Y28065D01*
X341182D01*
Y32565D01*
X335982D01*
Y28065D01*
X335982D01*
X335893Y27688D01*
X335426Y27610D01*
X334927Y27612D01*
X334927Y27822D01*
Y32522D01*
X330427D01*
Y32522D01*
X330203D01*
Y32522D01*
X325703D01*
Y32522D01*
X325247Y32629D01*
Y34259D01*
X318847D01*
Y32991D01*
X315215D01*
X314658Y33539D01*
X314544Y33614D01*
X314431Y33689D01*
X314428Y33690D01*
X314426Y33691D01*
X314423Y33692D01*
X314273Y34002D01*
X314258Y34234D01*
X314956Y34932D01*
X318684D01*
X319328Y35060D01*
X319874Y35425D01*
X320840Y36390D01*
X321204Y36936D01*
X321332Y37580D01*
Y39832D01*
X321832Y40002D01*
X322110Y39640D01*
X322664Y39215D01*
X323308Y38948D01*
X324000Y38857D01*
X327390D01*
Y37680D01*
X334790D01*
Y45380D01*
X327390D01*
Y44203D01*
X324000D01*
X323308Y44112D01*
X322664Y43845D01*
X322110Y43420D01*
X321832Y43058D01*
X321332Y43228D01*
Y57568D01*
X324046D01*
Y61251D01*
D02*
G37*
G36*
X361428Y36489D02*
X359997D01*
Y34073D01*
X361428D01*
Y36489D01*
D02*
G37*
G36*
X358497D02*
X357066D01*
Y34073D01*
X358497D01*
Y36489D01*
D02*
G37*
G36*
X358544Y32819D02*
X352470D01*
X351885Y32703D01*
X351388Y32371D01*
X350685Y31668D01*
X350354Y31172D01*
X350309Y30945D01*
X349735Y30359D01*
X349661Y30246D01*
X349647Y30224D01*
X349572Y30123D01*
X349536Y30100D01*
X349185Y29909D01*
X349059Y29881D01*
X349054Y29881D01*
X348761Y29939D01*
X347597D01*
X347595Y29950D01*
X347482Y30119D01*
Y32565D01*
X342282D01*
Y28065D01*
X342626Y27909D01*
Y25159D01*
X343640D01*
Y26910D01*
X348140D01*
X348147Y25159D01*
X349126D01*
Y26731D01*
X349886D01*
Y24137D01*
X353825D01*
Y23354D01*
X352511Y22040D01*
X349690D01*
Y17540D01*
X354890D01*
Y19661D01*
X355528Y20299D01*
X355990Y20108D01*
Y17540D01*
X356558D01*
Y16637D01*
X352523Y12602D01*
X342445D01*
X341411Y13636D01*
X341618Y14136D01*
X343760D01*
X344033Y14191D01*
X344265Y14345D01*
X344265Y14345D01*
X348675Y18756D01*
X348676Y18757D01*
X348677Y18757D01*
X348752Y18871D01*
X348830Y18987D01*
X348830Y18988D01*
X348831Y18990D01*
X348857Y19124D01*
X348884Y19260D01*
X348884Y19262D01*
X348884Y19263D01*
X348878Y20661D01*
X349126Y20910D01*
X349126D01*
Y23660D01*
X348153D01*
X348170Y19260D01*
X343760Y14850D01*
X319640Y14850D01*
X317910Y16580D01*
X310030D01*
X308990Y17620D01*
Y18148D01*
X307807D01*
X307835Y17938D01*
X308205Y17043D01*
X308795Y16275D01*
X308981Y16132D01*
Y15632D01*
X308866Y15543D01*
X308293Y14796D01*
X307932Y13926D01*
X307809Y12992D01*
X307932Y12058D01*
X308006Y11880D01*
Y10670D01*
X308061Y10397D01*
X308215Y10165D01*
X312255Y6125D01*
X312487Y5971D01*
X312760Y5916D01*
X339060Y5916D01*
X339333Y5971D01*
X339565Y6125D01*
X340125Y6686D01*
X340208D01*
Y6769D01*
X340845Y7405D01*
X340999Y7637D01*
X341022Y7753D01*
X342507Y9238D01*
X353220D01*
X353864Y9366D01*
X354410Y9730D01*
X359430Y14750D01*
X359794Y15296D01*
X359922Y15940D01*
Y17540D01*
X361190D01*
Y22040D01*
X357461D01*
X357143Y22426D01*
X357189Y22657D01*
Y24137D01*
X361128D01*
Y29868D01*
X360777D01*
Y30587D01*
X360660Y31172D01*
X360329Y31668D01*
X359626Y32371D01*
X359130Y32703D01*
X358544Y32819D01*
D02*
G37*
%LPD*%
G36*
X334740Y118360D02*
X335777Y117323D01*
X331173Y117323D01*
X332250Y118400D01*
X334740D01*
Y118360D01*
D02*
G37*
G36*
X328346Y117323D02*
X328740Y116929D01*
X328740Y111417D01*
X328346Y111024D01*
X326772D01*
X325197Y109449D01*
Y94488D01*
X324803Y94095D01*
X322944Y94095D01*
X322330Y93480D01*
X320870D01*
X320406Y94095D01*
X318110Y94095D01*
X317717Y94488D01*
X317717Y117026D01*
X318013Y117323D01*
X328346Y117323D01*
D02*
G37*
G36*
X360700Y65284D02*
Y62669D01*
X360236Y62205D01*
X356693D01*
X355000Y60512D01*
X355000Y56730D01*
X354770Y56500D01*
X354354D01*
Y56457D01*
X352727Y54831D01*
X352688Y54870D01*
X351230D01*
X349600Y56500D01*
X349170Y56930D01*
Y57563D01*
X349169Y57563D01*
Y57028D01*
X348012Y58186D01*
Y60145D01*
X348784D01*
X349170Y60530D01*
Y60530D01*
X349530Y60890D01*
X353690D01*
X355906Y63105D01*
X355906Y65354D01*
X356299Y65748D01*
X360236D01*
X360700Y65284D01*
D02*
G37*
G36*
X313988Y38925D02*
X315670Y37270D01*
X315670Y36655D01*
X313380Y34365D01*
X309511Y34365D01*
X308591Y35285D01*
Y38015D01*
X309501Y38925D01*
X313988Y38925D01*
D02*
G37*
G36*
X314158Y33030D02*
X315840Y31375D01*
X315840Y30760D01*
X313550Y28470D01*
X309682Y28470D01*
X308762Y29390D01*
Y32120D01*
X309671Y33030D01*
X314158Y33030D01*
D02*
G37*
G36*
X318847Y28359D02*
X325247D01*
Y28359D01*
X325703Y28252D01*
Y27495D01*
X325622Y27267D01*
X325311Y27059D01*
X322797D01*
Y23809D01*
X322047D01*
Y23059D01*
X318547D01*
Y21194D01*
X314290Y21194D01*
X314040Y21520D01*
X313853Y21663D01*
Y22163D01*
X313969Y22252D01*
X314542Y22999D01*
X314902Y23869D01*
X315025Y24803D01*
X314902Y25737D01*
X314542Y26607D01*
X313969Y27354D01*
X313957Y27391D01*
X314022Y27944D01*
X314055Y27965D01*
X315716Y29627D01*
X318847D01*
Y28359D01*
D02*
G37*
G36*
X324286Y21615D02*
X324536Y21563D01*
X323499Y20553D01*
X320569Y20567D01*
X319575Y21561D01*
X320080Y22200D01*
X320201Y22321D01*
Y22854D01*
X322966D01*
X323006Y22895D01*
X324286Y21615D01*
D02*
G37*
%LPC*%
G36*
X321297Y27059D02*
X318547D01*
Y24559D01*
X321297D01*
Y27059D01*
D02*
G37*
%LPD*%
G36*
X352960Y29860D02*
X350246Y29860D01*
X351282Y30920D01*
X352118Y30939D01*
X352960Y29860D01*
D02*
G37*
G36*
X312985Y14965D02*
X314410Y13540D01*
X339064D01*
X340440Y13597D01*
X342336Y11702D01*
X342365Y10153D01*
X342332Y10072D01*
X340340Y8080D01*
Y7910D01*
X339060Y6630D01*
X312760Y6630D01*
X308720Y10670D01*
Y13560D01*
X310206Y15046D01*
X312985Y14965D01*
D02*
G37*
D103*
X13878Y193701D02*
D03*
X202756Y14567D02*
D03*
D109*
X314530Y70980D02*
D03*
X308230D02*
D03*
X314567Y77559D02*
D03*
X308267D02*
D03*
X338582Y30315D02*
D03*
X344882D02*
D03*
X358590Y19790D02*
D03*
X352290D02*
D03*
X351952Y43130D02*
D03*
X358252D02*
D03*
X358268Y58661D02*
D03*
X351968D02*
D03*
X358268Y63779D02*
D03*
X351968D02*
D03*
Y68504D02*
D03*
X358268D02*
D03*
X335826Y53150D02*
D03*
X342126D02*
D03*
D110*
X305640Y58844D02*
D03*
Y65144D02*
D03*
X315200Y89380D02*
D03*
Y83080D02*
D03*
X310250Y83110D02*
D03*
Y89410D02*
D03*
X327953Y29922D02*
D03*
Y23622D02*
D03*
X332677Y29922D02*
D03*
Y23622D02*
D03*
X358268Y79922D02*
D03*
Y73622D02*
D03*
X353382Y79922D02*
D03*
Y73622D02*
D03*
X358268Y85433D02*
D03*
Y91733D02*
D03*
X353150Y91733D02*
D03*
Y85433D02*
D03*
X347866Y91733D02*
D03*
Y85433D02*
D03*
D114*
X345876Y24409D02*
D03*
X338376D02*
D03*
X333278Y114173D02*
D03*
X325778D02*
D03*
D118*
X322047Y23809D02*
D03*
Y31309D02*
D03*
X337008Y17136D02*
D03*
Y9636D02*
D03*
X329528Y17136D02*
D03*
Y9636D02*
D03*
X322047Y17136D02*
D03*
Y9636D02*
D03*
D145*
X230260Y79778D02*
Y83680D01*
X287017Y79134D02*
X287250Y79366D01*
X230904Y79134D02*
X287017D01*
X230260Y79778D02*
X230904Y79134D01*
X90354Y30650D02*
X90354D01*
X102204Y18800D01*
X111600D01*
X223090Y109370D02*
X226779Y105681D01*
X227220Y96090D02*
X229210Y98080D01*
X218390Y109880D02*
X226779Y101491D01*
X229210Y98080D02*
Y118320D01*
X223090Y109370D02*
Y116160D01*
X226779Y101240D02*
Y101491D01*
X218390Y109880D02*
Y116800D01*
X230260Y83680D02*
X244530Y97950D01*
X240748Y134022D02*
X244530Y130240D01*
Y97950D02*
Y130240D01*
D146*
X310250Y89410D02*
Y150080D01*
X319490Y159320D01*
X335826Y48106D02*
Y53150D01*
X335082Y53894D02*
X335826Y53150D01*
X339387Y147623D02*
X348680Y138330D01*
Y101636D02*
Y138330D01*
X335255Y72300D02*
Y88211D01*
X348680Y101636D01*
X338146Y69410D02*
X341968D01*
X335255Y72300D02*
X338146Y69410D01*
X362390Y48520D02*
X364420Y46490D01*
X351968Y52022D02*
X355470Y48520D01*
X362390D01*
X351968Y52022D02*
Y58661D01*
X364420Y43130D02*
Y46490D01*
X348568Y58661D02*
X351968D01*
X358447Y43130D02*
X364420D01*
X358447D02*
X359247Y42330D01*
X358252Y43130D02*
X358447D01*
X341968Y53307D02*
X342126Y53150D01*
X341968Y53307D02*
Y59409D01*
X347820D02*
X348568Y58661D01*
X341968Y59409D02*
X347820D01*
X358268Y63779D02*
Y68504D01*
X351968Y63779D02*
Y68504D01*
X341968Y69410D02*
X350713D01*
X351618Y68504D01*
X351968D01*
X335082Y63531D02*
X335961Y64410D01*
X335082Y53894D02*
Y63531D01*
X335961Y64410D02*
X341968D01*
X358267Y73622D02*
X358268Y73622D01*
X353382Y73622D02*
X358267D01*
X352594Y74410D02*
X353382Y73622D01*
X341968Y74410D02*
X352594D01*
X358267Y79922D02*
X358268Y79922D01*
X353382Y79922D02*
X358267D01*
X352880Y79420D02*
X353382Y79922D01*
X341968Y79409D02*
X341979Y79420D01*
X352880D01*
X344173Y85433D02*
X347866D01*
X341968Y84409D02*
X343150D01*
X344173Y85433D01*
X352662Y84945D02*
X353150Y85433D01*
X347866Y85433D02*
X348354Y84945D01*
X352662D01*
X353150Y85433D02*
X358268D01*
X347866Y91733D02*
X348043Y91910D01*
X352973D02*
X353150Y91733D01*
X348043Y91910D02*
X352973D01*
X344766Y91733D02*
X347866D01*
X341968Y89410D02*
X343150D01*
X343541Y90508D02*
X344766Y91733D01*
X343150Y89410D02*
X343541Y89801D01*
Y90508D01*
X318684Y36614D02*
X319650Y37580D01*
X320042Y59409D02*
X321024D01*
X319650Y59018D02*
X320042Y59409D01*
X319650Y37580D02*
Y59018D01*
X311417Y36614D02*
X318684D01*
X312720Y63754D02*
X319187D01*
X319843Y64410D01*
X321024D01*
X304959Y78052D02*
X307774D01*
X304080Y78931D02*
X304959Y78052D01*
X304080Y78931D02*
Y88492D01*
X304959Y89371D01*
X309842D01*
X307774Y78052D02*
X308267Y77559D01*
X310250Y82680D02*
X310665Y83095D01*
X307046Y82885D02*
X310085D01*
X306881Y82719D02*
X307046Y82885D01*
X315200Y89380D02*
X315210Y89390D01*
X321004D02*
X321024Y89410D01*
X315210Y89390D02*
X321004D01*
X315973Y84230D02*
X321024D01*
X314838Y83095D02*
X315973Y84230D01*
X321024D02*
Y84409D01*
X310085Y82885D02*
X310250Y82719D01*
X310665Y83095D02*
X314838D01*
X353527Y147623D02*
Y157713D01*
X319490Y159320D02*
X351920D01*
X353527Y157713D01*
X304270Y66864D02*
X305640Y65494D01*
X304270Y66864D02*
Y73480D01*
X305640Y65144D02*
Y65494D01*
X306090Y52940D02*
X308636Y55486D01*
X312720D01*
X309362Y58844D02*
X312720Y55486D01*
X305640Y58844D02*
X309362D01*
X308230Y77522D02*
X308267Y77559D01*
X308230Y70980D02*
Y77522D01*
X314530Y70980D02*
X315240Y71690D01*
X318004D02*
X319451Y70244D01*
X315240Y71690D02*
X318004D01*
X319451Y69801D02*
Y70244D01*
Y69801D02*
X319843Y69410D01*
X321024D01*
X314567Y77559D02*
X314917D01*
X316376Y79018D01*
X320632D01*
X321024Y79409D01*
Y89410D02*
Y92051D01*
X321597Y92624D02*
Y98032D01*
X321024Y92051D02*
X321597Y92624D01*
X338292Y10920D02*
X353220D01*
X358240Y19440D02*
X358590Y19790D01*
X353220Y10920D02*
X358240Y15940D01*
Y19440D01*
X337008Y9636D02*
X338292Y10920D01*
X359247Y37239D02*
Y42330D01*
X351288Y42467D02*
X351767Y42945D01*
X351952Y43130D01*
X351767Y37239D02*
Y42945D01*
X344590Y41530D02*
X345527Y42467D01*
X351288D01*
X352290Y19790D02*
X352640D01*
X355507Y22657D01*
Y27002D01*
X332677Y23622D02*
X337588D01*
X338376Y24409D01*
Y30109D02*
X338582Y30315D01*
X338376Y24409D02*
Y30109D01*
X327953Y23622D02*
X332677D01*
X322047Y31309D02*
X322926Y30430D01*
X327444D01*
X327953Y29922D01*
X312018Y31309D02*
X322047D01*
X327953Y29922D02*
X332677D01*
X311417Y30709D02*
X312018Y31309D01*
X118600Y167780D02*
X199910Y249090D01*
X276381D01*
X277260Y150250D02*
Y248211D01*
X276381Y249090D02*
X277260Y248211D01*
X78075Y106655D02*
X81695D01*
X55630Y129100D02*
X78075Y106655D01*
X47099Y129100D02*
X55630D01*
X277260Y150250D02*
X278907Y148603D01*
X281317D01*
X59070Y167780D02*
X118600D01*
X46220Y154930D02*
X59070Y167780D01*
X46220Y129979D02*
Y154930D01*
Y129979D02*
X47099Y129100D01*
D147*
X358268Y58661D02*
X358568Y58361D01*
X363679D01*
X364950Y57090D01*
X358568Y72972D02*
X358568D01*
X359199Y72340D02*
X363200D01*
X358568Y72972D02*
X359199Y72340D01*
X358268Y73272D02*
X358568Y72972D01*
X358268Y73272D02*
Y73622D01*
X363200Y72340D02*
X364950Y70590D01*
X358268Y79756D02*
Y79922D01*
Y79756D02*
X358568Y79456D01*
X364284D01*
X364750Y78990D01*
X358268Y91733D02*
Y91811D01*
X358568Y92111D01*
X364371D01*
X364750Y92490D01*
X333278Y114173D02*
X333500Y114396D01*
X325770Y139000D02*
X333500Y131270D01*
Y114396D02*
Y131270D01*
X346010Y155140D02*
X353527Y147623D01*
X325770Y139000D02*
Y153675D01*
X327235Y155140D01*
X346010D01*
D148*
X85433Y135827D02*
X96850Y124409D01*
X51575Y135827D02*
X85433D01*
X98819Y123425D02*
X103150D01*
X97835Y124409D02*
X98819Y123425D01*
X96850Y124409D02*
X97835D01*
D149*
X226960Y266970D02*
X245750D01*
X260480Y252240D01*
X175183Y137810D02*
X180079D01*
X174803Y138189D02*
X175183Y137810D01*
X210731Y140091D02*
X216330Y145690D01*
X180458Y138189D02*
X213979D01*
X180079Y137810D02*
X180458Y138189D01*
X179134Y140091D02*
X210731D01*
X213979Y138189D02*
X216250Y140460D01*
X263519Y169811D02*
X265370Y167960D01*
X263519Y169811D02*
Y198391D01*
X251150Y210760D02*
X263519Y198391D01*
X207810Y90030D02*
X210730Y87110D01*
X201099Y90030D02*
X207810D01*
X171040Y120089D02*
X201099Y90030D01*
X171040Y178420D02*
X182500Y189880D01*
X171040Y120089D02*
Y178420D01*
X182500Y189880D02*
X231310D01*
X246330Y234016D02*
X251150Y229196D01*
Y210760D02*
Y229196D01*
X248110Y194880D02*
X254380Y188610D01*
Y183280D02*
Y188610D01*
X244110Y224016D02*
X248110Y220016D01*
Y194880D02*
Y220016D01*
X242374Y196606D02*
Y214016D01*
Y196606D02*
X250591Y188389D01*
Y186299D02*
X250890Y186000D01*
X250591Y186299D02*
Y188389D01*
D150*
X214287Y101757D02*
Y109196D01*
X212270Y99740D02*
X214287Y101757D01*
X213189Y110294D02*
X214287Y109196D01*
X238400Y157094D02*
Y186008D01*
X213189Y131883D02*
X238400Y157094D01*
X213189Y110294D02*
Y131883D01*
X215570Y131860D02*
X243200Y159490D01*
X215570Y111280D02*
Y131860D01*
X243200Y159490D02*
Y186800D01*
X238400Y186008D02*
X239192Y186800D01*
D151*
X348911Y28260D02*
X351767D01*
X348761Y28410D02*
X348911Y28260D01*
X344882Y30315D02*
X345232D01*
X346182Y29113D02*
Y29365D01*
X345232Y30315D02*
X346182Y29365D01*
Y29113D02*
X346885Y28410D01*
X348761D01*
X351767Y27002D02*
Y27679D01*
Y28260D02*
Y30587D01*
X352470Y31290D01*
X359247Y27002D02*
Y30587D01*
X352470Y31290D02*
X358544D01*
X359247Y30587D01*
X198442Y57070D02*
X236330D01*
X241230Y9360D02*
Y52170D01*
X236330Y57070D02*
X241230Y52170D01*
Y9360D02*
X245310Y5280D01*
X289680Y9530D02*
Y41870D01*
X245310Y5280D02*
X285430D01*
X289680Y9530D01*
X198425Y57087D02*
X198442Y57070D01*
D152*
X322047Y17136D02*
Y23809D01*
X252756Y279213D02*
X254252Y280709D01*
X269685Y268898D02*
Y276378D01*
X254252Y280709D02*
X265354D01*
X269685Y276378D01*
D154*
X103150Y117126D02*
X117551D01*
X120480Y80087D02*
X129967Y70600D01*
X181369D02*
X194882Y57087D01*
X129967Y70600D02*
X181369D01*
X117551Y117126D02*
X120480Y114197D01*
Y80087D02*
Y114197D01*
X194882Y57087D02*
X198425D01*
D155*
X292394Y116303D02*
Y160503D01*
X257761Y81670D02*
X292394Y116303D01*
X287579Y165318D02*
X292394Y160503D01*
X289919Y156254D02*
Y158330D01*
X289504Y156254D02*
X289919D01*
X289504Y153778D02*
Y156254D01*
Y153778D02*
X289919D01*
Y153040D02*
Y153778D01*
Y158330D02*
Y159477D01*
Y117329D02*
Y153040D01*
X284722Y162842D02*
X286554D01*
X283930Y162130D02*
X284010D01*
X283990Y166030D02*
X284702Y165318D01*
X256736Y84146D02*
X289919Y117329D01*
X284702Y165318D02*
X287579D01*
X286554Y162842D02*
X289919Y159477D01*
X283910Y166030D02*
X283990D01*
X284010Y162130D02*
X284722Y162842D01*
X237510Y81670D02*
X257761D01*
X237510Y84146D02*
X256736D01*
D156*
X268562Y355727D02*
X280394Y367559D01*
X268562Y335019D02*
Y355727D01*
X252756Y319213D02*
X268562Y335019D01*
X199134Y318976D02*
X214940Y334783D01*
Y355491D01*
X226772Y367323D01*
D158*
X311417Y12992D02*
D03*
Y18898D02*
D03*
Y24803D02*
D03*
Y30709D02*
D03*
Y36614D02*
D03*
Y42520D02*
D03*
X287250Y61650D02*
D03*
Y67555D02*
D03*
Y73461D02*
D03*
Y79366D02*
D03*
Y85272D02*
D03*
Y91178D02*
D03*
D159*
X353527Y147623D02*
D03*
X339387D02*
D03*
X339383Y133483D02*
D03*
D160*
X137402Y96457D02*
D03*
Y116142D02*
D03*
X37402Y316535D02*
D03*
X17717D02*
D03*
X37402Y272441D02*
D03*
X17717D02*
D03*
D161*
X252756Y279213D02*
D03*
Y319213D02*
D03*
Y349213D02*
D03*
X282756Y279213D02*
D03*
Y339213D02*
D03*
X199134Y278976D02*
D03*
Y318976D02*
D03*
Y348976D02*
D03*
X229134Y278976D02*
D03*
Y338976D02*
D03*
D162*
X140157Y246850D02*
D03*
X81102Y325590D02*
D03*
X159843D02*
D03*
D163*
X100787Y246850D02*
D03*
D164*
X260315Y367323D02*
D03*
X280315D02*
D03*
X206772D02*
D03*
X226772D02*
D03*
X24090Y355610D02*
D03*
Y375610D02*
D03*
D165*
X161811Y368110D02*
D03*
X43701D02*
D03*
D166*
X56398Y198031D02*
D03*
D167*
X44193Y174803D02*
D03*
X202756Y32283D02*
D03*
D168*
X31594Y193701D02*
D03*
X221654Y44882D02*
D03*
D169*
X24409Y138583D02*
D03*
Y120866D02*
D03*
D170*
X198425Y57087D02*
D03*
D171*
X342120Y17200D02*
D03*
X345850Y21270D02*
D03*
X352730Y101557D02*
D03*
X335826Y48106D02*
D03*
X306881Y82719D02*
D03*
X320310Y115010D02*
D03*
X320210Y111420D02*
D03*
X304270Y73480D02*
D03*
X306090Y52940D02*
D03*
X324000Y41530D02*
D03*
X364420Y43130D02*
D03*
X260480Y252240D02*
D03*
X102840Y188010D02*
D03*
X148080Y48300D02*
D03*
X289250Y237980D02*
D03*
X225820Y240290D02*
D03*
X206693Y235827D02*
D03*
X122990Y24770D02*
D03*
X260270Y75610D02*
D03*
X267510Y75880D02*
D03*
X183400Y142470D02*
D03*
X183280Y147290D02*
D03*
X159130Y218390D02*
D03*
X137710Y202210D02*
D03*
X137850Y208610D02*
D03*
X96230Y218960D02*
D03*
X45230Y121610D02*
D03*
X54280Y111990D02*
D03*
X59640Y131300D02*
D03*
X56340Y140300D02*
D03*
X54860Y159500D02*
D03*
X127090Y169420D02*
D03*
X147700Y158430D02*
D03*
X88930Y145110D02*
D03*
X171120Y186770D02*
D03*
X187310Y170270D02*
D03*
X114680Y99620D02*
D03*
X178910Y130430D02*
D03*
X154190Y129570D02*
D03*
X154510Y99500D02*
D03*
X130190Y78160D02*
D03*
X281840Y27070D02*
D03*
X262500Y97940D02*
D03*
X274570Y75880D02*
D03*
X276240Y112150D02*
D03*
X231270Y154510D02*
D03*
X249050Y150220D02*
D03*
X248930Y168070D02*
D03*
X231580Y168260D02*
D03*
X202470Y130080D02*
D03*
X266840Y127470D02*
D03*
X211660Y133960D02*
D03*
X270800Y203890D02*
D03*
X271820Y173730D02*
D03*
X197740Y184790D02*
D03*
X215640Y178920D02*
D03*
X228990Y205170D02*
D03*
X180990Y218580D02*
D03*
X134252Y32283D02*
D03*
X76772Y162902D02*
D03*
X179134Y140091D02*
D03*
X174803Y138189D02*
D03*
X265370Y167960D02*
D03*
X226960Y266970D02*
D03*
X213386Y203937D02*
D03*
X208661D02*
D03*
X203937D02*
D03*
X199213D02*
D03*
X194488D02*
D03*
X189764D02*
D03*
X203310Y135740D02*
D03*
X216330Y145690D02*
D03*
X216250Y140460D02*
D03*
X265800Y185460D02*
D03*
X90354Y30650D02*
D03*
X102070Y28760D02*
D03*
X106810Y23800D02*
D03*
X109550Y28870D02*
D03*
X69030Y15880D02*
D03*
X294020Y61260D02*
D03*
X226779Y105681D02*
D03*
Y101240D02*
D03*
X227220Y96090D02*
D03*
X229210Y118320D02*
D03*
X223090Y116160D02*
D03*
X218390Y116800D02*
D03*
X211220Y106010D02*
D03*
X215570Y111280D02*
D03*
X210750Y118100D02*
D03*
X240748Y134022D02*
D03*
X210730Y87110D02*
D03*
X212270Y99740D02*
D03*
X202692Y124108D02*
D03*
X81695Y106655D02*
D03*
X231310Y189880D02*
D03*
X254380Y183280D02*
D03*
X242374Y214016D02*
D03*
X244110Y224016D02*
D03*
X246330Y234016D02*
D03*
X250890Y186000D02*
D03*
X247374Y244016D02*
D03*
X243200Y186800D02*
D03*
X269685Y268898D02*
D03*
X281317Y148603D02*
D03*
X258680Y28238D02*
D03*
X58268Y180709D02*
D03*
X61750Y158610D02*
D03*
X67250Y157830D02*
D03*
X239192Y186800D02*
D03*
X111600Y18800D02*
D03*
X78690Y6100D02*
D03*
X78740Y10010D02*
D03*
X258870Y140320D02*
D03*
X262010Y140330D02*
D03*
X259740Y56660D02*
D03*
X280660Y58490D02*
D03*
X269079Y114737D02*
D03*
X263568D02*
D03*
X257662D02*
D03*
X252544D02*
D03*
X103150Y113976D02*
D03*
X69900Y141720D02*
D03*
X68620Y150240D02*
D03*
X289680Y41870D02*
D03*
X103150Y123425D02*
D03*
Y117126D02*
D03*
Y120276D02*
D03*
X51575Y135827D02*
D03*
X66535Y180709D02*
D03*
X62205D02*
D03*
X66142Y207874D02*
D03*
X62205D02*
D03*
X58400Y207900D02*
D03*
D172*
X258680Y47820D02*
D03*
X237510Y81670D02*
D03*
Y84146D02*
D03*
X283910Y166030D02*
D03*
X283930Y162130D02*
D03*
D209*
X312720Y63754D02*
D03*
Y55486D02*
D03*
D210*
X359247Y27002D02*
D03*
X355507D02*
D03*
X351767D02*
D03*
Y37239D02*
D03*
X359247D02*
D03*
D211*
X344590Y41530D02*
D03*
X331090D02*
D03*
X321597Y98032D02*
D03*
X335097D02*
D03*
X321765Y106437D02*
D03*
X335265D02*
D03*
D212*
X341968Y89410D02*
D03*
Y84409D02*
D03*
Y79409D02*
D03*
Y74410D02*
D03*
Y69410D02*
D03*
Y64410D02*
D03*
Y59409D02*
D03*
X321024D02*
D03*
Y64410D02*
D03*
Y69410D02*
D03*
Y74410D02*
D03*
Y79409D02*
D03*
Y84409D02*
D03*
Y89410D02*
D03*
D213*
X364950Y70590D02*
D03*
Y57090D02*
D03*
X364750Y92490D02*
D03*
Y78990D02*
D03*
D214*
X324000Y41530D02*
X331090D01*
M02*
